<?xml version="1.0" encoding="utf-8"?>
<!-- Generator: Adobe Illustrator 26.0.1, SVG Export Plug-In . SVG Version: 6.00 Build 0)  -->
<!DOCTYPE svg PUBLIC "-//W3C//DTD SVG 1.1//EN" "http://www.w3.org/Graphics/SVG/1.1/DTD/svg11.dtd" [
	<!ENTITY ns_extend "http://ns.adobe.com/Extensibility/1.0/">
	<!ENTITY ns_ai "http://ns.adobe.com/AdobeIllustrator/10.0/">
	<!ENTITY ns_graphs "http://ns.adobe.com/Graphs/1.0/">
	<!ENTITY ns_vars "http://ns.adobe.com/Variables/1.0/">
	<!ENTITY ns_imrep "http://ns.adobe.com/ImageReplacement/1.0/">
	<!ENTITY ns_sfw "http://ns.adobe.com/SaveForWeb/1.0/">
	<!ENTITY ns_custom "http://ns.adobe.com/GenericCustomNamespace/1.0/">
	<!ENTITY ns_adobe_xpath "http://ns.adobe.com/XPath/1.0/">
]>
<svg version="1.1" xmlns:x="&ns_extend;" xmlns:i="&ns_ai;" xmlns:graph="&ns_graphs;"
	 xmlns="http://www.w3.org/2000/svg" xmlns:xlink="http://www.w3.org/1999/xlink" x="0px" y="0px" width="1000px" height="675px"
	 viewBox="0 0 1000 675" style="enable-background:new 0 0 1000 675;" xml:space="preserve">
<style type="text/css">
	.st0{fill:#FFFFFF;}
	.st1{fill:#D2374E;}
	.st2{fill:none;stroke:#D2374E;stroke-width:2;stroke-linecap:round;stroke-linejoin:round;}
	.st3{fill:none;stroke:#D2374E;stroke-width:2;stroke-linecap:round;stroke-linejoin:round;stroke-dasharray:3.4615,5.7692;}
	.st4{fill:none;stroke:#D2374E;stroke-width:2;stroke-linecap:round;stroke-linejoin:round;stroke-miterlimit:10;}
	.st5{fill:none;stroke:#D2374E;stroke-width:3.25;stroke-linecap:round;stroke-linejoin:round;}
	.st6{fill:none;stroke:#D2374E;stroke-width:3.25;stroke-linecap:round;stroke-linejoin:round;stroke-dasharray:3.9202,6.8604;}
	.st7{fill:none;stroke:#D2374E;stroke-width:3.25;stroke-linecap:round;stroke-linejoin:round;stroke-dasharray:3.966,6.9405;}
	.st8{fill:none;stroke:#D2374E;stroke-width:3.25;stroke-linecap:round;stroke-linejoin:round;stroke-dasharray:3.9324,6.8817;}
	.st9{fill:none;stroke:#D2374E;stroke-width:3.25;stroke-linecap:round;stroke-linejoin:round;stroke-dasharray:3.8866,6.8015;}
	.st10{fill:none;stroke:#D2374E;stroke-width:3.25;stroke-linecap:round;stroke-linejoin:round;stroke-dasharray:4.0693,7.1213;}
	.st11{fill:none;stroke:#D2374E;stroke-width:3.25;stroke-linecap:round;stroke-linejoin:round;stroke-dasharray:3.9356,6.8873;}
	.st12{fill:none;stroke:#D2374E;stroke-width:3.25;stroke-linecap:round;stroke-linejoin:round;stroke-dasharray:3.9532,6.918;}
	.st13{fill:none;stroke:#D2374E;stroke-width:3.25;stroke-linecap:round;stroke-linejoin:round;stroke-dasharray:4.0216,7.0378;}
	.st14{fill:none;stroke:#D2374E;stroke-width:3.25;stroke-linecap:round;stroke-linejoin:round;stroke-dasharray:3.9787,6.9628;}
	.st15{fill:none;stroke:#D2374E;stroke-width:3.25;stroke-linecap:round;stroke-linejoin:round;stroke-dasharray:4.0147,7.0257;}
	.st16{fill:none;stroke:#D2374E;stroke-width:3.25;stroke-linecap:round;stroke-linejoin:round;stroke-dasharray:3.9824,6.9692;}
	.st17{fill:none;stroke:#D2374E;stroke-width:3.25;stroke-linecap:round;stroke-linejoin:round;stroke-dasharray:4.0033,7.0057;}
	.st18{fill:none;stroke:#D2374E;stroke-width:3.25;stroke-linecap:round;stroke-linejoin:round;stroke-dasharray:4.0114,7.0199;}
	.st19{fill:none;stroke:#D2374E;stroke-width:3.25;stroke-linecap:round;stroke-linejoin:round;stroke-dasharray:4.006,7.0105;}
	.st20{fill:none;stroke:#D2374E;stroke-width:3.25;stroke-linecap:round;stroke-linejoin:round;stroke-dasharray:4.0036,7.0062;}
	.st21{fill:none;stroke:#D2374E;stroke-width:3.25;stroke-linecap:round;stroke-linejoin:round;stroke-dasharray:3.9928,6.9873;}
	.st22{fill:none;stroke:#D2374E;stroke-width:3.25;stroke-linecap:round;stroke-linejoin:round;stroke-dasharray:3.9426,6.8995;}
	.st23{fill:none;stroke:#D2374E;stroke-width:3.25;stroke-linecap:round;stroke-linejoin:round;stroke-dasharray:3.9159,6.8529;}
	.st24{fill:none;stroke:#D2374E;stroke-width:3;stroke-linecap:round;stroke-linejoin:round;}
	.st25{fill:none;stroke:#D2374E;stroke-width:3;stroke-linecap:round;stroke-linejoin:round;stroke-dasharray:3.8885,6.8048;}
	.st26{fill:none;stroke:#D2374E;stroke-width:3.25;stroke-linecap:round;stroke-linejoin:round;stroke-dasharray:3.972,6.951;}
	.st27{fill:none;stroke:#D2374E;stroke-width:3.25;stroke-linecap:round;stroke-linejoin:round;stroke-dasharray:4.0059,7.0103;}
	.st28{fill:none;stroke:#D2374E;stroke-width:3.25;stroke-linecap:round;stroke-linejoin:round;stroke-dasharray:3.9337,6.8839;}
	.st29{fill:none;stroke:#D2374E;stroke-width:3.25;stroke-linecap:round;stroke-linejoin:round;stroke-dasharray:4.0265,7.0464;}
	.st30{fill:none;stroke:#D2374E;stroke-width:3.25;stroke-linecap:round;stroke-linejoin:round;stroke-dasharray:4.0492,7.086;}
	.st31{fill:none;stroke:#D2374E;stroke-width:3;stroke-linecap:round;stroke-linejoin:round;stroke-dasharray:3.9001,6.8252;}
	.st32{fill:none;stroke:#D2374E;stroke-width:3.25;stroke-linecap:round;stroke-linejoin:round;stroke-dasharray:4.0711,7.1244;}
	.st33{fill:none;stroke:#D2374E;stroke-width:3;stroke-linecap:round;stroke-linejoin:round;stroke-dasharray:2.9922,5.9844;}
	.st34{fill:none;stroke:#D2374E;stroke-width:3;stroke-linecap:round;stroke-linejoin:round;stroke-dasharray:3.0069,6.0138;}
	.st35{fill:none;stroke:#D2374E;stroke-width:3;stroke-linecap:round;stroke-linejoin:round;stroke-dasharray:2.9983,5.9966;}
	.st36{fill:none;stroke:#D2374E;stroke-width:3;stroke-linecap:round;stroke-linejoin:round;stroke-dasharray:3.0164,6.0328;}
	.st37{fill:none;stroke:#D2374E;stroke-width:3;stroke-linecap:round;stroke-linejoin:round;stroke-dasharray:2.9189,5.8377;}
	.st38{fill:none;stroke:#D2374E;stroke-width:3;stroke-linecap:round;stroke-linejoin:round;stroke-dasharray:3.0842,6.1685;}
	.st39{fill:none;stroke:#D2374E;stroke-width:3;stroke-linecap:round;stroke-linejoin:round;stroke-dasharray:2.9838,5.9677;}
	.st40{fill:none;stroke:#D2374E;stroke-width:3;stroke-linecap:round;stroke-linejoin:round;stroke-dasharray:3.0354,6.0708;}
	.st41{fill:none;stroke:#D2374E;stroke-width:3;stroke-linecap:round;stroke-linejoin:round;stroke-dasharray:2.9005,5.8011;}
	.st42{fill:none;stroke:#D2374E;stroke-width:3;stroke-linecap:round;stroke-linejoin:round;stroke-dasharray:3.0242,6.0484;}
	.st43{fill:none;stroke:#D2374E;stroke-width:3;stroke-linecap:round;stroke-linejoin:round;stroke-dasharray:1.5418,3.0837;}
	.st44{fill:none;stroke:#D2374E;stroke-width:3;stroke-linecap:round;stroke-linejoin:round;stroke-dasharray:2.9874,5.9747;}
	.st45{fill:none;stroke:#D2374E;stroke-width:3;stroke-linecap:round;stroke-linejoin:round;stroke-dasharray:2.9448,5.8896;}
	.st46{fill:none;stroke:#D2374E;stroke-width:3;stroke-linecap:round;stroke-linejoin:round;stroke-dasharray:2.9896,5.9792;}
	.st47{fill:none;stroke:#D2374E;stroke-width:3;stroke-linecap:round;stroke-linejoin:round;stroke-dasharray:3.0419,6.0837;}
	.st48{fill:none;stroke:#D2374E;stroke-width:3;stroke-linecap:round;stroke-linejoin:round;stroke-dasharray:3.006,6.0121;}
	.st49{fill:none;stroke:#D2374E;stroke-width:3;stroke-linecap:round;stroke-linejoin:round;stroke-dasharray:3.0449,6.0898;}
	.st50{fill:none;stroke:#D2374E;stroke-width:3;stroke-linecap:round;stroke-linejoin:round;stroke-dasharray:2.9595,5.919;}
	.st51{fill:none;stroke:#D2374E;stroke-width:3;stroke-linecap:round;stroke-linejoin:round;stroke-dasharray:2.9864,5.9728;}
	.st52{fill:none;stroke:#D2374E;stroke-width:3;stroke-linecap:round;stroke-linejoin:round;stroke-dasharray:2.9907,5.9814;}
	.st53{fill:none;stroke:#D2374E;stroke-width:3;stroke-linecap:round;stroke-linejoin:round;stroke-dasharray:2.9777,5.9553;}
	.st54{fill:none;stroke:#D2374E;stroke-width:3;stroke-linecap:round;stroke-linejoin:round;stroke-dasharray:3.0721,6.1441;}
	.st55{fill:none;stroke:#D2374E;stroke-width:3;stroke-linecap:round;stroke-linejoin:round;stroke-dasharray:2.8882,5.7764;}
	.st56{fill:none;stroke:#D2374E;stroke-width:3;stroke-linecap:round;stroke-linejoin:round;stroke-dasharray:3.0721,6.1443;}
	.st57{fill:none;stroke:#D2374E;stroke-width:3;stroke-linecap:round;stroke-linejoin:round;stroke-dasharray:1.9159,3.8319;}
	.st58{fill:none;stroke:#D2374E;stroke-width:3;stroke-linecap:round;stroke-linejoin:round;stroke-dasharray:3.0471,6.0941;}
	.st59{fill:none;stroke:#D2374E;stroke-width:3;stroke-linecap:round;stroke-linejoin:round;stroke-dasharray:3.0196,6.0393;}
	.st60{fill:none;stroke:#D2374E;stroke-width:3;stroke-linecap:round;stroke-linejoin:round;stroke-dasharray:3.0608,6.1215;}
	.st61{fill:none;stroke:#D2374E;stroke-width:3;stroke-linecap:round;stroke-linejoin:round;stroke-dasharray:2.9826,5.9652;}
	.st62{fill:none;stroke:#D2374E;stroke-width:3;stroke-linecap:round;stroke-linejoin:round;stroke-dasharray:3.0253,6.0507;}
	.st63{fill:none;stroke:#D2374E;stroke-width:3;stroke-linecap:round;stroke-linejoin:round;stroke-dasharray:1.9503,3.9006;}
	.st64{fill:none;stroke:#D2374E;stroke-width:3;stroke-linecap:round;stroke-linejoin:round;stroke-dasharray:2.9468,5.8935;}
	.st65{fill:none;stroke:#D2374E;stroke-width:3;stroke-linecap:round;stroke-linejoin:round;stroke-dasharray:3.0622,6.1243;}
	.st66{fill:none;stroke:#D2374E;stroke-width:3;stroke-linecap:round;stroke-linejoin:round;stroke-dasharray:2.9721,5.9441;}
	.st67{fill:none;stroke:#D2374E;stroke-width:3;stroke-linecap:round;stroke-linejoin:round;stroke-dasharray:2.9981,5.9961;}
	.st68{fill:none;stroke:#D2374E;stroke-width:3;stroke-linecap:round;stroke-linejoin:round;stroke-dasharray:3.1232,6.2464;}
	.st69{fill:none;stroke:#D2374E;stroke-width:3;stroke-linecap:round;stroke-linejoin:round;stroke-dasharray:3.0217,6.0433;}
	.st70{fill:none;stroke:#D2374E;stroke-width:3;stroke-linecap:round;stroke-linejoin:round;stroke-dasharray:2.9974,5.9948;}
	.st71{fill:none;stroke:#D2374E;stroke-width:3;stroke-linecap:round;stroke-linejoin:round;stroke-dasharray:2.4663,4.9325;}
	.st72{fill:none;stroke:#D2374E;stroke-width:3;stroke-linecap:round;stroke-linejoin:round;stroke-dasharray:2.9637,5.9274;}
	.st73{fill:none;stroke:#D2374E;stroke-width:3;stroke-linecap:round;stroke-linejoin:round;stroke-dasharray:2.9517,5.9035;}
	.st74{fill:none;stroke:#D2374E;stroke-width:3;stroke-linecap:round;stroke-linejoin:round;stroke-dasharray:3.0066,6.0132;}
	.st75{fill:none;stroke:#D2374E;stroke-width:3;stroke-linecap:round;stroke-linejoin:round;stroke-dasharray:2.9417,5.8834;}
	.st76{fill:none;stroke:#D2374E;stroke-width:3;stroke-linecap:round;stroke-linejoin:round;stroke-dasharray:2.9696,5.9392;}
	.st77{fill:none;stroke:#D2374E;stroke-width:3;stroke-linecap:round;stroke-linejoin:round;stroke-dasharray:1.7668,3.5335;}
	.st78{fill:none;stroke:#D2374E;stroke-width:3;stroke-linecap:round;stroke-linejoin:round;stroke-dasharray:1.7839,3.5677;}
	.st79{fill:none;stroke:#D2374E;stroke-width:3;stroke-linecap:round;stroke-linejoin:round;stroke-dasharray:1.8663,3.7326;}
	.st80{fill:none;stroke:#D2374E;stroke-width:3;stroke-linecap:round;stroke-linejoin:round;stroke-dasharray:2.9914,5.9827;}
	.st81{fill:none;stroke:#D2374E;stroke-width:3;stroke-linecap:round;stroke-linejoin:round;stroke-dasharray:3.0027,6.0055;}
	.st82{fill:none;stroke:#D2374E;stroke-width:3;stroke-linecap:round;stroke-linejoin:round;stroke-dasharray:2.858,5.716;}
	.st83{fill:none;stroke:#D2374E;stroke-width:3;stroke-linecap:round;stroke-linejoin:round;stroke-dasharray:3.0107,6.0214;}
	.st84{fill:none;stroke:#D2374E;stroke-width:3;stroke-linecap:round;stroke-linejoin:round;stroke-dasharray:3.0405,6.0811;}
	.st85{fill:none;stroke:#D2374E;stroke-width:3;stroke-linecap:round;stroke-linejoin:round;stroke-dasharray:2.802,5.6041;}
	.st86{fill:none;stroke:#D2374E;stroke-width:3;stroke-linecap:round;stroke-linejoin:round;stroke-dasharray:3.0135,6.027;}
	.st87{fill:none;stroke:#D2374E;stroke-width:3;stroke-linecap:round;stroke-linejoin:round;stroke-dasharray:2.9567,5.9135;}
	.st88{fill:none;stroke:#D2374E;stroke-width:3;stroke-linecap:round;stroke-linejoin:round;stroke-dasharray:2.962,5.924;}
	.st89{fill:none;stroke:#D2374E;stroke-width:3;stroke-linecap:round;stroke-linejoin:round;stroke-dasharray:1.6535,3.307;}
	.st90{fill:none;stroke:#D2374E;stroke-width:3;stroke-linecap:round;stroke-linejoin:round;stroke-dasharray:1.6698,3.3396;}
	.st91{fill:none;stroke:#D2374E;stroke-width:3;stroke-linecap:round;stroke-linejoin:round;stroke-dasharray:1.7483,3.4966;}
	.st92{fill:none;stroke:#D2374E;stroke-width:3;stroke-linecap:round;stroke-linejoin:round;stroke-dasharray:2.9776,5.9551;}
	.st93{fill:none;stroke:#D2374E;stroke-width:3;stroke-linecap:round;stroke-linejoin:round;stroke-dasharray:2.9935,5.9871;}
	.st94{fill:none;stroke:#D2374E;stroke-width:3;stroke-linecap:round;stroke-linejoin:round;stroke-dasharray:2.5236,5.0472;}
	.st95{fill:none;stroke:#D2374E;stroke-width:3;stroke-linecap:round;stroke-linejoin:round;stroke-dasharray:3.0201,6.0403;}
	.st96{fill:none;stroke:#D2374E;stroke-width:3;stroke-linecap:round;stroke-linejoin:round;stroke-dasharray:3.0181,6.0363;}
	.st97{fill:none;stroke:#D2374E;stroke-width:3;stroke-linecap:round;stroke-linejoin:round;stroke-dasharray:1.5537,3.1073;}
	.st98{fill:none;stroke:#D2374E;stroke-width:3;stroke-linecap:round;stroke-linejoin:round;stroke-dasharray:2.9946,5.9893;}
	.st99{fill:none;stroke:#D2374E;stroke-width:3;stroke-linecap:round;stroke-linejoin:round;stroke-dasharray:3.0643,6.1286;}
	.st100{fill:none;stroke:#D2374E;stroke-width:3;stroke-linecap:round;stroke-linejoin:round;stroke-dasharray:3.0262,6.0524;}
	.st101{fill:none;stroke:#D2374E;stroke-width:3;stroke-linecap:round;stroke-linejoin:round;stroke-dasharray:3.0331,6.0662;}
	.st102{fill:none;stroke:#D2374E;stroke-width:2.75;stroke-linecap:round;stroke-linejoin:round;stroke-miterlimit:10;}
	.st103{fill:none;stroke:#D2374E;stroke-width:2.5;stroke-linecap:round;stroke-linejoin:round;stroke-miterlimit:10;}
	.st104{fill:none;stroke:#D2374E;stroke-width:3.5;stroke-linecap:round;stroke-linejoin:round;stroke-miterlimit:10;}
	.st105{fill:none;stroke:#D2374E;stroke-width:3;stroke-linecap:round;stroke-linejoin:round;stroke-miterlimit:10;}
</style>
<metadata>
	<sfw  xmlns="&ns_sfw;">
		<slices></slices>
		<sliceSourceBounds  bottomLeftOrigin="true" height="8225.674" width="4394" x="-2000" y="686"></sliceSourceBounds>
	</sfw>
</metadata>
<g id="FILL-BACKGROUND">
	<rect x="0" y="0" class="st0" width="1000" height="675"/>
</g>
<g id="N-DIMENSIONS">
</g>
<g id="N-TEXT">
	<g id="MTEXT_00000176003954888088640940000011474099607937774779_">
		<g>
			<g>
				<path class="st1" d="M389.311,622.784c-0.068-0.688-0.361-1.222-0.878-1.603c-0.517-0.38-1.219-0.571-2.105-0.571
					c-0.603,0-1.111,0.084-1.526,0.251c-0.415,0.167-0.731,0.399-0.95,0.694c-0.219,0.296-0.328,0.631-0.328,1.006
					c-0.011,0.312,0.056,0.585,0.2,0.818c0.145,0.233,0.345,0.433,0.601,0.601c0.256,0.168,0.551,0.312,0.886,0.435
					c0.335,0.123,0.693,0.226,1.074,0.311l1.568,0.375c0.761,0.171,1.46,0.398,2.097,0.682s1.188,0.633,1.653,1.048
					c0.466,0.415,0.828,0.903,1.087,1.466c0.258,0.562,0.391,1.208,0.396,1.935c-0.005,1.068-0.277,1.993-0.814,2.774
					c-0.537,0.781-1.31,1.386-2.318,1.815c-1.009,0.429-2.223,0.644-3.644,0.644c-1.409,0-2.635-0.216-3.678-0.647
					c-1.042-0.432-1.855-1.073-2.438-1.922c-0.583-0.85-0.888-1.902-0.916-3.158h3.571c0.04,0.585,0.209,1.072,0.507,1.461
					s0.699,0.682,1.202,0.878s1.072,0.294,1.709,0.294c0.625,0,1.169-0.091,1.632-0.272c0.463-0.182,0.823-0.435,1.078-0.759
					c0.256-0.324,0.384-0.696,0.384-1.116c0-0.392-0.115-0.722-0.345-0.989c-0.23-0.267-0.565-0.494-1.006-0.682
					s-0.979-0.358-1.615-0.512l-1.9-0.477c-1.472-0.358-2.633-0.917-3.486-1.679c-0.852-0.761-1.275-1.787-1.27-3.077
					c-0.005-1.057,0.277-1.98,0.848-2.77c0.571-0.79,1.356-1.406,2.356-1.849c1-0.443,2.136-0.665,3.409-0.665
					c1.295,0,2.428,0.222,3.396,0.665c0.969,0.443,1.723,1.06,2.263,1.849c0.54,0.79,0.818,1.705,0.835,2.745H389.311z"/>
				<path class="st1" d="M401.405,635.475c-1.324,0-2.467-0.283-3.431-0.848c-0.963-0.565-1.706-1.355-2.229-2.369
					c-0.523-1.015-0.784-2.192-0.784-3.533c0-1.353,0.261-2.536,0.784-3.55c0.522-1.014,1.266-1.804,2.229-2.37
					c0.963-0.565,2.106-0.848,3.431-0.848c1.324,0,2.467,0.283,3.43,0.848c0.963,0.565,1.706,1.355,2.229,2.37
					c0.522,1.014,0.784,2.197,0.784,3.55c0,1.341-0.261,2.518-0.784,3.533c-0.523,1.014-1.266,1.804-2.229,2.369
					C403.872,635.192,402.729,635.475,401.405,635.475z M401.422,632.662c0.602,0,1.105-0.172,1.508-0.516s0.709-0.814,0.916-1.411
					c0.208-0.597,0.312-1.275,0.312-2.037c0-0.761-0.104-1.44-0.312-2.037c-0.207-0.597-0.513-1.068-0.916-1.415
					c-0.403-0.346-0.906-0.52-1.508-0.52c-0.608,0-1.118,0.174-1.53,0.52c-0.412,0.347-0.722,0.818-0.929,1.415
					c-0.208,0.596-0.311,1.275-0.311,2.037c0,0.762,0.104,1.44,0.311,2.037s0.517,1.067,0.929,1.411
					C400.304,632.49,400.813,632.662,401.422,632.662z"/>
				<path class="st1" d="M415.041,635.432c-0.995,0-1.894-0.257-2.698-0.771s-1.44-1.273-1.909-2.276
					c-0.469-1.002-0.703-2.234-0.703-3.694c0-1.5,0.242-2.749,0.725-3.746c0.483-0.998,1.126-1.745,1.93-2.242
					c0.804-0.497,1.686-0.746,2.646-0.746c0.733,0,1.345,0.124,1.837,0.371c0.491,0.247,0.889,0.554,1.193,0.92
					c0.304,0.367,0.536,0.726,0.695,1.078h0.111v-6.562h3.622v17.455h-3.58v-2.097h-0.153c-0.17,0.364-0.411,0.723-0.72,1.078
					c-0.31,0.355-0.71,0.649-1.202,0.882C416.343,635.315,415.745,635.432,415.041,635.432z M416.191,632.542
					c0.585,0,1.081-0.16,1.487-0.481c0.406-0.321,0.719-0.771,0.938-1.351c0.219-0.58,0.328-1.259,0.328-2.037
					s-0.108-1.455-0.324-2.028c-0.216-0.574-0.528-1.017-0.938-1.33c-0.409-0.312-0.906-0.469-1.491-0.469
					c-0.597,0-1.1,0.162-1.509,0.486c-0.409,0.324-0.719,0.772-0.929,1.347c-0.21,0.574-0.315,1.238-0.315,1.994
					c0,0.761,0.106,1.433,0.32,2.016c0.213,0.583,0.522,1.037,0.929,1.364S415.595,632.542,416.191,632.542z"/>
				<path class="st1" d="M429.196,635.466c-0.835,0-1.58-0.146-2.233-0.439s-1.169-0.727-1.547-1.304s-0.566-1.297-0.566-2.161
					c0-0.727,0.133-1.338,0.4-1.833c0.267-0.494,0.631-0.892,1.091-1.193c0.46-0.301,0.984-0.529,1.572-0.682
					c0.588-0.153,1.206-0.261,1.854-0.324c0.761-0.08,1.375-0.155,1.841-0.226c0.466-0.071,0.804-0.177,1.014-0.319
					c0.21-0.142,0.315-0.352,0.315-0.631v-0.051c0-0.54-0.169-0.958-0.507-1.253c-0.338-0.295-0.817-0.443-1.436-0.443
					c-0.653,0-1.173,0.144-1.56,0.431c-0.386,0.287-0.642,0.646-0.767,1.078l-3.358-0.273c0.17-0.795,0.506-1.484,1.006-2.067
					c0.5-0.582,1.146-1.031,1.939-1.347c0.792-0.315,1.711-0.473,2.757-0.473c0.728,0,1.425,0.085,2.092,0.255
					s1.262,0.435,1.781,0.793c0.52,0.358,0.931,0.817,1.231,1.376c0.301,0.56,0.452,1.229,0.452,2.007v8.83h-3.443v-1.815h-0.103
					c-0.21,0.409-0.491,0.769-0.844,1.078c-0.352,0.31-0.775,0.551-1.27,0.725C430.415,635.379,429.844,635.466,429.196,635.466z
					 M430.236,632.96c0.534,0,1.005-0.107,1.415-0.32s0.73-0.501,0.963-0.865c0.233-0.363,0.349-0.775,0.349-1.236v-1.389
					c-0.114,0.074-0.269,0.141-0.464,0.201c-0.196,0.06-0.417,0.113-0.661,0.162s-0.489,0.091-0.733,0.128s-0.466,0.07-0.665,0.098
					c-0.426,0.062-0.798,0.162-1.117,0.298c-0.318,0.136-0.565,0.319-0.741,0.549c-0.176,0.23-0.264,0.516-0.264,0.857
					c0,0.494,0.18,0.871,0.541,1.129C429.221,632.831,429.679,632.96,430.236,632.96z"/>
				<path class="st1" d="M445.023,635.219v-17.455h6.989c1.284,0,2.355,0.19,3.213,0.571c0.858,0.38,1.503,0.907,1.935,1.581
					s0.648,1.448,0.648,2.323c0,0.682-0.137,1.28-0.409,1.794c-0.273,0.514-0.646,0.935-1.121,1.261
					c-0.475,0.327-1.016,0.558-1.624,0.695v0.17c0.665,0.028,1.288,0.216,1.871,0.562c0.582,0.347,1.055,0.831,1.419,1.453
					s0.545,1.362,0.545,2.22c0,0.926-0.229,1.751-0.686,2.476c-0.458,0.725-1.132,1.297-2.024,1.717
					c-0.892,0.421-1.992,0.631-3.298,0.631H445.023z M448.713,625.068h2.736c0.505,0,0.956-0.09,1.351-0.269
					c0.395-0.179,0.708-0.433,0.938-0.763s0.345-0.725,0.345-1.185c0-0.63-0.223-1.139-0.669-1.525
					c-0.446-0.386-1.078-0.58-1.896-0.58h-2.804V625.068z M448.713,632.202h3.008c1.028,0,1.778-0.197,2.25-0.592
					s0.708-0.922,0.708-1.581c0-0.483-0.117-0.909-0.35-1.278c-0.233-0.369-0.564-0.659-0.993-0.869
					c-0.429-0.21-0.939-0.315-1.53-0.315h-3.094V632.202z"/>
				<path class="st1" d="M466.73,635.475c-1.324,0-2.467-0.283-3.431-0.848c-0.963-0.565-1.706-1.355-2.229-2.369
					c-0.523-1.015-0.784-2.192-0.784-3.533c0-1.353,0.261-2.536,0.784-3.55c0.522-1.014,1.266-1.804,2.229-2.37
					c0.963-0.565,2.106-0.848,3.431-0.848c1.324,0,2.467,0.283,3.43,0.848c0.963,0.565,1.706,1.355,2.229,2.37
					c0.522,1.014,0.784,2.197,0.784,3.55c0,1.341-0.261,2.518-0.784,3.533c-0.523,1.014-1.266,1.804-2.229,2.369
					C469.198,635.192,468.054,635.475,466.73,635.475z M466.748,632.662c0.602,0,1.105-0.172,1.508-0.516s0.709-0.814,0.916-1.411
					c0.208-0.597,0.312-1.275,0.312-2.037c0-0.761-0.104-1.44-0.312-2.037c-0.207-0.597-0.513-1.068-0.916-1.415
					c-0.403-0.346-0.906-0.52-1.508-0.52c-0.608,0-1.118,0.174-1.53,0.52c-0.412,0.347-0.722,0.818-0.929,1.415
					c-0.208,0.596-0.311,1.275-0.311,2.037c0,0.762,0.104,1.44,0.311,2.037s0.517,1.067,0.929,1.411
					C465.629,632.49,466.139,632.662,466.748,632.662z"/>
				<path class="st1" d="M482.506,622.128v2.727h-7.884v-2.727H482.506z M476.412,618.992h3.63v12.204
					c0,0.335,0.051,0.596,0.153,0.78c0.103,0.185,0.246,0.314,0.431,0.388s0.399,0.111,0.644,0.111c0.17,0,0.341-0.016,0.511-0.047
					s0.301-0.056,0.392-0.073l0.571,2.702c-0.182,0.057-0.438,0.124-0.767,0.201c-0.33,0.077-0.73,0.124-1.202,0.141
					c-0.875,0.034-1.641-0.083-2.297-0.35s-1.166-0.682-1.53-1.244s-0.542-1.273-0.537-2.131V618.992z"/>
				<path class="st1" d="M491.83,622.128v2.727h-7.884v-2.727H491.83z M485.736,618.992h3.63v12.204c0,0.335,0.051,0.596,0.153,0.78
					c0.103,0.185,0.246,0.314,0.431,0.388s0.399,0.111,0.644,0.111c0.17,0,0.341-0.016,0.511-0.047s0.301-0.056,0.392-0.073
					l0.571,2.702c-0.182,0.057-0.438,0.124-0.767,0.201c-0.33,0.077-0.73,0.124-1.202,0.141c-0.875,0.034-1.641-0.083-2.297-0.35
					s-1.166-0.682-1.53-1.244s-0.542-1.273-0.537-2.131V618.992z"/>
				<path class="st1" d="M498.093,617.764v17.455h-3.631v-17.455H498.093z"/>
				<path class="st1" d="M506.957,635.475c-1.346,0-2.504-0.274-3.473-0.823s-1.715-1.327-2.237-2.335
					c-0.523-1.009-0.784-2.203-0.784-3.584c0-1.347,0.261-2.528,0.784-3.545c0.522-1.017,1.26-1.81,2.211-2.378
					c0.952-0.568,2.07-0.852,3.354-0.852c0.863,0,1.669,0.138,2.416,0.413c0.747,0.276,1.4,0.689,1.96,1.24
					c0.56,0.551,0.996,1.243,1.308,2.075c0.312,0.833,0.469,1.806,0.469,2.919v0.997h-11.054v-2.25h7.637
					c0-0.522-0.114-0.985-0.341-1.389c-0.227-0.403-0.541-0.72-0.941-0.95c-0.401-0.23-0.865-0.345-1.394-0.345
					c-0.551,0-1.039,0.126-1.462,0.379s-0.754,0.591-0.993,1.014s-0.361,0.894-0.367,1.411v2.139c0,0.647,0.121,1.208,0.362,1.679
					c0.242,0.472,0.584,0.835,1.027,1.091c0.443,0.255,0.968,0.383,1.577,0.383c0.403,0,0.772-0.057,1.108-0.17
					c0.335-0.114,0.622-0.284,0.861-0.511c0.238-0.228,0.42-0.506,0.545-0.835l3.358,0.222c-0.17,0.807-0.519,1.51-1.044,2.109
					c-0.526,0.6-1.202,1.065-2.029,1.398C508.989,635.308,508.036,635.475,506.957,635.475z"/>
				<path class="st1" d="M529.056,626.611v2.881h-7.96v-2.881H529.056z"/>
				<path class="st1" d="M537.681,635.219v-2.659l6.213-5.753c0.528-0.511,0.973-0.971,1.333-1.38s0.635-0.811,0.823-1.206
					s0.281-0.822,0.281-1.283c0-0.511-0.117-0.953-0.35-1.325s-0.551-0.659-0.955-0.861s-0.861-0.303-1.372-0.303
					c-0.534,0-1,0.108-1.397,0.324c-0.398,0.216-0.705,0.525-0.921,0.929c-0.216,0.403-0.324,0.884-0.324,1.44h-3.503
					c0-1.142,0.259-2.133,0.776-2.975c0.517-0.841,1.241-1.491,2.173-1.952c0.932-0.46,2.005-0.69,3.221-0.69
					c1.25,0,2.34,0.22,3.269,0.661c0.929,0.44,1.652,1.05,2.169,1.828s0.776,1.67,0.776,2.676c0,0.659-0.129,1.31-0.388,1.952
					c-0.259,0.642-0.718,1.354-1.376,2.135c-0.659,0.781-1.588,1.717-2.787,2.809l-2.548,2.497v0.119h7.33v3.017H537.681z"/>
				<path class="st1" d="M558.467,635.219v-17.455h3.69v14.412h7.483v3.042H558.467z"/>
				<path class="st1" d="M573.851,620.44c-0.54,0-1.003-0.179-1.39-0.537s-0.579-0.79-0.579-1.295c0-0.505,0.192-0.939,0.579-1.3
					s0.848-0.541,1.381-0.541c0.546,0,1.01,0.179,1.394,0.537c0.384,0.358,0.575,0.79,0.575,1.295c0,0.505-0.191,0.939-0.575,1.299
					C574.852,620.26,574.391,620.44,573.851,620.44z M572.018,635.219v-13.091h3.631v13.091H572.018z"/>
				<path class="st1" d="M585.51,622.128v2.727h-7.884v-2.727H585.51z M579.416,618.992h3.631v12.204
					c0,0.335,0.051,0.596,0.152,0.78c0.104,0.185,0.246,0.314,0.432,0.388c0.184,0.074,0.398,0.111,0.643,0.111
					c0.171,0,0.342-0.016,0.512-0.047s0.301-0.056,0.393-0.073l0.57,2.702c-0.182,0.057-0.438,0.124-0.768,0.201
					c-0.329,0.077-0.729,0.124-1.201,0.141c-0.875,0.034-1.641-0.083-2.297-0.35s-1.166-0.682-1.529-1.244
					c-0.364-0.562-0.543-1.273-0.537-2.131V618.992z"/>
				<path class="st1" d="M593.699,635.475c-1.346,0-2.504-0.274-3.473-0.823s-1.715-1.327-2.236-2.335
					c-0.523-1.009-0.785-2.203-0.785-3.584c0-1.347,0.262-2.528,0.785-3.545c0.521-1.017,1.26-1.81,2.211-2.378
					c0.951-0.568,2.07-0.852,3.354-0.852c0.863,0,1.67,0.138,2.416,0.413c0.748,0.276,1.4,0.689,1.961,1.24
					c0.56,0.551,0.996,1.243,1.309,2.075c0.312,0.833,0.469,1.806,0.469,2.919v0.997h-11.055v-2.25h7.637
					c0-0.522-0.113-0.985-0.342-1.389c-0.227-0.403-0.541-0.72-0.941-0.95s-0.865-0.345-1.393-0.345
					c-0.552,0-1.039,0.126-1.463,0.379c-0.423,0.253-0.754,0.591-0.992,1.014s-0.361,0.894-0.367,1.411v2.139
					c0,0.647,0.121,1.208,0.363,1.679c0.241,0.472,0.584,0.835,1.027,1.091c0.442,0.255,0.968,0.383,1.576,0.383
					c0.403,0,0.772-0.057,1.107-0.17c0.336-0.114,0.623-0.284,0.861-0.511c0.238-0.228,0.42-0.506,0.545-0.835l3.358,0.222
					c-0.171,0.807-0.519,1.51-1.044,2.109s-1.201,1.065-2.029,1.398C595.732,635.308,594.779,635.475,593.699,635.475z"/>
				<path class="st1" d="M602.078,635.219v-13.091h3.52v2.284h0.137c0.238-0.812,0.639-1.428,1.201-1.845
					c0.562-0.418,1.211-0.626,1.943-0.626c0.182,0,0.378,0.011,0.588,0.034c0.211,0.022,0.395,0.054,0.555,0.094v3.221
					c-0.171-0.051-0.406-0.096-0.708-0.136c-0.302-0.04-0.577-0.06-0.827-0.06c-0.533,0-1.01,0.115-1.428,0.345
					c-0.417,0.23-0.746,0.55-0.988,0.959c-0.241,0.409-0.361,0.88-0.361,1.415v7.406H602.078z"/>
			</g>
		</g>
	</g>
	<g id="MTEXT_00000129201606488479163050000018175192931185844648_">
		<g>
			<g>
				<path class="st1" d="M51.678,635.219v-17.455h6.989c1.284,0,2.355,0.19,3.213,0.571c0.858,0.38,1.503,0.907,1.935,1.581
					s0.648,1.448,0.648,2.323c0,0.682-0.137,1.28-0.409,1.794c-0.273,0.514-0.646,0.935-1.121,1.261
					c-0.475,0.327-1.016,0.558-1.624,0.695v0.17c0.665,0.028,1.288,0.216,1.871,0.562c0.582,0.347,1.055,0.831,1.419,1.453
					s0.545,1.362,0.545,2.22c0,0.926-0.229,1.751-0.686,2.476c-0.458,0.725-1.132,1.297-2.024,1.717
					c-0.892,0.421-1.992,0.631-3.298,0.631H51.678z M55.369,625.068h2.736c0.505,0,0.956-0.09,1.351-0.269
					c0.395-0.179,0.708-0.433,0.938-0.763s0.345-0.725,0.345-1.185c0-0.63-0.223-1.139-0.669-1.525
					c-0.446-0.386-1.078-0.58-1.896-0.58h-2.804V625.068z M55.369,632.202h3.008c1.028,0,1.778-0.197,2.25-0.592
					s0.708-0.922,0.708-1.581c0-0.483-0.117-0.909-0.35-1.278c-0.233-0.369-0.564-0.659-0.993-0.869
					c-0.429-0.21-0.939-0.315-1.53-0.315h-3.094V632.202z"/>
				<path class="st1" d="M73.436,635.475c-1.346,0-2.504-0.274-3.473-0.823s-1.715-1.327-2.237-2.335
					c-0.523-1.009-0.784-2.203-0.784-3.584c0-1.347,0.261-2.528,0.784-3.545c0.522-1.017,1.26-1.81,2.211-2.378
					c0.952-0.568,2.07-0.852,3.354-0.852c0.863,0,1.669,0.138,2.416,0.413c0.747,0.276,1.4,0.689,1.96,1.24
					c0.56,0.551,0.996,1.243,1.308,2.075c0.312,0.833,0.469,1.806,0.469,2.919v0.997H68.391v-2.25h7.637
					c0-0.522-0.114-0.985-0.341-1.389c-0.227-0.403-0.541-0.72-0.941-0.95c-0.401-0.23-0.865-0.345-1.394-0.345
					c-0.551,0-1.039,0.126-1.462,0.379s-0.754,0.591-0.993,1.014s-0.361,0.894-0.367,1.411v2.139c0,0.647,0.121,1.208,0.362,1.679
					c0.242,0.472,0.584,0.835,1.027,1.091c0.443,0.255,0.968,0.383,1.577,0.383c0.403,0,0.772-0.057,1.108-0.17
					c0.335-0.114,0.622-0.284,0.861-0.511c0.238-0.228,0.42-0.506,0.545-0.835l3.358,0.222c-0.17,0.807-0.519,1.51-1.044,2.109
					c-0.526,0.6-1.202,1.065-2.029,1.398C75.469,635.308,74.516,635.475,73.436,635.475z"/>
				<path class="st1" d="M93.652,622.128l-4.577,13.091h-4.091l-4.577-13.091h3.835l2.719,9.366h0.137l2.71-9.366H93.652z"/>
				<path class="st1" d="M101.042,635.475c-1.346,0-2.504-0.274-3.473-0.823s-1.715-1.327-2.237-2.335
					c-0.523-1.009-0.784-2.203-0.784-3.584c0-1.347,0.261-2.528,0.784-3.545c0.522-1.017,1.26-1.81,2.211-2.378
					c0.952-0.568,2.07-0.852,3.354-0.852c0.863,0,1.669,0.138,2.416,0.413c0.747,0.276,1.4,0.689,1.96,1.24
					c0.56,0.551,0.996,1.243,1.308,2.075c0.312,0.833,0.469,1.806,0.469,2.919v0.997H95.997v-2.25h7.637
					c0-0.522-0.114-0.985-0.341-1.389c-0.227-0.403-0.541-0.72-0.941-0.95c-0.401-0.23-0.865-0.345-1.394-0.345
					c-0.551,0-1.039,0.126-1.462,0.379s-0.754,0.591-0.993,1.014s-0.361,0.894-0.367,1.411v2.139c0,0.647,0.121,1.208,0.362,1.679
					c0.242,0.472,0.584,0.835,1.027,1.091c0.443,0.255,0.968,0.383,1.577,0.383c0.403,0,0.772-0.057,1.108-0.17
					c0.335-0.114,0.622-0.284,0.861-0.511c0.238-0.228,0.42-0.506,0.545-0.835l3.358,0.222c-0.17,0.807-0.519,1.51-1.044,2.109
					c-0.526,0.6-1.202,1.065-2.029,1.398C103.075,635.308,102.122,635.475,101.042,635.475z"/>
				<path class="st1" d="M109.42,635.219v-13.091h3.52v2.284h0.136c0.239-0.812,0.639-1.428,1.202-1.845
					c0.562-0.418,1.21-0.626,1.943-0.626c0.182,0,0.378,0.011,0.588,0.034c0.21,0.022,0.395,0.054,0.554,0.094v3.221
					c-0.17-0.051-0.406-0.096-0.708-0.136c-0.301-0.04-0.577-0.06-0.827-0.06c-0.534,0-1.01,0.115-1.428,0.345
					c-0.417,0.23-0.747,0.55-0.988,0.959c-0.242,0.409-0.362,0.88-0.362,1.415v7.406H109.42z"/>
				<path class="st1" d="M122.596,635.466c-0.835,0-1.58-0.146-2.233-0.439s-1.169-0.727-1.547-1.304s-0.566-1.297-0.566-2.161
					c0-0.727,0.133-1.338,0.4-1.833c0.267-0.494,0.631-0.892,1.091-1.193c0.46-0.301,0.984-0.529,1.572-0.682
					c0.588-0.153,1.206-0.261,1.854-0.324c0.761-0.08,1.375-0.155,1.841-0.226c0.466-0.071,0.804-0.177,1.014-0.319
					c0.21-0.142,0.315-0.352,0.315-0.631v-0.051c0-0.54-0.169-0.958-0.507-1.253c-0.338-0.295-0.817-0.443-1.436-0.443
					c-0.653,0-1.173,0.144-1.56,0.431c-0.386,0.287-0.642,0.646-0.767,1.078l-3.358-0.273c0.17-0.795,0.506-1.484,1.006-2.067
					c0.5-0.582,1.146-1.031,1.939-1.347c0.792-0.315,1.711-0.473,2.757-0.473c0.728,0,1.425,0.085,2.092,0.255
					s1.262,0.435,1.781,0.793c0.52,0.358,0.931,0.817,1.231,1.376c0.301,0.56,0.452,1.229,0.452,2.007v8.83h-3.443v-1.815h-0.103
					c-0.21,0.409-0.491,0.769-0.844,1.078c-0.352,0.31-0.775,0.551-1.27,0.725C123.814,635.379,123.244,635.466,122.596,635.466z
					 M123.636,632.96c0.534,0,1.005-0.107,1.415-0.32s0.73-0.501,0.963-0.865c0.233-0.363,0.349-0.775,0.349-1.236v-1.389
					c-0.114,0.074-0.269,0.141-0.464,0.201c-0.196,0.06-0.417,0.113-0.661,0.162s-0.489,0.091-0.733,0.128s-0.466,0.07-0.665,0.098
					c-0.426,0.062-0.798,0.162-1.117,0.298c-0.318,0.136-0.565,0.319-0.741,0.549c-0.176,0.23-0.264,0.516-0.264,0.857
					c0,0.494,0.18,0.871,0.541,1.129C122.62,632.831,123.079,632.96,123.636,632.96z"/>
				<path class="st1" d="M138.687,640.4c-1.176,0-2.184-0.161-3.021-0.481s-1.504-0.757-1.999-1.308
					c-0.494-0.551-0.815-1.17-0.963-1.858l3.358-0.452c0.102,0.261,0.264,0.505,0.486,0.733c0.222,0.227,0.516,0.41,0.882,0.55
					c0.367,0.139,0.814,0.208,1.342,0.208c0.79,0,1.442-0.191,1.956-0.575c0.514-0.383,0.771-1.024,0.771-1.922V632.9h-0.153
					c-0.159,0.364-0.398,0.708-0.716,1.031c-0.318,0.324-0.727,0.588-1.227,0.793s-1.097,0.307-1.79,0.307
					c-0.983,0-1.876-0.229-2.681-0.686s-1.443-1.159-1.917-2.105c-0.475-0.946-0.712-2.144-0.712-3.592
					c0-1.483,0.242-2.722,0.725-3.716c0.483-0.994,1.126-1.738,1.93-2.233c0.804-0.494,1.686-0.741,2.646-0.741
					c0.733,0,1.347,0.124,1.841,0.371c0.495,0.247,0.894,0.554,1.198,0.92c0.304,0.367,0.538,0.726,0.703,1.078h0.136v-2.199h3.605
					v13.219c0,1.113-0.272,2.045-0.818,2.795c-0.546,0.75-1.3,1.314-2.263,1.692C141.043,640.211,139.937,640.4,138.687,640.4z
					 M138.764,632.304c0.585,0,1.081-0.146,1.487-0.439c0.406-0.293,0.719-0.713,0.938-1.262c0.219-0.548,0.328-1.206,0.328-1.973
					s-0.108-1.433-0.324-1.999c-0.216-0.565-0.528-1.004-0.938-1.317c-0.409-0.312-0.906-0.469-1.491-0.469
					c-0.597,0-1.1,0.161-1.509,0.481c-0.409,0.321-0.719,0.766-0.929,1.334c-0.21,0.568-0.315,1.224-0.315,1.969
					c0,0.755,0.106,1.408,0.32,1.956c0.213,0.549,0.522,0.972,0.929,1.27S138.167,632.304,138.764,632.304z"/>
				<path class="st1" d="M153.951,635.475c-1.346,0-2.504-0.274-3.473-0.823s-1.715-1.327-2.237-2.335
					c-0.523-1.009-0.784-2.203-0.784-3.584c0-1.347,0.261-2.528,0.784-3.545c0.522-1.017,1.26-1.81,2.211-2.378
					c0.952-0.568,2.07-0.852,3.354-0.852c0.863,0,1.669,0.138,2.416,0.413c0.747,0.276,1.4,0.689,1.96,1.24
					c0.56,0.551,0.996,1.243,1.308,2.075c0.312,0.833,0.469,1.806,0.469,2.919v0.997h-11.054v-2.25h7.637
					c0-0.522-0.114-0.985-0.341-1.389c-0.227-0.403-0.541-0.72-0.941-0.95c-0.401-0.23-0.865-0.345-1.394-0.345
					c-0.551,0-1.039,0.126-1.462,0.379s-0.754,0.591-0.993,1.014s-0.361,0.894-0.367,1.411v2.139c0,0.647,0.121,1.208,0.362,1.679
					c0.242,0.472,0.584,0.835,1.027,1.091c0.443,0.255,0.968,0.383,1.577,0.383c0.403,0,0.772-0.057,1.108-0.17
					c0.335-0.114,0.622-0.284,0.861-0.511c0.238-0.228,0.42-0.506,0.545-0.835l3.358,0.222c-0.17,0.807-0.519,1.51-1.044,2.109
					c-0.526,0.6-1.202,1.065-2.029,1.398C155.983,635.308,155.03,635.475,153.951,635.475z"/>
				<path class="st1" d="M183.363,623.875h-3.733c-0.068-0.483-0.208-0.913-0.417-1.291c-0.21-0.378-0.48-0.7-0.81-0.967
					c-0.33-0.267-0.709-0.472-1.138-0.614c-0.429-0.142-0.894-0.213-1.394-0.213c-0.903,0-1.69,0.223-2.361,0.669
					c-0.67,0.446-1.19,1.094-1.56,1.943c-0.37,0.85-0.554,1.879-0.554,3.09c0,1.244,0.186,2.29,0.558,3.136s0.894,1.486,1.564,1.917
					c0.67,0.432,1.446,0.648,2.327,0.648c0.495,0,0.953-0.065,1.376-0.196c0.423-0.13,0.8-0.322,1.129-0.575
					s0.604-0.561,0.822-0.925c0.219-0.363,0.371-0.778,0.456-1.244l3.733,0.017c-0.097,0.801-0.336,1.572-0.72,2.314
					c-0.383,0.741-0.897,1.403-1.542,1.986c-0.645,0.582-1.412,1.042-2.301,1.38s-1.894,0.507-3.013,0.507
					c-1.557,0-2.947-0.353-4.172-1.057c-1.225-0.704-2.19-1.724-2.897-3.06c-0.708-1.335-1.061-2.952-1.061-4.849
					c0-1.904,0.358-3.523,1.074-4.858c0.716-1.335,1.688-2.354,2.915-3.055c1.228-0.702,2.608-1.053,4.142-1.053
					c1.011,0,1.95,0.142,2.817,0.426c0.866,0.284,1.635,0.698,2.305,1.24s1.217,1.206,1.641,1.99
					C182.972,621.966,183.244,622.864,183.363,623.875z"/>
				<path class="st1" d="M189.678,635.466c-0.835,0-1.58-0.146-2.233-0.439s-1.169-0.727-1.547-1.304s-0.566-1.297-0.566-2.161
					c0-0.727,0.133-1.338,0.4-1.833c0.267-0.494,0.631-0.892,1.091-1.193c0.46-0.301,0.984-0.529,1.572-0.682
					c0.588-0.153,1.206-0.261,1.854-0.324c0.761-0.08,1.375-0.155,1.841-0.226c0.466-0.071,0.804-0.177,1.014-0.319
					c0.21-0.142,0.315-0.352,0.315-0.631v-0.051c0-0.54-0.169-0.958-0.507-1.253c-0.338-0.295-0.817-0.443-1.436-0.443
					c-0.653,0-1.173,0.144-1.56,0.431c-0.386,0.287-0.642,0.646-0.767,1.078l-3.358-0.273c0.17-0.795,0.506-1.484,1.006-2.067
					c0.5-0.582,1.146-1.031,1.939-1.347c0.792-0.315,1.711-0.473,2.757-0.473c0.728,0,1.425,0.085,2.092,0.255
					s1.262,0.435,1.781,0.793c0.52,0.358,0.931,0.817,1.231,1.376c0.301,0.56,0.452,1.229,0.452,2.007v8.83h-3.443v-1.815h-0.103
					c-0.21,0.409-0.491,0.769-0.844,1.078c-0.352,0.31-0.775,0.551-1.27,0.725C190.896,635.379,190.326,635.466,189.678,635.466z
					 M190.718,632.96c0.534,0,1.005-0.107,1.415-0.32s0.73-0.501,0.963-0.865c0.233-0.363,0.349-0.775,0.349-1.236v-1.389
					c-0.114,0.074-0.269,0.141-0.464,0.201c-0.196,0.06-0.417,0.113-0.661,0.162s-0.489,0.091-0.733,0.128s-0.466,0.07-0.665,0.098
					c-0.426,0.062-0.798,0.162-1.117,0.298c-0.318,0.136-0.565,0.319-0.741,0.549c-0.176,0.23-0.264,0.516-0.264,0.857
					c0,0.494,0.18,0.871,0.541,1.129C189.702,632.831,190.161,632.96,190.718,632.96z"/>
				<path class="st1" d="M203.501,627.65v7.568h-3.631v-13.091h3.46v2.31h0.153c0.29-0.761,0.775-1.365,1.458-1.811
					c0.682-0.446,1.508-0.669,2.48-0.669c0.909,0,1.702,0.199,2.378,0.597c0.676,0.397,1.202,0.964,1.577,1.7
					s0.562,1.612,0.562,2.629v8.335h-3.631v-7.688c0.006-0.801-0.199-1.428-0.613-1.879c-0.415-0.452-0.986-0.677-1.713-0.677
					c-0.489,0-0.919,0.105-1.291,0.315c-0.372,0.21-0.662,0.516-0.87,0.917C203.614,626.606,203.507,627.088,203.501,627.65z"/>
				<path class="st1" d="M228.515,626.611v2.881h-7.96v-2.881H228.515z"/>
				<path class="st1" d="M244.734,617.764v17.455h-3.69v-13.952h-0.103l-3.997,2.506V620.5l4.321-2.736H244.734z"/>
				<path class="st1" d="M248.884,635.219v-2.659l6.213-5.753c0.528-0.511,0.973-0.971,1.333-1.38s0.635-0.811,0.823-1.206
					s0.281-0.822,0.281-1.283c0-0.511-0.117-0.953-0.35-1.325s-0.551-0.659-0.955-0.861s-0.861-0.303-1.372-0.303
					c-0.534,0-1,0.108-1.397,0.324c-0.398,0.216-0.705,0.525-0.921,0.929c-0.216,0.403-0.324,0.884-0.324,1.44h-3.503
					c0-1.142,0.259-2.133,0.776-2.975c0.517-0.841,1.241-1.491,2.173-1.952c0.932-0.46,2.005-0.69,3.221-0.69
					c1.25,0,2.34,0.22,3.269,0.661c0.929,0.44,1.652,1.05,2.169,1.828s0.776,1.67,0.776,2.676c0,0.659-0.129,1.31-0.388,1.952
					c-0.259,0.642-0.718,1.354-1.376,2.135c-0.659,0.781-1.588,1.717-2.787,2.809l-2.548,2.497v0.119h7.33v3.017H248.884z"/>
				<path class="st1" d="M275.518,635.475c-1.324,0-2.467-0.283-3.431-0.848c-0.963-0.565-1.706-1.355-2.229-2.369
					c-0.523-1.015-0.784-2.192-0.784-3.533c0-1.353,0.261-2.536,0.784-3.55c0.522-1.014,1.266-1.804,2.229-2.37
					c0.963-0.565,2.106-0.848,3.431-0.848c1.324,0,2.467,0.283,3.43,0.848c0.963,0.565,1.706,1.355,2.229,2.37
					c0.522,1.014,0.784,2.197,0.784,3.55c0,1.341-0.261,2.518-0.784,3.533c-0.523,1.014-1.266,1.804-2.229,2.369
					C277.985,635.192,276.842,635.475,275.518,635.475z M275.535,632.662c0.602,0,1.105-0.172,1.508-0.516s0.709-0.814,0.916-1.411
					c0.208-0.597,0.312-1.275,0.312-2.037c0-0.761-0.104-1.44-0.312-2.037c-0.207-0.597-0.513-1.068-0.916-1.415
					c-0.403-0.346-0.906-0.52-1.508-0.52c-0.608,0-1.118,0.174-1.53,0.52c-0.412,0.347-0.722,0.818-0.929,1.415
					c-0.208,0.596-0.311,1.275-0.311,2.037c0,0.762,0.104,1.44,0.311,2.037s0.517,1.067,0.929,1.411
					C274.417,632.49,274.927,632.662,275.535,632.662z"/>
				<path class="st1" d="M284.262,635.219v-2.165l6.409-7.935v-0.094h-6.188v-2.897h10.56v2.361l-6.017,7.738v0.094h6.238v2.898
					H284.262z"/>
			</g>
		</g>
	</g>
	<g id="MTEXT_00000004537570319170075270000017184340028329083547_">
		<g>
			<g>
				<path class="st1" d="M705.623,622.784c-0.068-0.688-0.361-1.222-0.878-1.603c-0.517-0.38-1.219-0.571-2.104-0.571
					c-0.604,0-1.111,0.084-1.526,0.251s-0.731,0.399-0.95,0.694c-0.219,0.296-0.328,0.631-0.328,1.006
					c-0.012,0.312,0.056,0.585,0.2,0.818c0.146,0.233,0.345,0.433,0.601,0.601c0.256,0.168,0.552,0.312,0.887,0.435
					c0.336,0.123,0.693,0.226,1.074,0.311l1.568,0.375c0.761,0.171,1.46,0.398,2.096,0.682c0.637,0.284,1.188,0.633,1.654,1.048
					c0.465,0.415,0.828,0.903,1.086,1.466c0.259,0.562,0.391,1.208,0.396,1.935c-0.006,1.068-0.277,1.993-0.814,2.774
					c-0.536,0.781-1.309,1.386-2.317,1.815c-1.009,0.429-2.224,0.644-3.644,0.644c-1.409,0-2.635-0.216-3.678-0.647
					c-1.043-0.432-1.855-1.073-2.438-1.922c-0.582-0.85-0.888-1.902-0.916-3.158h3.57c0.041,0.585,0.209,1.072,0.508,1.461
					s0.699,0.682,1.201,0.878c0.504,0.196,1.072,0.294,1.709,0.294c0.625,0,1.17-0.091,1.633-0.272
					c0.463-0.182,0.822-0.435,1.078-0.759s0.383-0.696,0.383-1.116c0-0.392-0.115-0.722-0.345-0.989
					c-0.23-0.267-0.565-0.494-1.006-0.682s-0.979-0.358-1.615-0.512l-1.9-0.477c-1.472-0.358-2.634-0.917-3.485-1.679
					c-0.853-0.761-1.275-1.787-1.271-3.077c-0.005-1.057,0.277-1.98,0.849-2.77c0.57-0.79,1.355-1.406,2.355-1.849
					c1-0.443,2.137-0.665,3.41-0.665c1.295,0,2.428,0.222,3.396,0.665c0.969,0.443,1.723,1.06,2.262,1.849
					c0.54,0.79,0.818,1.705,0.836,2.745H705.623z"/>
				<path class="st1" d="M717.717,635.475c-1.324,0-2.468-0.283-3.432-0.848c-0.963-0.565-1.705-1.355-2.229-2.369
					c-0.522-1.015-0.783-2.192-0.783-3.533c0-1.353,0.261-2.536,0.783-3.55c0.523-1.014,1.266-1.804,2.229-2.37
					c0.964-0.565,2.107-0.848,3.432-0.848c1.323,0,2.467,0.283,3.43,0.848c0.963,0.565,1.706,1.355,2.229,2.37
					c0.523,1.014,0.784,2.197,0.784,3.55c0,1.341-0.261,2.518-0.784,3.533c-0.522,1.014-1.266,1.804-2.229,2.369
					S719.04,635.475,717.717,635.475z M717.733,632.662c0.603,0,1.104-0.172,1.509-0.516c0.402-0.344,0.709-0.814,0.916-1.411
					s0.311-1.275,0.311-2.037c0-0.761-0.104-1.44-0.311-2.037c-0.207-0.597-0.514-1.068-0.916-1.415
					c-0.404-0.346-0.906-0.52-1.509-0.52c-0.608,0-1.118,0.174-1.53,0.52c-0.412,0.347-0.721,0.818-0.929,1.415
					c-0.208,0.596-0.312,1.275-0.312,2.037c0,0.762,0.104,1.44,0.312,2.037s0.517,1.067,0.929,1.411
					S717.125,632.662,717.733,632.662z"/>
				<path class="st1" d="M731.354,635.432c-0.995,0-1.895-0.257-2.698-0.771s-1.44-1.273-1.909-2.276
					c-0.469-1.002-0.703-2.234-0.703-3.694c0-1.5,0.242-2.749,0.725-3.746c0.482-0.998,1.127-1.745,1.93-2.242
					c0.805-0.497,1.687-0.746,2.646-0.746c0.733,0,1.346,0.124,1.838,0.371c0.49,0.247,0.889,0.554,1.192,0.92
					c0.304,0.367,0.536,0.726,0.694,1.078h0.111v-6.562h3.622v17.455h-3.579v-2.097h-0.154c-0.17,0.364-0.41,0.723-0.72,1.078
					c-0.31,0.355-0.71,0.649-1.202,0.882C732.655,635.315,732.057,635.432,731.354,635.432z M732.504,632.542
					c0.584,0,1.08-0.16,1.486-0.481c0.406-0.321,0.719-0.771,0.938-1.351c0.219-0.58,0.328-1.259,0.328-2.037
					s-0.107-1.455-0.324-2.028c-0.215-0.574-0.527-1.017-0.938-1.33c-0.408-0.312-0.906-0.469-1.49-0.469
					c-0.598,0-1.1,0.162-1.51,0.486c-0.408,0.324-0.719,0.772-0.928,1.347c-0.211,0.574-0.316,1.238-0.316,1.994
					c0,0.761,0.107,1.433,0.32,2.016s0.522,1.037,0.929,1.364S731.906,632.542,732.504,632.542z"/>
				<path class="st1" d="M745.508,635.466c-0.834,0-1.579-0.146-2.232-0.439s-1.169-0.727-1.547-1.304s-0.566-1.297-0.566-2.161
					c0-0.727,0.133-1.338,0.4-1.833c0.268-0.494,0.631-0.892,1.091-1.193s0.984-0.529,1.572-0.682
					c0.589-0.153,1.206-0.261,1.854-0.324c0.761-0.08,1.375-0.155,1.84-0.226c0.467-0.071,0.805-0.177,1.015-0.319
					s0.315-0.352,0.315-0.631v-0.051c0-0.54-0.169-0.958-0.508-1.253c-0.338-0.295-0.816-0.443-1.436-0.443
					c-0.653,0-1.174,0.144-1.56,0.431c-0.386,0.287-0.642,0.646-0.767,1.078l-3.358-0.273c0.171-0.795,0.506-1.484,1.006-2.067
					c0.5-0.582,1.146-1.031,1.938-1.347c0.793-0.315,1.712-0.473,2.758-0.473c0.727,0,1.424,0.085,2.092,0.255
					s1.262,0.435,1.781,0.793s0.931,0.817,1.231,1.376c0.302,0.56,0.452,1.229,0.452,2.007v8.83h-3.443v-1.815h-0.103
					c-0.21,0.409-0.491,0.769-0.844,1.078c-0.353,0.31-0.775,0.551-1.27,0.725C746.727,635.379,746.156,635.466,745.508,635.466z
					 M746.549,632.96c0.533,0,1.005-0.107,1.414-0.32s0.73-0.501,0.963-0.865c0.233-0.363,0.35-0.775,0.35-1.236v-1.389
					c-0.113,0.074-0.269,0.141-0.465,0.201c-0.195,0.06-0.416,0.113-0.66,0.162s-0.488,0.091-0.732,0.128s-0.467,0.07-0.665,0.098
					c-0.427,0.062-0.798,0.162-1.116,0.298c-0.318,0.136-0.566,0.319-0.742,0.549c-0.176,0.23-0.264,0.516-0.264,0.857
					c0,0.494,0.18,0.871,0.541,1.129C745.533,632.831,745.991,632.96,746.549,632.96z"/>
				<path class="st1" d="M761.335,635.219v-17.455h6.989c1.283,0,2.354,0.19,3.213,0.571c0.857,0.38,1.502,0.907,1.934,1.581
					s0.648,1.448,0.648,2.323c0,0.682-0.137,1.28-0.409,1.794s-0.646,0.935-1.12,1.261c-0.475,0.327-1.016,0.558-1.624,0.695v0.17
					c0.665,0.028,1.288,0.216,1.87,0.562s1.056,0.831,1.42,1.453c0.363,0.622,0.545,1.362,0.545,2.22
					c0,0.926-0.229,1.751-0.686,2.476c-0.458,0.725-1.133,1.297-2.024,1.717c-0.892,0.421-1.991,0.631-3.298,0.631H761.335z
					 M765.025,625.068h2.736c0.505,0,0.955-0.09,1.35-0.269c0.396-0.179,0.708-0.433,0.938-0.763c0.23-0.33,0.346-0.725,0.346-1.185
					c0-0.63-0.223-1.139-0.669-1.525c-0.446-0.386-1.078-0.58-1.896-0.58h-2.804V625.068z M765.025,632.202h3.008
					c1.029,0,1.779-0.197,2.25-0.592c0.473-0.395,0.708-0.922,0.708-1.581c0-0.483-0.116-0.909-0.35-1.278
					c-0.233-0.369-0.563-0.659-0.993-0.869c-0.429-0.21-0.938-0.315-1.529-0.315h-3.094V632.202z"/>
				<path class="st1" d="M783.043,635.475c-1.324,0-2.468-0.283-3.432-0.848c-0.963-0.565-1.705-1.355-2.229-2.369
					c-0.522-1.015-0.783-2.192-0.783-3.533c0-1.353,0.261-2.536,0.783-3.55c0.523-1.014,1.266-1.804,2.229-2.37
					c0.964-0.565,2.107-0.848,3.432-0.848c1.323,0,2.467,0.283,3.43,0.848c0.963,0.565,1.706,1.355,2.229,2.37
					c0.523,1.014,0.784,2.197,0.784,3.55c0,1.341-0.261,2.518-0.784,3.533c-0.522,1.014-1.266,1.804-2.229,2.369
					S784.366,635.475,783.043,635.475z M783.06,632.662c0.603,0,1.104-0.172,1.509-0.516c0.402-0.344,0.709-0.814,0.916-1.411
					s0.311-1.275,0.311-2.037c0-0.761-0.104-1.44-0.311-2.037c-0.207-0.597-0.514-1.068-0.916-1.415
					c-0.404-0.346-0.906-0.52-1.509-0.52c-0.608,0-1.118,0.174-1.53,0.52c-0.412,0.347-0.721,0.818-0.929,1.415
					c-0.208,0.596-0.312,1.275-0.312,2.037c0,0.762,0.104,1.44,0.312,2.037s0.517,1.067,0.929,1.411S782.451,632.662,783.06,632.662
					z"/>
				<path class="st1" d="M798.818,622.128v2.727h-7.885v-2.727H798.818z M792.725,618.992h3.63v12.204
					c0,0.335,0.052,0.596,0.153,0.78c0.103,0.185,0.246,0.314,0.431,0.388s0.399,0.111,0.644,0.111c0.17,0,0.341-0.016,0.512-0.047
					c0.17-0.031,0.301-0.056,0.392-0.073l0.571,2.702c-0.182,0.057-0.438,0.124-0.768,0.201c-0.33,0.077-0.73,0.124-1.201,0.141
					c-0.875,0.034-1.641-0.083-2.297-0.35s-1.166-0.682-1.53-1.244s-0.542-1.273-0.536-2.131V618.992z"/>
				<path class="st1" d="M808.142,622.128v2.727h-7.884v-2.727H808.142z M802.048,618.992h3.63v12.204
					c0,0.335,0.052,0.596,0.154,0.78c0.102,0.185,0.246,0.314,0.43,0.388c0.186,0.074,0.399,0.111,0.645,0.111
					c0.17,0,0.34-0.016,0.511-0.047s0.302-0.056,0.392-0.073l0.571,2.702c-0.182,0.057-0.438,0.124-0.767,0.201
					c-0.33,0.077-0.73,0.124-1.202,0.141c-0.875,0.034-1.641-0.083-2.297-0.35s-1.166-0.682-1.53-1.244
					c-0.363-0.562-0.542-1.273-0.536-2.131V618.992z"/>
				<path class="st1" d="M814.405,617.764v17.455h-3.631v-17.455H814.405z"/>
				<path class="st1" d="M823.268,635.475c-1.346,0-2.504-0.274-3.473-0.823s-1.715-1.327-2.236-2.335
					c-0.523-1.009-0.785-2.203-0.785-3.584c0-1.347,0.262-2.528,0.785-3.545c0.521-1.017,1.26-1.81,2.211-2.378
					c0.951-0.568,2.07-0.852,3.354-0.852c0.863,0,1.67,0.138,2.416,0.413c0.748,0.276,1.4,0.689,1.961,1.24
					c0.56,0.551,0.996,1.243,1.309,2.075c0.312,0.833,0.469,1.806,0.469,2.919v0.997h-11.055v-2.25h7.637
					c0-0.522-0.113-0.985-0.342-1.389c-0.227-0.403-0.541-0.72-0.941-0.95s-0.865-0.345-1.393-0.345
					c-0.552,0-1.039,0.126-1.463,0.379c-0.423,0.253-0.754,0.591-0.992,1.014s-0.361,0.894-0.367,1.411v2.139
					c0,0.647,0.121,1.208,0.363,1.679c0.241,0.472,0.584,0.835,1.027,1.091c0.442,0.255,0.968,0.383,1.576,0.383
					c0.403,0,0.772-0.057,1.107-0.17c0.336-0.114,0.623-0.284,0.861-0.511c0.238-0.228,0.42-0.506,0.545-0.835l3.358,0.222
					c-0.171,0.807-0.519,1.51-1.044,2.109s-1.201,1.065-2.029,1.398C825.301,635.308,824.348,635.475,823.268,635.475z"/>
				<path class="st1" d="M845.367,626.611v2.881h-7.959v-2.881H845.367z"/>
				<path class="st1" d="M861.586,617.764v17.455h-3.689v-13.952h-0.103l-3.997,2.506V620.5l4.32-2.736H861.586z"/>
				<path class="st1" d="M872.436,635.458c-0.897-0.006-1.763-0.156-2.595-0.452c-0.833-0.295-1.578-0.776-2.237-1.44
					c-0.659-0.665-1.18-1.545-1.564-2.642c-0.383-1.097-0.574-2.443-0.574-4.04c0.005-1.466,0.174-2.777,0.506-3.933
					c0.333-1.156,0.811-2.138,1.433-2.944c0.622-0.807,1.368-1.422,2.237-1.845s1.844-0.635,2.924-0.635
					c1.164,0,2.192,0.226,3.084,0.678c0.893,0.452,1.609,1.064,2.152,1.836c0.543,0.773,0.871,1.64,0.984,2.6h-3.639
					c-0.143-0.608-0.441-1.085-0.895-1.432c-0.455-0.347-1.018-0.52-1.688-0.52c-1.137,0-2,0.494-2.588,1.483
					s-0.887,2.333-0.898,4.031h0.119c0.262-0.517,0.615-0.959,1.061-1.325c0.446-0.367,0.955-0.648,1.525-0.844
					c0.572-0.196,1.176-0.294,1.812-0.294c1.033,0,1.953,0.243,2.761,0.729c0.807,0.486,1.442,1.152,1.909,1.999
					c0.466,0.847,0.699,1.815,0.699,2.906c0,1.182-0.275,2.233-0.822,3.153c-0.549,0.92-1.312,1.641-2.293,2.161
					S873.731,635.463,872.436,635.458z M872.419,632.56c0.567,0,1.077-0.136,1.525-0.409c0.448-0.272,0.802-0.642,1.058-1.108
					c0.255-0.466,0.383-0.988,0.383-1.568s-0.127-1.1-0.379-1.56c-0.254-0.46-0.602-0.827-1.045-1.099
					c-0.443-0.273-0.948-0.409-1.517-0.409c-0.427,0-0.819,0.08-1.181,0.239c-0.36,0.159-0.676,0.38-0.945,0.665
					c-0.271,0.284-0.482,0.612-0.635,0.984c-0.154,0.372-0.23,0.769-0.23,1.189c0,0.562,0.129,1.077,0.388,1.542
					c0.259,0.466,0.61,0.838,1.057,1.117S871.851,632.56,872.419,632.56z"/>
				<path class="st1" d="M883.021,635.44c-0.562,0-1.045-0.2-1.445-0.601c-0.4-0.4-0.601-0.882-0.601-1.444
					c0-0.557,0.2-1.034,0.601-1.432c0.4-0.397,0.883-0.596,1.445-0.596c0.545,0,1.022,0.199,1.432,0.596
					c0.409,0.398,0.613,0.875,0.613,1.432c0,0.375-0.095,0.717-0.285,1.027s-0.439,0.557-0.746,0.742S883.391,635.44,883.021,635.44
					z"/>
				<path class="st1" d="M893.998,617.525c0.898,0,1.764,0.151,2.596,0.452c0.832,0.301,1.576,0.782,2.232,1.44
					c0.656,0.659,1.177,1.533,1.561,2.621c0.383,1.088,0.578,2.422,0.584,4.001c0,1.483-0.166,2.806-0.499,3.968
					c-0.333,1.162-0.808,2.149-1.428,2.961c-0.619,0.812-1.366,1.431-2.241,1.854c-0.875,0.423-1.853,0.635-2.932,0.635
					c-1.165,0-2.193-0.226-3.086-0.678c-0.892-0.452-1.609-1.068-2.151-1.85c-0.543-0.781-0.871-1.66-0.984-2.638h3.64
					c0.141,0.637,0.439,1.129,0.895,1.479c0.454,0.349,1.017,0.524,1.688,0.524c1.137,0,2-0.496,2.591-1.487
					c0.591-0.991,0.89-2.351,0.895-4.078h-0.119c-0.261,0.512-0.614,0.95-1.057,1.317c-0.443,0.367-0.95,0.649-1.521,0.848
					s-1.178,0.298-1.819,0.298c-1.029,0-1.946-0.242-2.753-0.725c-0.808-0.483-1.443-1.147-1.909-1.994s-0.699-1.812-0.699-2.898
					c-0.006-1.17,0.265-2.213,0.811-3.128c0.545-0.915,1.308-1.632,2.287-2.152C891.557,617.777,892.697,617.52,893.998,617.525z
					 M894.024,620.423c-0.574,0-1.084,0.136-1.53,0.409c-0.445,0.272-0.798,0.639-1.057,1.099c-0.258,0.46-0.385,0.975-0.379,1.543
					c0,0.574,0.126,1.089,0.379,1.547c0.253,0.457,0.6,0.821,1.04,1.091s0.944,0.405,1.513,0.405c0.426,0,0.82-0.08,1.185-0.239
					c0.364-0.159,0.681-0.379,0.95-0.661s0.481-0.606,0.635-0.976c0.154-0.369,0.23-0.761,0.23-1.176
					c-0.006-0.551-0.137-1.057-0.393-1.517c-0.256-0.46-0.607-0.83-1.057-1.108S894.587,620.423,894.024,620.423z"/>
				<path class="st1" d="M915.041,635.475c-1.324,0-2.467-0.283-3.43-0.848s-1.707-1.355-2.229-2.369
					c-0.523-1.015-0.785-2.192-0.785-3.533c0-1.353,0.262-2.536,0.785-3.55c0.521-1.014,1.266-1.804,2.229-2.37
					c0.963-0.565,2.105-0.848,3.43-0.848s2.468,0.283,3.431,0.848c0.964,0.565,1.706,1.355,2.229,2.37
					c0.521,1.014,0.783,2.197,0.783,3.55c0,1.341-0.262,2.518-0.783,3.533c-0.523,1.014-1.266,1.804-2.229,2.369
					C917.509,635.192,916.365,635.475,915.041,635.475z M915.059,632.662c0.602,0,1.105-0.172,1.508-0.516
					c0.404-0.344,0.709-0.814,0.916-1.411c0.208-0.597,0.312-1.275,0.312-2.037c0-0.761-0.104-1.44-0.312-2.037
					c-0.207-0.597-0.512-1.068-0.916-1.415c-0.402-0.346-0.906-0.52-1.508-0.52c-0.608,0-1.118,0.174-1.529,0.52
					c-0.412,0.347-0.723,0.818-0.93,1.415c-0.207,0.596-0.311,1.275-0.311,2.037c0,0.762,0.104,1.44,0.311,2.037
					s0.518,1.067,0.93,1.411C913.94,632.49,914.45,632.662,915.059,632.662z"/>
				<path class="st1" d="M923.785,635.219v-2.165l6.409-7.935v-0.094h-6.188v-2.897h10.56v2.361l-6.017,7.738v0.094h6.238v2.898
					H923.785z"/>
			</g>
		</g>
	</g>
</g>
<g id="_x32_D_x24_AG-DIAGRAM">
	<g id="POLYLINE_00000033351202269916776570000003696282128555163324_">
		<g>
			<g>
				<line class="st5" x1="64.267" y1="575.609" x2="66.267" y2="575.609"/>
				<line class="st18" x1="73.287" y1="575.609" x2="930.223" y2="575.609"/>
				<line class="st5" x1="933.733" y1="575.609" x2="935.733" y2="575.609"/>
			</g>
		</g>
	</g>
</g>
<g id="_x32_D_x24_AG-DETAILS-DIAGRAM">
	<g id="POLYLINE_00000159445830875755056100000016676116901161139344_">
		<g>
			<g>
				<path class="st24" d="M215.133,575.609c0.499-0.041,0.985-0.224,1.39-0.518"/>
				<path class="st24" d="M217.878,571.833c0.059-0.344,0.11-0.631,0.14-0.755c0.027-0.102,0.066-0.201,0.117-0.294
					c0.066-0.121,0.15-0.232,0.25-0.327c0.004,0.004,0.438-0.384,1.117-0.995"/>
				<path class="st57" d="M222.341,566.896c0.963-0.871,1.967-1.78,2.844-2.573"/>
				<path class="st24" d="M226.613,563.032c0.677-0.611,1.109-0.999,1.115-0.998c0.102-0.094,0.214-0.201,0.308-0.303
					c0.095-0.104,0.199-0.222,0.285-0.333c0.023-0.033,0.058-0.072,0.08-0.105c0.099-0.133,0.191-0.271,0.276-0.413"/>
				<path class="st58" d="M229.402,554.917c0.053-24.344-0.044-157.705-0.002-158.18c-0.009-0.608-0.131-1.219-0.355-1.785
					c-0.067-0.162-0.147-0.347-0.232-0.503c-0.024-0.046-5.939-10.814-9.253-16.848"/>
				<path class="st24" d="M218.094,374.931c-0.448-0.816-0.715-1.302-0.721-1.313h0.616h0.01h0.01l0.01,0l0.01,0
					c0.039-0.002,0.081-0.006,0.119-0.014c0.069-0.013,0.138-0.034,0.202-0.063c0.157-0.071,0.292-0.19,0.381-0.337"/>
				<path class="st59" d="M215.845,369.825c-13.853-0.016-86.647,0.009-86.699-0.001c-0.157,0-0.313,0.043-0.447,0.124
					c-0.116,0.069-0.214,0.166-0.286,0.279"/>
				<path class="st24" d="M128.405,373.203c0.003,0.004,0.005,0.009,0.008,0.013c0.103,0.163,0.262,0.289,0.443,0.353
					c0.068,0.024,0.139,0.04,0.212,0.046c0.021,0.002,0.038,0.003,0.059,0.003c0,0,0.01,0,0.01,0h0.01h0.616
					c-0.006,0.011-0.272,0.496-0.721,1.313"/>
				<path class="st60" d="M126.095,380.293c-3.338,6.078-7.753,14.115-7.774,14.155c-0.085,0.166-0.165,0.331-0.232,0.503
					c-0.234,0.591-0.356,1.228-0.356,1.864c0.018,0.433-0.035,161.494,0.018,161.89c0.034,0.396,0.115,0.791,0.24,1.167
					c0.169,0.508,0.42,0.99,0.739,1.42c0.016,0.012,0.038,0.057,0.053,0.07c0.149,0.194,0.319,0.384,0.495,0.553
					c0.034,0.024,0.092,0.093,0.126,0.117c0.054,0.008,9.308,8.418,9.353,8.432c0.098,0.096,0.182,0.208,0.246,0.33
					c0.047,0.089,0.084,0.185,0.11,0.282c0.009,0.034,0.017,0.072,0.023,0.106c0,0,0.113,0.633,0.217,1.216"/>
				<path class="st24" d="M130.611,575.091c0.405,0.295,0.89,0.478,1.39,0.518"/>
			</g>
		</g>
	</g>
	<g id="POLYLINE_00000036968132163589982580000015081867408692092041_">
		<g>
			<g>
				<path class="st24" d="M861.873,575.61c0.494-0.011,0.995-0.02,1.497-0.042"/>
				<path class="st61" d="M868.957,573.825c0.544-0.452,1.026-0.982,1.455-1.542c0.99-1.298,1.778-2.763,2.479-4.234
					c1.498-3.196,2.614-6.602,3.482-10.019c1.378-5.457,2.06-11.113,2.133-16.738c0.046-4.705-0.295-9.474-1.383-14.061
					c-0.934-4.172-3.13-9.264-4.704-13.257c-2.073-5.281-3.309-10.919-3.44-16.598c-0.076-2.673,0.082-5.401,0.375-8.058
					c0.517-5.363,4.04-24.097,4.964-29.689c1.551-10.09,3.293-21.188,3.878-31.339c0.127-2.278,0.219-5.403,0.241-7.686
					c-0.037-10.09,0.149-51.12-0.13-60.317c-0.245-6.938-0.67-14.035-2.16-20.829c-1.105-5.04-2.898-9.957-5.095-14.62
					c-3.553-7.648-15.384-28.714-19.102-36.409c-1.161-2.459-2.223-5.065-3.042-7.659c-1.06-3.339-1.779-6.812-2.152-10.295
					c-0.193-1.659-0.279-3.405-0.315-5.148"/>
				<path class="st24" d="M846.418,262.343c0.001-0.505,0.003-1.006,0.004-1.5h1.5"/>
				<polyline class="st24" points="849.623,260.843 851.123,260.843 851.123,258.313 849.623,258.313 				"/>
				<polyline class="st24" points="847.923,258.313 846.423,258.313 846.423,256.473 847.923,256.473 				"/>
				<path class="st24" d="M848.087,256.473h1.5c-0.027-0.428-0.059-0.931-0.095-1.493"/>
				<path class="st62" d="M849.109,248.937c-0.291-4.592-0.617-9.724-0.782-12.334c-0.051-0.822-0.364-1.625-0.884-2.264
					c-0.53-0.656-1.273-1.136-2.089-1.349c-0.261-0.069-0.531-0.111-0.801-0.125c-9.801-0.016-29.292,0-39.09-0.006
					c-0.436,0-0.873,0.072-1.285,0.212c-0.756,0.255-1.432,0.745-1.91,1.384c-0.314,0.418-0.546,0.9-0.676,1.407
					c-0.047,0.186-0.083,0.379-0.103,0.57c-0.215,3.299-0.661,10.346-0.989,15.532"/>
				<path class="st24" d="M800.308,254.979c-0.035,0.558-0.067,1.061-0.095,1.494h1.5"/>
				<polyline class="st24" points="801.877,256.473 803.377,256.473 803.377,258.313 801.877,258.313 				"/>
				<polyline class="st24" points="800.177,258.313 798.677,258.313 798.677,260.843 800.177,260.843 				"/>
				<path class="st24" d="M801.877,260.843h1.5c0.002,0.494,0.004,0.995,0.005,1.5"/>
				<path class="st61" d="M803.236,268.307c-0.048,0.735-0.111,1.46-0.193,2.169c-0.373,3.483-1.092,6.956-2.151,10.295
					c-0.819,2.594-1.88,5.198-3.042,7.659c-4.133,8.547-15.915,29.262-19.741,37.803c-1.911,4.234-3.456,8.688-4.456,13.227
					c-1.805,8.29-2.091,17.028-2.264,25.49c0.099,10.13-0.323,54.126,0.216,63.34c0.588,10.104,2.322,21.314,3.878,31.339
					c0.948,5.728,4.434,24.253,4.964,29.689c0.292,2.658,0.451,5.385,0.375,8.059c-0.131,5.679-1.367,11.317-3.44,16.598
					c-1.498,3.795-3.615,8.738-4.555,12.652c-1.206,4.774-1.579,9.754-1.531,14.666c0.076,5.87,0.816,11.769,2.316,17.447
					c0.842,3.171,1.904,6.336,3.299,9.309c0.701,1.471,1.489,2.935,2.479,4.234c0.732,0.958,1.622,1.826,2.708,2.371
					c0.443,0.223,0.905,0.392,1.378,0.52"/>
				<path class="st24" d="M786.43,575.569c0.502,0.022,1.003,0.031,1.497,0.041"/>
			</g>
		</g>
	</g>
</g>
<g id="_x32_D_x24_AG-DETAILS">
	<g id="POLYLINE_00000085949006284183442990000015011295761882829975_">
		<path class="st4" d="M401.219,484.808c46.247,0,139.313,0,185.549,0"/>
	</g>
	<g id="POLYLINE_00000051377532171096072140000007890584171332901791_">
		<path class="st4" d="M401.219,232.309c46.247,0,139.313,0,185.549,0"/>
	</g>
	<g id="POLYLINE_00000096042117563934561140000014148686295317296020_">
		<path class="st4" d="M465.242,65.638c14.333,0,43.175,0,57.504,0"/>
	</g>
</g>
<g id="_x32_D_x24_AG-OBJECTS">
	<g id="POLYLINE_00000149380977503360383640000010619741158140755115_">
		<path class="st102" d="M516.327,565.411c0.882,0.326,2.236,0.868,3.117,1.226c5.466,2.268,12.208,5.45,17.858,6.996
			c3.401,0.953,6.966,1.435,10.485,1.689c3.479,0.27,7.716,0.281,11.23,0.29c1.52-0.013,3.321,0.012,4.823-0.117
			c1.161-0.093,2.331-0.269,3.452-0.588c1.116-0.314,2.201-0.773,3.215-1.335c8.919-4.972,12.236-15.62,13.862-25.091
			c1.808-11.166,2.007-23.168,2.26-34.48c0.201-13.382,0.234-266.856,0.051-287.725c-0.114-3.712-0.344-7.704-0.683-11.4
			c-0.904-9.872-2.667-19.762-5.477-29.273c-3.748-12.783-9.54-24.998-17.044-36.004c-6.61-9.757-14.502-18.746-22.972-26.927
			c-2.907-2.807-11.428-10.724-14.046-13.625c-1.756-1.9-3.428-3.948-4.84-6.117c-2.285-3.469-3.878-7.406-4.561-11.507
			c-0.587-3.263-0.594-6.703-0.577-10.011"/>
	</g>
	<g id="POLYLINE_00000000199742760692791560000012558214059480712626_">
		<path class="st102" d="M471.508,81.412c0.02,3.186,0.008,6.488-0.513,9.627c-0.654,4.24-2.265,8.311-4.625,11.89
			c-1.412,2.17-3.084,4.216-4.84,6.117c-2.556,2.847-11.155,10.827-14.046,13.625c-8.47,8.181-16.362,17.17-22.972,26.927
			c-7.504,11.006-13.296,23.221-17.043,36.004c-2.81,9.51-4.574,19.402-5.477,29.273c-0.336,3.689-0.573,7.695-0.683,11.399
			c-0.219,21.013-0.113,274.044,0.051,287.725c0.257,11.328,0.451,23.305,2.26,34.48c1.626,9.47,4.943,20.118,13.862,25.091
			c1.014,0.562,2.098,1.021,3.215,1.335c1.121,0.318,2.291,0.495,3.452,0.588c1.498,0.13,3.31,0.108,4.823,0.117
			c3.515-0.013,7.743-0.02,11.23-0.29c3.518-0.254,7.084-0.736,10.485-1.689c5.639-1.539,12.428-4.747,17.858-6.996
			c0.885-0.359,2.231-0.898,3.117-1.226"/>
	</g>
	<g id="POLYLINE_00000179628659583250467550000008825793240140279472_">
		<path class="st102" d="M555.18,513.564c-2.907,0.009-5.861,0.164-8.712,0.743c-2.104,0.429-4.188,1.109-6.041,2.209
			c-2.083,1.217-3.786,2.996-5.157,4.966c-1.183,1.69-2.165,3.554-3.021,5.429c-1.453,3.062-4.354,11.263-5.614,14.553
			c-1.867,4.879-4.238,11.047-6.328,15.811c-1.277,2.911-2.642,5.917-4.28,8.643c-1.092,1.808-2.334,3.563-3.847,5.045
			c-1.006,0.986-2.148,1.847-3.404,2.488c-1.844,0.951-3.888,1.474-5.935,1.764c-2.869,0.415-5.949,0.388-8.848,0.398
			c-2.989-0.016-6.146,0.019-9.102-0.436c-1.959-0.296-3.913-0.815-5.68-1.727c-1.256-0.641-2.399-1.502-3.404-2.488
			c-1.513-1.482-2.756-3.237-3.847-5.045c-1.637-2.726-3.005-5.732-4.28-8.643c-2.087-4.757-4.473-10.938-6.328-15.811
			c-1.252-3.307-4.152-11.432-5.614-14.553c-0.856-1.874-1.838-3.739-3.021-5.429c-1.37-1.969-3.074-3.749-5.157-4.966
			c-1.852-1.1-3.938-1.78-6.041-2.209c-2.851-0.579-5.808-0.735-8.712-0.743"/>
	</g>
	<g id="POLYLINE_00000173146340669166376410000017594010550984978594_">
		<line class="st102" x1="471.508" y1="73.958" x2="471.508" y2="77.195"/>
	</g>
	<g id="POLYLINE_00000056403473266132110960000013170508386878420899_">
		<line class="st102" x1="516.479" y1="73.958" x2="516.479" y2="77.195"/>
	</g>
	<g id="POLYLINE_00000168093578060378622640000002787856708271863716_">
		<rect x="463.771" y="77.195" class="st102" width="60.445" height="4.217"/>
	</g>
	<g id="POLYLINE_00000081626692603542500840000016919137096869497516_">
		<path class="st102" d="M521.749,48.975c-0.121-2.194-1.651-4.178-3.841-4.619c-0.24-0.048-0.487-0.078-0.732-0.086
			c-0.137-0.012-46.106,0.003-46.262-0.002c-0.171,0.002-0.348,0.014-0.518,0.036c-0.418,0.054-0.831,0.168-1.219,0.335
			c-0.82,0.353-1.529,0.951-2.034,1.685c-0.391,0.566-0.664,1.213-0.804,1.886c-0.044,0.216-0.077,0.438-0.094,0.658
			c-0.078,0.102-1.444,24.981-1.501,25.091c14.581,0,43.921,0,58.498,0L521.749,48.975z"/>
	</g>
</g>
<g id="_x32_D_x24_AG-OUTLINE">
	<g id="POLYLINE_00000021113666839377752840000000997660014916437654_">
		<path class="st104" d="M471.508,81.412c0.003,1.882,0.017,3.86-0.092,5.688c-0.116,1.958-0.358,3.928-0.785,5.843
			c-0.687,3.126-1.916,6.135-3.566,8.874c-2.131,3.562-4.941,6.729-7.872,9.653c-4.16,4.154-12.275,11.56-16.253,15.731
			c-2.858,2.933-5.784,6.13-8.43,9.257c-5.505,6.525-10.622,13.57-14.918,20.95c-3.454,5.928-6.452,12.206-8.894,18.618
			c-4.31,11.295-6.988,23.239-8.339,35.242c-0.628,5.579-0.989,11.381-1.1,16.994c0.13,33.659-0.566,269.928,0.43,298.31
			c0.27,6.18,0.648,12.916,1.495,19.047c0.762,5.488,1.936,11.031,4.186,16.118c1.409,3.173,3.283,6.196,5.791,8.619
			c1.945,1.861,4.232,3.431,6.787,4.317c2.009,0.697,4.161,0.876,6.274,0.919c3.166,0.032,7.234,0.027,10.398-0.081
			c4.333-0.175,8.746-0.526,12.961-1.59c6.039-1.484,13.18-4.889,18.964-7.286c0.885-0.359,2.231-0.898,3.117-1.226
			c1.557,2.658,3.41,5.251,5.941,7.061c1.376,0.983,2.953,1.675,4.578,2.131c4.41,1.229,9.465,0.969,14.016,1.004
			c3.21-0.034,6.504-0.136,9.613-1.004c1.624-0.456,3.201-1.148,4.578-2.131c2.531-1.81,4.385-4.403,5.941-7.061
			c0.882,0.326,2.236,0.868,3.117,1.226c5.466,2.268,12.208,5.45,17.858,6.996c3.401,0.953,6.966,1.435,10.485,1.689
			c3.479,0.27,7.716,0.281,11.23,0.29c1.52-0.013,3.321,0.012,4.823-0.117c1.161-0.093,2.331-0.269,3.452-0.588
			c1.116-0.314,2.201-0.773,3.215-1.335c8.919-4.972,12.236-15.62,13.862-25.091c1.808-11.166,2.007-23.168,2.26-34.48
			c0.201-13.382,0.234-266.856,0.051-287.725c-0.114-3.712-0.344-7.704-0.683-11.4c-0.904-9.872-2.667-19.762-5.477-29.273
			c-3.748-12.783-9.54-24.998-17.044-36.004c-6.61-9.757-14.502-18.746-22.972-26.927c-2.907-2.807-11.428-10.724-14.046-13.625
			c-1.756-1.9-3.428-3.948-4.84-6.117c-2.285-3.469-3.878-7.406-4.561-11.507c-0.587-3.263-0.594-6.703-0.577-10.011h7.737v-4.217
			h-7.737v-3.237h6.764c-0.332-5.407-1.161-19.663-1.517-25.253c-0.029-0.259-0.077-0.52-0.144-0.773
			c-0.228-0.865-0.683-1.672-1.318-2.303c-0.615-0.614-1.401-1.059-2.25-1.25c-0.258-0.058-0.523-0.095-0.787-0.107
			c-0.05-0.002-0.105-0.004-0.153-0.004c0.022-0.007-23.079,0.005-23.08,0c0,0-23.029,0-23.029,0c-0.061,0-0.142,0.002-0.204,0.005
			c-0.264,0.012-0.53,0.048-0.787,0.107c-0.848,0.191-1.635,0.636-2.25,1.25c-0.635,0.631-1.09,1.439-1.318,2.303
			c-0.067,0.252-0.116,0.513-0.144,0.773c-0.353,5.628-1.185,19.788-1.517,25.253h6.764v3.237h-7.737v4.217H471.508z"/>
	</g>
</g>
</svg>
