<?xml version="1.0" encoding="utf-8"?>
<!-- Generator: Adobe Illustrator 26.0.1, SVG Export Plug-In . SVG Version: 6.00 Build 0)  -->
<!DOCTYPE svg PUBLIC "-//W3C//DTD SVG 1.1//EN" "http://www.w3.org/Graphics/SVG/1.1/DTD/svg11.dtd" [
	<!ENTITY ns_extend "http://ns.adobe.com/Extensibility/1.0/">
	<!ENTITY ns_ai "http://ns.adobe.com/AdobeIllustrator/10.0/">
	<!ENTITY ns_graphs "http://ns.adobe.com/Graphs/1.0/">
	<!ENTITY ns_vars "http://ns.adobe.com/Variables/1.0/">
	<!ENTITY ns_imrep "http://ns.adobe.com/ImageReplacement/1.0/">
	<!ENTITY ns_sfw "http://ns.adobe.com/SaveForWeb/1.0/">
	<!ENTITY ns_custom "http://ns.adobe.com/GenericCustomNamespace/1.0/">
	<!ENTITY ns_adobe_xpath "http://ns.adobe.com/XPath/1.0/">
]>
<svg version="1.1" xmlns:x="&ns_extend;" xmlns:i="&ns_ai;" xmlns:graph="&ns_graphs;"
	 xmlns="http://www.w3.org/2000/svg" xmlns:xlink="http://www.w3.org/1999/xlink" x="0px" y="0px" width="1000px" height="650px"
	 viewBox="0 0 1000 650" style="enable-background:new 0 0 1000 650;" xml:space="preserve">
<style type="text/css">
	.st0{fill:#FFFFFF;}
	.st1{fill:#D2374E;}
	.st2{fill:none;stroke:#D2374E;stroke-width:2;stroke-linecap:round;stroke-linejoin:round;}
	.st3{fill:none;stroke:#D2374E;stroke-width:2;stroke-linecap:round;stroke-linejoin:round;stroke-dasharray:3.4615,5.7692;}
	.st4{fill:none;stroke:#D2374E;stroke-width:2;stroke-linecap:round;stroke-linejoin:round;stroke-miterlimit:10;}
	.st5{fill:none;stroke:#D2374E;stroke-width:3.25;stroke-linecap:round;stroke-linejoin:round;}
	.st6{fill:none;stroke:#D2374E;stroke-width:3.25;stroke-linecap:round;stroke-linejoin:round;stroke-dasharray:3.9202,6.8604;}
	.st7{fill:none;stroke:#D2374E;stroke-width:3.25;stroke-linecap:round;stroke-linejoin:round;stroke-dasharray:3.966,6.9405;}
	.st8{fill:none;stroke:#D2374E;stroke-width:3.25;stroke-linecap:round;stroke-linejoin:round;stroke-dasharray:3.9324,6.8817;}
	.st9{fill:none;stroke:#D2374E;stroke-width:3.25;stroke-linecap:round;stroke-linejoin:round;stroke-dasharray:3.8866,6.8015;}
	.st10{fill:none;stroke:#D2374E;stroke-width:3.25;stroke-linecap:round;stroke-linejoin:round;stroke-dasharray:4.0693,7.1213;}
	.st11{fill:none;stroke:#D2374E;stroke-width:3.25;stroke-linecap:round;stroke-linejoin:round;stroke-dasharray:3.9356,6.8873;}
	.st12{fill:none;stroke:#D2374E;stroke-width:3.25;stroke-linecap:round;stroke-linejoin:round;stroke-dasharray:3.9532,6.918;}
	.st13{fill:none;stroke:#D2374E;stroke-width:3.25;stroke-linecap:round;stroke-linejoin:round;stroke-dasharray:4.0216,7.0378;}
	.st14{fill:none;stroke:#D2374E;stroke-width:3.25;stroke-linecap:round;stroke-linejoin:round;stroke-dasharray:3.9787,6.9628;}
	.st15{fill:none;stroke:#D2374E;stroke-width:3.25;stroke-linecap:round;stroke-linejoin:round;stroke-dasharray:4.0147,7.0257;}
	.st16{fill:none;stroke:#D2374E;stroke-width:3.25;stroke-linecap:round;stroke-linejoin:round;stroke-dasharray:3.9824,6.9692;}
	.st17{fill:none;stroke:#D2374E;stroke-width:3.25;stroke-linecap:round;stroke-linejoin:round;stroke-dasharray:4.0033,7.0057;}
	.st18{fill:none;stroke:#D2374E;stroke-width:3.25;stroke-linecap:round;stroke-linejoin:round;stroke-dasharray:4.0114,7.0199;}
	.st19{fill:none;stroke:#D2374E;stroke-width:3.25;stroke-linecap:round;stroke-linejoin:round;stroke-dasharray:4.006,7.0105;}
	.st20{fill:none;stroke:#D2374E;stroke-width:3.25;stroke-linecap:round;stroke-linejoin:round;stroke-dasharray:4.0036,7.0062;}
	.st21{fill:none;stroke:#D2374E;stroke-width:3.25;stroke-linecap:round;stroke-linejoin:round;stroke-dasharray:3.9928,6.9873;}
	.st22{fill:none;stroke:#D2374E;stroke-width:3.25;stroke-linecap:round;stroke-linejoin:round;stroke-dasharray:3.9426,6.8995;}
	.st23{fill:none;stroke:#D2374E;stroke-width:3.25;stroke-linecap:round;stroke-linejoin:round;stroke-dasharray:3.9159,6.8529;}
	.st24{fill:none;stroke:#D2374E;stroke-width:3;stroke-linecap:round;stroke-linejoin:round;}
	.st25{fill:none;stroke:#D2374E;stroke-width:3;stroke-linecap:round;stroke-linejoin:round;stroke-dasharray:3.8885,6.8048;}
	.st26{fill:none;stroke:#D2374E;stroke-width:3.25;stroke-linecap:round;stroke-linejoin:round;stroke-dasharray:3.972,6.951;}
	.st27{fill:none;stroke:#D2374E;stroke-width:3.25;stroke-linecap:round;stroke-linejoin:round;stroke-dasharray:4.0059,7.0103;}
	.st28{fill:none;stroke:#D2374E;stroke-width:3.25;stroke-linecap:round;stroke-linejoin:round;stroke-dasharray:3.9337,6.8839;}
	.st29{fill:none;stroke:#D2374E;stroke-width:3.25;stroke-linecap:round;stroke-linejoin:round;stroke-dasharray:4.0265,7.0464;}
	.st30{fill:none;stroke:#D2374E;stroke-width:3.25;stroke-linecap:round;stroke-linejoin:round;stroke-dasharray:4.0492,7.086;}
	.st31{fill:none;stroke:#D2374E;stroke-width:3;stroke-linecap:round;stroke-linejoin:round;stroke-dasharray:3.9001,6.8252;}
	.st32{fill:none;stroke:#D2374E;stroke-width:3.25;stroke-linecap:round;stroke-linejoin:round;stroke-dasharray:4.0711,7.1244;}
	.st33{fill:none;stroke:#D2374E;stroke-width:3;stroke-linecap:round;stroke-linejoin:round;stroke-dasharray:2.9922,5.9844;}
	.st34{fill:none;stroke:#D2374E;stroke-width:3;stroke-linecap:round;stroke-linejoin:round;stroke-dasharray:3.0069,6.0138;}
	.st35{fill:none;stroke:#D2374E;stroke-width:3;stroke-linecap:round;stroke-linejoin:round;stroke-dasharray:2.9983,5.9966;}
	.st36{fill:none;stroke:#D2374E;stroke-width:3;stroke-linecap:round;stroke-linejoin:round;stroke-dasharray:3.0164,6.0328;}
	.st37{fill:none;stroke:#D2374E;stroke-width:3;stroke-linecap:round;stroke-linejoin:round;stroke-dasharray:2.9189,5.8377;}
	.st38{fill:none;stroke:#D2374E;stroke-width:3;stroke-linecap:round;stroke-linejoin:round;stroke-dasharray:3.0842,6.1685;}
	.st39{fill:none;stroke:#D2374E;stroke-width:3;stroke-linecap:round;stroke-linejoin:round;stroke-dasharray:2.9838,5.9677;}
	.st40{fill:none;stroke:#D2374E;stroke-width:3;stroke-linecap:round;stroke-linejoin:round;stroke-dasharray:3.0354,6.0708;}
	.st41{fill:none;stroke:#D2374E;stroke-width:3;stroke-linecap:round;stroke-linejoin:round;stroke-dasharray:2.9005,5.8011;}
	.st42{fill:none;stroke:#D2374E;stroke-width:3;stroke-linecap:round;stroke-linejoin:round;stroke-dasharray:3.0242,6.0484;}
	.st43{fill:none;stroke:#D2374E;stroke-width:3;stroke-linecap:round;stroke-linejoin:round;stroke-dasharray:1.5418,3.0837;}
	.st44{fill:none;stroke:#D2374E;stroke-width:3;stroke-linecap:round;stroke-linejoin:round;stroke-dasharray:2.9874,5.9747;}
	.st45{fill:none;stroke:#D2374E;stroke-width:3;stroke-linecap:round;stroke-linejoin:round;stroke-dasharray:2.9448,5.8896;}
	.st46{fill:none;stroke:#D2374E;stroke-width:3;stroke-linecap:round;stroke-linejoin:round;stroke-dasharray:2.9896,5.9792;}
	.st47{fill:none;stroke:#D2374E;stroke-width:3;stroke-linecap:round;stroke-linejoin:round;stroke-dasharray:3.0419,6.0837;}
	.st48{fill:none;stroke:#D2374E;stroke-width:3;stroke-linecap:round;stroke-linejoin:round;stroke-dasharray:3.006,6.0121;}
	.st49{fill:none;stroke:#D2374E;stroke-width:3;stroke-linecap:round;stroke-linejoin:round;stroke-dasharray:3.0449,6.0898;}
	.st50{fill:none;stroke:#D2374E;stroke-width:3;stroke-linecap:round;stroke-linejoin:round;stroke-dasharray:2.9595,5.919;}
	.st51{fill:none;stroke:#D2374E;stroke-width:3;stroke-linecap:round;stroke-linejoin:round;stroke-dasharray:2.9864,5.9728;}
	.st52{fill:none;stroke:#D2374E;stroke-width:3;stroke-linecap:round;stroke-linejoin:round;stroke-dasharray:2.9907,5.9814;}
	.st53{fill:none;stroke:#D2374E;stroke-width:3;stroke-linecap:round;stroke-linejoin:round;stroke-dasharray:2.9777,5.9553;}
	.st54{fill:none;stroke:#D2374E;stroke-width:3;stroke-linecap:round;stroke-linejoin:round;stroke-dasharray:3.0721,6.1441;}
	.st55{fill:none;stroke:#D2374E;stroke-width:3;stroke-linecap:round;stroke-linejoin:round;stroke-dasharray:2.8882,5.7764;}
	.st56{fill:none;stroke:#D2374E;stroke-width:3;stroke-linecap:round;stroke-linejoin:round;stroke-dasharray:3.0721,6.1443;}
	.st57{fill:none;stroke:#D2374E;stroke-width:3;stroke-linecap:round;stroke-linejoin:round;stroke-dasharray:1.9159,3.8319;}
	.st58{fill:none;stroke:#D2374E;stroke-width:3;stroke-linecap:round;stroke-linejoin:round;stroke-dasharray:3.0471,6.0941;}
	.st59{fill:none;stroke:#D2374E;stroke-width:3;stroke-linecap:round;stroke-linejoin:round;stroke-dasharray:3.0196,6.0393;}
	.st60{fill:none;stroke:#D2374E;stroke-width:3;stroke-linecap:round;stroke-linejoin:round;stroke-dasharray:3.0608,6.1215;}
	.st61{fill:none;stroke:#D2374E;stroke-width:3;stroke-linecap:round;stroke-linejoin:round;stroke-dasharray:2.9826,5.9652;}
	.st62{fill:none;stroke:#D2374E;stroke-width:3;stroke-linecap:round;stroke-linejoin:round;stroke-dasharray:3.0253,6.0507;}
	.st63{fill:none;stroke:#D2374E;stroke-width:3;stroke-linecap:round;stroke-linejoin:round;stroke-dasharray:1.9503,3.9006;}
	.st64{fill:none;stroke:#D2374E;stroke-width:3;stroke-linecap:round;stroke-linejoin:round;stroke-dasharray:2.9468,5.8935;}
	.st65{fill:none;stroke:#D2374E;stroke-width:3;stroke-linecap:round;stroke-linejoin:round;stroke-dasharray:3.0622,6.1243;}
	.st66{fill:none;stroke:#D2374E;stroke-width:3;stroke-linecap:round;stroke-linejoin:round;stroke-dasharray:2.9721,5.9441;}
	.st67{fill:none;stroke:#D2374E;stroke-width:3;stroke-linecap:round;stroke-linejoin:round;stroke-dasharray:2.9981,5.9961;}
	.st68{fill:none;stroke:#D2374E;stroke-width:3;stroke-linecap:round;stroke-linejoin:round;stroke-dasharray:3.1232,6.2464;}
	.st69{fill:none;stroke:#D2374E;stroke-width:3;stroke-linecap:round;stroke-linejoin:round;stroke-dasharray:3.0217,6.0433;}
	.st70{fill:none;stroke:#D2374E;stroke-width:3;stroke-linecap:round;stroke-linejoin:round;stroke-dasharray:2.9974,5.9948;}
	.st71{fill:none;stroke:#D2374E;stroke-width:3;stroke-linecap:round;stroke-linejoin:round;stroke-dasharray:2.4663,4.9325;}
	.st72{fill:none;stroke:#D2374E;stroke-width:3;stroke-linecap:round;stroke-linejoin:round;stroke-dasharray:2.9637,5.9274;}
	.st73{fill:none;stroke:#D2374E;stroke-width:3;stroke-linecap:round;stroke-linejoin:round;stroke-dasharray:2.9517,5.9035;}
	.st74{fill:none;stroke:#D2374E;stroke-width:3;stroke-linecap:round;stroke-linejoin:round;stroke-dasharray:3.0066,6.0132;}
	.st75{fill:none;stroke:#D2374E;stroke-width:3;stroke-linecap:round;stroke-linejoin:round;stroke-dasharray:2.9417,5.8834;}
	.st76{fill:none;stroke:#D2374E;stroke-width:3;stroke-linecap:round;stroke-linejoin:round;stroke-dasharray:2.9696,5.9392;}
	.st77{fill:none;stroke:#D2374E;stroke-width:3;stroke-linecap:round;stroke-linejoin:round;stroke-dasharray:1.7668,3.5335;}
	.st78{fill:none;stroke:#D2374E;stroke-width:3;stroke-linecap:round;stroke-linejoin:round;stroke-dasharray:1.7839,3.5677;}
	.st79{fill:none;stroke:#D2374E;stroke-width:3;stroke-linecap:round;stroke-linejoin:round;stroke-dasharray:1.8663,3.7326;}
	.st80{fill:none;stroke:#D2374E;stroke-width:3;stroke-linecap:round;stroke-linejoin:round;stroke-dasharray:2.9914,5.9827;}
	.st81{fill:none;stroke:#D2374E;stroke-width:3;stroke-linecap:round;stroke-linejoin:round;stroke-dasharray:3.0027,6.0055;}
	.st82{fill:none;stroke:#D2374E;stroke-width:3;stroke-linecap:round;stroke-linejoin:round;stroke-dasharray:2.858,5.716;}
	.st83{fill:none;stroke:#D2374E;stroke-width:3;stroke-linecap:round;stroke-linejoin:round;stroke-dasharray:3.0107,6.0214;}
	.st84{fill:none;stroke:#D2374E;stroke-width:3;stroke-linecap:round;stroke-linejoin:round;stroke-dasharray:3.0405,6.0811;}
	.st85{fill:none;stroke:#D2374E;stroke-width:3;stroke-linecap:round;stroke-linejoin:round;stroke-dasharray:2.802,5.6041;}
	.st86{fill:none;stroke:#D2374E;stroke-width:3;stroke-linecap:round;stroke-linejoin:round;stroke-dasharray:3.0135,6.027;}
	.st87{fill:none;stroke:#D2374E;stroke-width:3;stroke-linecap:round;stroke-linejoin:round;stroke-dasharray:2.9567,5.9135;}
	.st88{fill:none;stroke:#D2374E;stroke-width:3;stroke-linecap:round;stroke-linejoin:round;stroke-dasharray:2.962,5.924;}
	.st89{fill:none;stroke:#D2374E;stroke-width:3;stroke-linecap:round;stroke-linejoin:round;stroke-dasharray:1.6535,3.307;}
	.st90{fill:none;stroke:#D2374E;stroke-width:3;stroke-linecap:round;stroke-linejoin:round;stroke-dasharray:1.6698,3.3396;}
	.st91{fill:none;stroke:#D2374E;stroke-width:3;stroke-linecap:round;stroke-linejoin:round;stroke-dasharray:1.7483,3.4966;}
	.st92{fill:none;stroke:#D2374E;stroke-width:3;stroke-linecap:round;stroke-linejoin:round;stroke-dasharray:2.9776,5.9551;}
	.st93{fill:none;stroke:#D2374E;stroke-width:3;stroke-linecap:round;stroke-linejoin:round;stroke-dasharray:2.9935,5.9871;}
	.st94{fill:none;stroke:#D2374E;stroke-width:3;stroke-linecap:round;stroke-linejoin:round;stroke-dasharray:2.5236,5.0472;}
	.st95{fill:none;stroke:#D2374E;stroke-width:3;stroke-linecap:round;stroke-linejoin:round;stroke-dasharray:3.0201,6.0403;}
	.st96{fill:none;stroke:#D2374E;stroke-width:3;stroke-linecap:round;stroke-linejoin:round;stroke-dasharray:3.0181,6.0363;}
	.st97{fill:none;stroke:#D2374E;stroke-width:3;stroke-linecap:round;stroke-linejoin:round;stroke-dasharray:1.5537,3.1073;}
	.st98{fill:none;stroke:#D2374E;stroke-width:3;stroke-linecap:round;stroke-linejoin:round;stroke-dasharray:2.9946,5.9893;}
	.st99{fill:none;stroke:#D2374E;stroke-width:3;stroke-linecap:round;stroke-linejoin:round;stroke-dasharray:3.0643,6.1286;}
	.st100{fill:none;stroke:#D2374E;stroke-width:3;stroke-linecap:round;stroke-linejoin:round;stroke-dasharray:3.0262,6.0524;}
	.st101{fill:none;stroke:#D2374E;stroke-width:3;stroke-linecap:round;stroke-linejoin:round;stroke-dasharray:3.0331,6.0662;}
	.st102{fill:none;stroke:#D2374E;stroke-width:2.75;stroke-linecap:round;stroke-linejoin:round;stroke-miterlimit:10;}
	.st103{fill:none;stroke:#D2374E;stroke-width:2.5;stroke-linecap:round;stroke-linejoin:round;stroke-miterlimit:10;}
	.st104{fill:none;stroke:#D2374E;stroke-width:3.5;stroke-linecap:round;stroke-linejoin:round;stroke-miterlimit:10;}
	.st105{fill:none;stroke:#D2374E;stroke-width:3;stroke-linecap:round;stroke-linejoin:round;stroke-miterlimit:10;}
</style>
<metadata>
	<sfw  xmlns="&ns_sfw;">
		<slices></slices>
		<sliceSourceBounds  bottomLeftOrigin="true" height="8225.674" width="4394" x="-2000" y="686"></sliceSourceBounds>
	</sfw>
</metadata>
<g id="FILL-BACKGROUND">
	<rect x="0" y="0" class="st0" width="1000" height="650"/>
</g>
<g id="N-DIMENSIONS">
</g>
<g id="N-TEXT">
	<g id="MTEXT_00000104700769881057826570000002221629643840548237_">
		<g>
			<g>
				<path class="st1" d="M381.4,608.219l-4.994-17.455h4.031l2.889,12.129h0.145l3.188-12.129h3.452l3.179,12.154h0.153
					l2.889-12.154h4.031l-4.995,17.455h-3.596l-3.324-11.412h-0.136l-3.315,11.412H381.4z"/>
				<path class="st1" d="M404.582,608.466c-0.835,0-1.58-0.146-2.233-0.438c-0.653-0.293-1.169-0.728-1.547-1.305
					c-0.378-0.576-0.566-1.297-0.566-2.16c0-0.727,0.133-1.338,0.4-1.832s0.631-0.893,1.091-1.193
					c0.46-0.301,0.984-0.529,1.572-0.682c0.588-0.154,1.206-0.262,1.854-0.324c0.761-0.08,1.375-0.154,1.841-0.227
					c0.466-0.07,0.804-0.177,1.014-0.318c0.21-0.143,0.315-0.353,0.315-0.631v-0.051c0-0.541-0.169-0.958-0.507-1.254
					c-0.338-0.295-0.817-0.443-1.436-0.443c-0.653,0-1.173,0.145-1.56,0.432c-0.386,0.286-0.642,0.646-0.767,1.078l-3.358-0.273
					c0.17-0.795,0.506-1.484,1.006-2.066s1.146-1.031,1.939-1.348c0.792-0.314,1.711-0.473,2.757-0.473
					c0.728,0,1.425,0.086,2.092,0.256s1.262,0.436,1.781,0.793c0.52,0.357,0.931,0.816,1.231,1.377
					c0.301,0.559,0.452,1.229,0.452,2.006v8.83h-3.443v-1.815h-0.103c-0.21,0.409-0.491,0.769-0.844,1.078
					c-0.352,0.31-0.775,0.552-1.27,0.725C405.801,608.379,405.23,608.466,404.582,608.466z M405.622,605.961
					c0.534,0,1.005-0.107,1.415-0.32s0.73-0.502,0.963-0.865c0.233-0.363,0.349-0.775,0.349-1.236v-1.389
					c-0.114,0.074-0.269,0.141-0.464,0.201c-0.196,0.059-0.417,0.113-0.661,0.161s-0.489,0.091-0.733,0.128s-0.466,0.07-0.665,0.098
					c-0.426,0.062-0.798,0.162-1.117,0.299s-0.565,0.319-0.741,0.549c-0.176,0.23-0.264,0.516-0.264,0.857
					c0,0.494,0.18,0.871,0.541,1.129C404.606,605.831,405.065,605.961,405.622,605.961z"/>
				<path class="st1" d="M421.738,595.128v2.728h-7.884v-2.728H421.738z M415.645,591.992h3.63v12.203
					c0,0.336,0.051,0.596,0.153,0.781c0.103,0.184,0.246,0.313,0.431,0.387c0.185,0.074,0.399,0.111,0.644,0.111
					c0.17,0,0.341-0.016,0.511-0.047s0.301-0.056,0.392-0.072l0.571,2.701c-0.182,0.057-0.438,0.123-0.767,0.201
					c-0.33,0.076-0.73,0.123-1.202,0.141c-0.875,0.033-1.641-0.083-2.297-0.35c-0.656-0.268-1.166-0.682-1.53-1.244
					s-0.542-1.273-0.537-2.131V591.992z"/>
				<path class="st1" d="M429.928,608.475c-1.346,0-2.504-0.274-3.473-0.822c-0.969-0.549-1.715-1.327-2.237-2.336
					c-0.523-1.008-0.784-2.203-0.784-3.584c0-1.346,0.261-2.527,0.784-3.545c0.522-1.018,1.26-1.81,2.211-2.378
					c0.952-0.567,2.07-0.853,3.354-0.853c0.863,0,1.669,0.139,2.416,0.414s1.4,0.688,1.96,1.24c0.56,0.551,0.996,1.242,1.308,2.074
					c0.312,0.833,0.469,1.807,0.469,2.92v0.996h-11.054v-2.25h7.637c0-0.521-0.114-0.984-0.341-1.389
					c-0.227-0.403-0.541-0.721-0.941-0.95c-0.401-0.229-0.865-0.345-1.394-0.345c-0.551,0-1.039,0.126-1.462,0.379
					s-0.754,0.591-0.993,1.014c-0.239,0.424-0.361,0.895-0.367,1.411v2.14c0,0.646,0.121,1.207,0.362,1.678
					c0.242,0.473,0.584,0.836,1.027,1.092c0.443,0.256,0.968,0.383,1.577,0.383c0.403,0,0.772-0.057,1.108-0.17
					c0.335-0.113,0.622-0.284,0.861-0.512c0.238-0.227,0.42-0.506,0.545-0.835l3.358,0.222c-0.17,0.807-0.519,1.51-1.044,2.109
					c-0.526,0.6-1.202,1.065-2.029,1.398C431.961,608.309,431.008,608.475,429.928,608.475z"/>
				<path class="st1" d="M438.306,608.219v-13.091h3.52v2.284h0.136c0.239-0.812,0.639-1.428,1.202-1.846s1.21-0.626,1.943-0.626
					c0.182,0,0.378,0.011,0.588,0.034c0.21,0.022,0.395,0.054,0.554,0.094v3.221c-0.17-0.051-0.406-0.096-0.708-0.136
					s-0.577-0.06-0.827-0.06c-0.534,0-1.01,0.115-1.428,0.346c-0.417,0.229-0.747,0.549-0.988,0.959
					c-0.242,0.408-0.362,0.88-0.362,1.414v7.406H438.306z"/>
				<path class="st1" d="M453.75,608.219v-17.455h6.989c1.284,0,2.355,0.191,3.213,0.572c0.858,0.38,1.503,0.906,1.935,1.58
					s0.648,1.447,0.648,2.322c0,0.682-0.137,1.28-0.409,1.795c-0.273,0.514-0.646,0.934-1.121,1.261
					c-0.475,0.327-1.016,0.558-1.624,0.694v0.171c0.665,0.028,1.288,0.216,1.871,0.562c0.582,0.347,1.055,0.831,1.419,1.453
					s0.545,1.362,0.545,2.22c0,0.927-0.229,1.752-0.686,2.477s-1.132,1.297-2.024,1.717c-0.892,0.421-1.992,0.631-3.298,0.631
					H453.75z M457.44,598.068h2.736c0.505,0,0.956-0.09,1.351-0.269s0.708-0.433,0.938-0.763s0.345-0.725,0.345-1.186
					c0-0.63-0.223-1.139-0.669-1.525c-0.446-0.386-1.078-0.579-1.896-0.579h-2.804V598.068z M457.44,605.201h3.008
					c1.028,0,1.778-0.197,2.25-0.592s0.708-0.922,0.708-1.581c0-0.483-0.117-0.909-0.35-1.278s-0.564-0.659-0.993-0.869
					c-0.429-0.211-0.939-0.315-1.53-0.315h-3.094V605.201z"/>
				<path class="st1" d="M475.457,608.475c-1.324,0-2.467-0.283-3.431-0.848c-0.963-0.566-1.706-1.355-2.229-2.369
					c-0.523-1.016-0.784-2.192-0.784-3.533c0-1.353,0.261-2.535,0.784-3.55c0.522-1.015,1.266-1.804,2.229-2.37
					c0.963-0.564,2.106-0.848,3.431-0.848c1.324,0,2.467,0.283,3.43,0.848c0.963,0.566,1.706,1.355,2.229,2.37
					c0.522,1.015,0.784,2.197,0.784,3.55c0,1.341-0.261,2.518-0.784,3.533c-0.523,1.014-1.266,1.803-2.229,2.369
					C477.924,608.191,476.78,608.475,475.457,608.475z M475.474,605.662c0.602,0,1.105-0.172,1.508-0.516s0.709-0.814,0.916-1.41
					c0.208-0.598,0.312-1.275,0.312-2.037s-0.104-1.441-0.312-2.037c-0.207-0.597-0.513-1.068-0.916-1.415s-0.906-0.521-1.508-0.521
					c-0.608,0-1.118,0.174-1.53,0.521c-0.412,0.347-0.722,0.818-0.929,1.415c-0.208,0.596-0.311,1.275-0.311,2.037
					s0.104,1.439,0.311,2.037c0.208,0.596,0.517,1.066,0.929,1.41C474.355,605.49,474.865,605.662,475.474,605.662z"/>
				<path class="st1" d="M491.232,595.128v2.728h-7.884v-2.728H491.232z M485.139,591.992h3.63v12.203
					c0,0.336,0.051,0.596,0.153,0.781c0.103,0.184,0.246,0.313,0.431,0.387c0.185,0.074,0.399,0.111,0.644,0.111
					c0.17,0,0.341-0.016,0.511-0.047s0.301-0.056,0.392-0.072l0.571,2.701c-0.182,0.057-0.438,0.123-0.767,0.201
					c-0.33,0.076-0.73,0.123-1.202,0.141c-0.875,0.033-1.641-0.083-2.297-0.35c-0.656-0.268-1.166-0.682-1.53-1.244
					s-0.542-1.273-0.537-2.131V591.992z"/>
				<path class="st1" d="M500.556,595.128v2.728h-7.884v-2.728H500.556z M494.462,591.992h3.63v12.203
					c0,0.336,0.051,0.596,0.153,0.781c0.103,0.184,0.246,0.313,0.431,0.387c0.185,0.074,0.399,0.111,0.644,0.111
					c0.17,0,0.341-0.016,0.511-0.047s0.301-0.056,0.392-0.072l0.571,2.701c-0.182,0.057-0.438,0.123-0.767,0.201
					c-0.33,0.076-0.73,0.123-1.202,0.141c-0.875,0.033-1.641-0.083-2.297-0.35c-0.656-0.268-1.166-0.682-1.53-1.244
					s-0.542-1.273-0.537-2.131V591.992z"/>
				<path class="st1" d="M506.82,590.764v17.455h-3.631v-17.455H506.82z"/>
				<path class="st1" d="M515.683,608.475c-1.346,0-2.504-0.274-3.473-0.822c-0.969-0.549-1.715-1.327-2.237-2.336
					c-0.523-1.008-0.784-2.203-0.784-3.584c0-1.346,0.261-2.527,0.784-3.545c0.522-1.018,1.26-1.81,2.211-2.378
					c0.952-0.567,2.07-0.853,3.354-0.853c0.863,0,1.669,0.139,2.416,0.414s1.4,0.688,1.96,1.24c0.56,0.551,0.996,1.242,1.308,2.074
					c0.312,0.833,0.469,1.807,0.469,2.92v0.996h-11.054v-2.25h7.637c0-0.521-0.114-0.984-0.341-1.389
					c-0.227-0.403-0.541-0.721-0.941-0.95c-0.401-0.229-0.865-0.345-1.394-0.345c-0.551,0-1.039,0.126-1.462,0.379
					s-0.754,0.591-0.993,1.014c-0.239,0.424-0.361,0.895-0.367,1.411v2.14c0,0.646,0.121,1.207,0.362,1.678
					c0.242,0.473,0.584,0.836,1.027,1.092c0.443,0.256,0.968,0.383,1.577,0.383c0.403,0,0.772-0.057,1.108-0.17
					c0.335-0.113,0.622-0.284,0.861-0.512c0.238-0.227,0.42-0.506,0.545-0.835l3.358,0.222c-0.17,0.807-0.519,1.51-1.044,2.109
					c-0.526,0.6-1.202,1.065-2.029,1.398C517.715,608.309,516.762,608.475,515.683,608.475z"/>
				<path class="st1" d="M537.782,599.611v2.881h-7.96v-2.881H537.782z"/>
				<path class="st1" d="M555.978,595.784c-0.068-0.688-0.361-1.222-0.878-1.603s-1.219-0.57-2.105-0.57
					c-0.603,0-1.111,0.084-1.526,0.251c-0.415,0.167-0.731,0.399-0.95,0.694c-0.219,0.296-0.328,0.631-0.328,1.006
					c-0.011,0.312,0.056,0.586,0.2,0.818c0.145,0.232,0.345,0.434,0.601,0.601c0.256,0.168,0.551,0.312,0.886,0.435
					c0.335,0.123,0.693,0.227,1.074,0.311l1.568,0.375c0.761,0.172,1.46,0.398,2.097,0.683s1.188,0.634,1.653,1.048
					c0.466,0.415,0.828,0.904,1.087,1.467c0.258,0.562,0.391,1.207,0.396,1.934c-0.005,1.068-0.277,1.994-0.814,2.775
					c-0.537,0.781-1.31,1.386-2.318,1.814c-1.009,0.43-2.223,0.644-3.644,0.644c-1.409,0-2.635-0.216-3.678-0.647
					s-1.855-1.072-2.438-1.922s-0.888-1.902-0.916-3.158h3.571c0.04,0.586,0.209,1.072,0.507,1.462s0.699,0.683,1.202,0.878
					s1.072,0.294,1.709,0.294c0.625,0,1.169-0.091,1.632-0.272s0.823-0.436,1.078-0.759c0.256-0.323,0.384-0.696,0.384-1.116
					c0-0.393-0.115-0.722-0.345-0.988c-0.23-0.268-0.565-0.494-1.006-0.682s-0.979-0.359-1.615-0.512l-1.9-0.478
					c-1.472-0.358-2.633-0.917-3.486-1.679c-0.852-0.762-1.275-1.787-1.27-3.077c-0.005-1.057,0.277-1.979,0.848-2.771
					c0.571-0.789,1.356-1.406,2.356-1.849c1-0.443,2.136-0.665,3.409-0.665c1.295,0,2.428,0.222,3.396,0.665
					c0.969,0.442,1.723,1.06,2.263,1.849c0.54,0.791,0.818,1.705,0.835,2.745H555.978z"/>
				<path class="st1" d="M563.989,593.44c-0.54,0-1.003-0.179-1.389-0.537c-0.387-0.358-0.58-0.79-0.58-1.296
					c0-0.505,0.193-0.938,0.58-1.299c0.386-0.361,0.847-0.541,1.38-0.541c0.546,0,1.01,0.178,1.394,0.537
					c0.384,0.357,0.575,0.789,0.575,1.295s-0.191,0.939-0.575,1.299C564.99,593.26,564.529,593.44,563.989,593.44z M562.157,608.219
					v-13.091h3.63v13.091H562.157z"/>
				<path class="st1" d="M572.316,600.65v7.568h-3.631v-13.091h3.46v2.31h0.153c0.289-0.762,0.775-1.365,1.457-1.811
					c0.682-0.446,1.509-0.67,2.48-0.67c0.909,0,1.701,0.199,2.378,0.598c0.676,0.396,1.202,0.964,1.577,1.699
					c0.375,0.736,0.562,1.613,0.562,2.629v8.336h-3.631v-7.688c0.006-0.801-0.199-1.428-0.613-1.879
					c-0.416-0.452-0.986-0.678-1.714-0.678c-0.489,0-0.919,0.105-1.291,0.314c-0.372,0.211-0.662,0.516-0.87,0.917
					C572.428,599.606,572.321,600.088,572.316,600.65z"/>
				<path class="st1" d="M589.506,613.4c-1.176,0-2.184-0.16-3.021-0.481s-1.504-0.757-1.998-1.308
					c-0.494-0.552-0.816-1.171-0.963-1.858l3.357-0.452c0.102,0.262,0.264,0.506,0.486,0.733c0.221,0.228,0.516,0.41,0.881,0.55
					c0.367,0.139,0.814,0.209,1.343,0.209c0.79,0,1.442-0.191,1.956-0.576c0.514-0.383,0.771-1.023,0.771-1.922V605.9h-0.153
					c-0.159,0.363-0.397,0.707-0.716,1.031s-0.728,0.588-1.228,0.793s-1.097,0.307-1.79,0.307c-0.982,0-1.876-0.229-2.68-0.686
					c-0.805-0.458-1.443-1.16-1.918-2.105c-0.475-0.946-0.712-2.144-0.712-3.592c0-1.484,0.241-2.723,0.725-3.717
					s1.126-1.738,1.931-2.232c0.804-0.494,1.686-0.742,2.646-0.742c0.732,0,1.346,0.124,1.84,0.371
					c0.495,0.247,0.895,0.555,1.198,0.92c0.304,0.367,0.538,0.727,0.703,1.078h0.136v-2.198h3.605v13.219
					c0,1.113-0.272,2.046-0.818,2.796c-0.545,0.75-1.299,1.313-2.263,1.691C591.862,613.211,590.756,613.4,589.506,613.4z
					 M589.582,605.305c0.586,0,1.082-0.146,1.488-0.439s0.719-0.713,0.938-1.262c0.219-0.548,0.328-1.205,0.328-1.973
					s-0.108-1.434-0.324-1.998c-0.217-0.566-0.529-1.005-0.938-1.317c-0.409-0.312-0.906-0.469-1.492-0.469
					c-0.596,0-1.1,0.161-1.508,0.481c-0.409,0.321-0.719,0.766-0.93,1.334c-0.21,0.568-0.314,1.225-0.314,1.969
					c0,0.756,0.105,1.408,0.319,1.955c0.213,0.549,0.522,0.973,0.929,1.271S588.986,605.305,589.582,605.305z"/>
				<path class="st1" d="M602.435,590.764v17.455h-3.631v-17.455H602.435z"/>
				<path class="st1" d="M611.298,608.475c-1.347,0-2.504-0.274-3.473-0.822c-0.969-0.549-1.715-1.327-2.237-2.336
					c-0.523-1.008-0.784-2.203-0.784-3.584c0-1.346,0.261-2.527,0.784-3.545c0.522-1.018,1.26-1.81,2.211-2.378
					c0.952-0.567,2.07-0.853,3.354-0.853c0.863,0,1.669,0.139,2.416,0.414s1.4,0.688,1.96,1.24c0.561,0.551,0.996,1.242,1.309,2.074
					c0.312,0.833,0.469,1.807,0.469,2.92v0.996h-11.055v-2.25h7.637c0-0.521-0.113-0.984-0.341-1.389
					c-0.228-0.403-0.541-0.721-0.941-0.95c-0.401-0.229-0.865-0.345-1.394-0.345c-0.551,0-1.039,0.126-1.462,0.379
					s-0.754,0.591-0.993,1.014c-0.238,0.424-0.36,0.895-0.366,1.411v2.14c0,0.646,0.121,1.207,0.362,1.678
					c0.242,0.473,0.584,0.836,1.027,1.092s0.969,0.383,1.576,0.383c0.404,0,0.773-0.057,1.108-0.17s0.622-0.284,0.86-0.512
					c0.238-0.227,0.421-0.506,0.546-0.835l3.358,0.222c-0.171,0.807-0.52,1.51-1.045,2.109s-1.201,1.065-2.028,1.398
					C613.33,608.309,612.377,608.475,611.298,608.475z"/>
				<path class="st1" d="M627.832,599.611v2.881h-7.96v-2.881H627.832z"/>
				<path class="st1" d="M641.775,590.764h3.69V602.1c0,1.272-0.303,2.387-0.907,3.341c-0.605,0.954-1.451,1.697-2.536,2.229
					s-2.35,0.797-3.792,0.797c-1.449,0-2.717-0.266-3.802-0.797s-1.929-1.274-2.531-2.229s-0.903-2.068-0.903-3.341v-11.336h3.69
					v11.021c0,0.665,0.146,1.256,0.438,1.772c0.293,0.518,0.706,0.924,1.24,1.219c0.534,0.296,1.156,0.443,1.867,0.443
					c0.715,0,1.339-0.147,1.87-0.443c0.531-0.295,0.943-0.701,1.235-1.219c0.293-0.517,0.439-1.107,0.439-1.772V590.764z"/>
				<path class="st1" d="M659.323,598.861L656,599.065c-0.058-0.284-0.18-0.542-0.367-0.771s-0.434-0.415-0.736-0.554
					c-0.305-0.139-0.667-0.209-1.088-0.209c-0.562,0-1.037,0.118-1.423,0.354c-0.386,0.236-0.579,0.55-0.579,0.941
					c0,0.312,0.125,0.577,0.375,0.793c0.25,0.217,0.679,0.39,1.287,0.52l2.369,0.479c1.272,0.261,2.221,0.682,2.846,1.261
					s0.938,1.341,0.938,2.284c0,0.857-0.251,1.611-0.754,2.258c-0.502,0.648-1.19,1.152-2.062,1.514
					c-0.872,0.36-1.877,0.541-3.013,0.541c-1.733,0-3.112-0.362-4.138-1.087c-1.025-0.724-1.627-1.712-1.803-2.962l3.571-0.188
					c0.108,0.529,0.369,0.931,0.784,1.207c0.414,0.275,0.945,0.412,1.594,0.412c0.637,0,1.148-0.123,1.538-0.37
					s0.587-0.567,0.593-0.959c-0.006-0.329-0.145-0.601-0.418-0.813s-0.693-0.377-1.262-0.49l-2.267-0.451
					c-1.278-0.256-2.229-0.699-2.851-1.33c-0.623-0.631-0.934-1.435-0.934-2.412c0-0.841,0.229-1.565,0.686-2.174
					c0.458-0.607,1.103-1.076,1.936-1.406c0.832-0.329,1.808-0.494,2.928-0.494c1.652,0,2.955,0.35,3.907,1.049
					S659.164,597.656,659.323,598.861z"/>
				<path class="st1" d="M667.88,608.475c-1.347,0-2.504-0.274-3.473-0.822c-0.969-0.549-1.715-1.327-2.237-2.336
					c-0.523-1.008-0.784-2.203-0.784-3.584c0-1.346,0.261-2.527,0.784-3.545c0.522-1.018,1.26-1.81,2.211-2.378
					c0.952-0.567,2.07-0.853,3.354-0.853c0.863,0,1.669,0.139,2.416,0.414s1.4,0.688,1.96,1.24c0.561,0.551,0.996,1.242,1.309,2.074
					c0.312,0.833,0.469,1.807,0.469,2.92v0.996h-11.055v-2.25h7.637c0-0.521-0.113-0.984-0.341-1.389
					c-0.228-0.403-0.541-0.721-0.941-0.95c-0.401-0.229-0.865-0.345-1.394-0.345c-0.551,0-1.039,0.126-1.462,0.379
					s-0.754,0.591-0.993,1.014c-0.238,0.424-0.36,0.895-0.366,1.411v2.14c0,0.646,0.121,1.207,0.362,1.678
					c0.242,0.473,0.584,0.836,1.027,1.092s0.969,0.383,1.576,0.383c0.404,0,0.773-0.057,1.108-0.17s0.622-0.284,0.86-0.512
					c0.238-0.227,0.421-0.506,0.546-0.835l3.358,0.222c-0.171,0.807-0.52,1.51-1.045,2.109s-1.201,1.065-2.028,1.398
					C669.912,608.309,668.959,608.475,667.88,608.475z"/>
			</g>
		</g>
	</g>
	<g id="MTEXT_00000083056424172285877120000001325369877672457100_">
		<g>
			<g>
				<path class="st1" d="M94.726,596.875h-3.733c-0.068-0.482-0.208-0.913-0.417-1.291c-0.21-0.378-0.48-0.7-0.81-0.967
					c-0.33-0.268-0.709-0.473-1.138-0.614c-0.429-0.142-0.894-0.214-1.394-0.214c-0.903,0-1.69,0.224-2.361,0.67
					c-0.67,0.445-1.19,1.094-1.56,1.943c-0.37,0.85-0.554,1.879-0.554,3.09c0,1.244,0.186,2.289,0.558,3.136
					s0.894,1.485,1.564,1.917c0.67,0.433,1.446,0.648,2.327,0.648c0.495,0,0.953-0.065,1.376-0.196
					c0.423-0.13,0.8-0.322,1.129-0.575s0.604-0.561,0.822-0.925c0.219-0.363,0.371-0.778,0.456-1.244l3.733,0.017
					c-0.097,0.801-0.336,1.572-0.72,2.314c-0.383,0.741-0.897,1.403-1.542,1.986c-0.645,0.582-1.412,1.042-2.301,1.38
					s-1.894,0.507-3.013,0.507c-1.557,0-2.947-0.352-4.172-1.057c-1.225-0.704-2.19-1.725-2.897-3.06
					c-0.708-1.335-1.061-2.952-1.061-4.849c0-1.904,0.358-3.523,1.074-4.859c0.716-1.334,1.688-2.354,2.915-3.055
					c1.228-0.701,2.608-1.053,4.142-1.053c1.011,0,1.95,0.143,2.817,0.426c0.866,0.285,1.635,0.698,2.305,1.24
					c0.67,0.543,1.217,1.207,1.641,1.99C94.335,594.966,94.606,595.863,94.726,596.875z"/>
				<path class="st1" d="M101.041,608.466c-0.835,0-1.58-0.146-2.233-0.438c-0.653-0.293-1.169-0.728-1.547-1.305
					c-0.378-0.576-0.566-1.297-0.566-2.16c0-0.727,0.133-1.338,0.4-1.832s0.631-0.893,1.091-1.193
					c0.46-0.301,0.984-0.529,1.572-0.682c0.588-0.154,1.206-0.262,1.854-0.324c0.761-0.08,1.375-0.154,1.841-0.227
					c0.466-0.07,0.804-0.177,1.014-0.318c0.21-0.143,0.315-0.353,0.315-0.631v-0.051c0-0.541-0.169-0.958-0.507-1.254
					c-0.338-0.295-0.817-0.443-1.436-0.443c-0.653,0-1.173,0.145-1.56,0.432c-0.386,0.286-0.642,0.646-0.767,1.078l-3.358-0.273
					c0.17-0.795,0.506-1.484,1.006-2.066s1.146-1.031,1.939-1.348c0.792-0.314,1.711-0.473,2.757-0.473
					c0.728,0,1.425,0.086,2.092,0.256s1.262,0.436,1.781,0.793c0.52,0.357,0.931,0.816,1.231,1.377
					c0.301,0.559,0.452,1.229,0.452,2.006v8.83h-3.443v-1.815h-0.103c-0.21,0.409-0.491,0.769-0.844,1.078
					c-0.352,0.31-0.775,0.552-1.27,0.725C102.259,608.379,101.688,608.466,101.041,608.466z M102.081,605.961
					c0.534,0,1.005-0.107,1.415-0.32s0.73-0.502,0.963-0.865c0.233-0.363,0.349-0.775,0.349-1.236v-1.389
					c-0.114,0.074-0.269,0.141-0.464,0.201c-0.196,0.059-0.417,0.113-0.661,0.161s-0.489,0.091-0.733,0.128s-0.466,0.07-0.665,0.098
					c-0.426,0.062-0.798,0.162-1.117,0.299s-0.565,0.319-0.741,0.549c-0.176,0.23-0.264,0.516-0.264,0.857
					c0,0.494,0.18,0.871,0.541,1.129C101.065,605.831,101.523,605.961,102.081,605.961z"/>
				<path class="st1" d="M114.865,600.65v7.568h-3.631v-13.091h3.46v2.31h0.153c0.29-0.762,0.775-1.365,1.458-1.811
					c0.682-0.446,1.508-0.67,2.48-0.67c0.909,0,1.702,0.199,2.378,0.598c0.676,0.396,1.202,0.964,1.577,1.699
					c0.375,0.736,0.562,1.613,0.562,2.629v8.336h-3.631v-7.688c0.006-0.801-0.199-1.428-0.613-1.879
					c-0.415-0.452-0.986-0.678-1.713-0.678c-0.489,0-0.919,0.105-1.291,0.314c-0.372,0.211-0.662,0.516-0.87,0.917
					C114.977,599.606,114.87,600.088,114.865,600.65z"/>
				<path class="st1" d="M133.12,595.128v2.728h-7.884v-2.728H133.12z M127.026,591.992h3.63v12.203
					c0,0.336,0.051,0.596,0.153,0.781c0.103,0.184,0.246,0.313,0.431,0.387c0.185,0.074,0.399,0.111,0.644,0.111
					c0.17,0,0.341-0.016,0.511-0.047s0.301-0.056,0.392-0.072l0.571,2.701c-0.182,0.057-0.438,0.123-0.767,0.201
					c-0.33,0.076-0.73,0.123-1.202,0.141c-0.875,0.033-1.641-0.083-2.297-0.35c-0.656-0.268-1.166-0.682-1.53-1.244
					s-0.542-1.273-0.537-2.131V591.992z"/>
				<path class="st1" d="M141.31,608.475c-1.346,0-2.504-0.274-3.473-0.822c-0.969-0.549-1.715-1.327-2.237-2.336
					c-0.523-1.008-0.784-2.203-0.784-3.584c0-1.346,0.261-2.527,0.784-3.545c0.522-1.018,1.26-1.81,2.211-2.378
					c0.952-0.567,2.07-0.853,3.354-0.853c0.863,0,1.669,0.139,2.416,0.414s1.4,0.688,1.96,1.24c0.56,0.551,0.996,1.242,1.308,2.074
					c0.312,0.833,0.469,1.807,0.469,2.92v0.996h-11.054v-2.25h7.637c0-0.521-0.114-0.984-0.341-1.389
					c-0.227-0.403-0.541-0.721-0.941-0.95c-0.401-0.229-0.865-0.345-1.394-0.345c-0.551,0-1.039,0.126-1.462,0.379
					s-0.754,0.591-0.993,1.014c-0.239,0.424-0.361,0.895-0.367,1.411v2.14c0,0.646,0.121,1.207,0.362,1.678
					c0.242,0.473,0.584,0.836,1.027,1.092c0.443,0.256,0.968,0.383,1.577,0.383c0.403,0,0.772-0.057,1.108-0.17
					c0.335-0.113,0.622-0.284,0.861-0.512c0.238-0.227,0.42-0.506,0.545-0.835l3.358,0.222c-0.17,0.807-0.519,1.51-1.044,2.109
					c-0.526,0.6-1.202,1.065-2.029,1.398C143.343,608.309,142.39,608.475,141.31,608.475z"/>
				<path class="st1" d="M155.654,608.475c-1.346,0-2.504-0.274-3.473-0.822c-0.969-0.549-1.715-1.327-2.237-2.336
					c-0.523-1.008-0.784-2.203-0.784-3.584c0-1.346,0.261-2.527,0.784-3.545c0.522-1.018,1.26-1.81,2.211-2.378
					c0.952-0.567,2.07-0.853,3.354-0.853c0.863,0,1.669,0.139,2.416,0.414s1.4,0.688,1.96,1.24c0.56,0.551,0.996,1.242,1.308,2.074
					c0.312,0.833,0.469,1.807,0.469,2.92v0.996h-11.054v-2.25h7.637c0-0.521-0.114-0.984-0.341-1.389
					c-0.227-0.403-0.541-0.721-0.941-0.95c-0.401-0.229-0.865-0.345-1.394-0.345c-0.551,0-1.039,0.126-1.462,0.379
					s-0.754,0.591-0.993,1.014c-0.239,0.424-0.361,0.895-0.367,1.411v2.14c0,0.646,0.121,1.207,0.362,1.678
					c0.242,0.473,0.584,0.836,1.027,1.092c0.443,0.256,0.968,0.383,1.577,0.383c0.403,0,0.772-0.057,1.108-0.17
					c0.335-0.113,0.622-0.284,0.861-0.512c0.238-0.227,0.42-0.506,0.545-0.835l3.358,0.222c-0.17,0.807-0.519,1.51-1.044,2.109
					c-0.526,0.6-1.202,1.065-2.029,1.398C157.687,608.309,156.733,608.475,155.654,608.475z"/>
				<path class="st1" d="M167.663,600.65v7.568h-3.631v-13.091h3.46v2.31h0.153c0.29-0.762,0.775-1.365,1.458-1.811
					c0.682-0.446,1.508-0.67,2.48-0.67c0.909,0,1.702,0.199,2.378,0.598c0.676,0.396,1.202,0.964,1.577,1.699
					c0.375,0.736,0.562,1.613,0.562,2.629v8.336h-3.631v-7.688c0.006-0.801-0.199-1.428-0.613-1.879
					c-0.415-0.452-0.986-0.678-1.713-0.678c-0.489,0-0.919,0.105-1.291,0.314c-0.372,0.211-0.662,0.516-0.87,0.917
					C167.775,599.606,167.668,600.088,167.663,600.65z"/>
				<path class="st1" d="M192.676,599.611v2.881h-7.96v-2.881H192.676z"/>
				<path class="st1" d="M201.404,590.764h4.551l4.807,11.729h0.205l4.807-11.729h4.551v17.455h-3.58v-11.361H216.6l-4.517,11.275
					h-2.438l-4.517-11.317h-0.145v11.403h-3.58V590.764z"/>
				<path class="st1" d="M225.122,593.44c-0.54,0-1.003-0.179-1.389-0.537c-0.387-0.358-0.58-0.79-0.58-1.296
					c0-0.505,0.193-0.938,0.58-1.299c0.386-0.361,0.847-0.541,1.381-0.541c0.545,0,1.01,0.178,1.393,0.537
					c0.384,0.357,0.576,0.789,0.576,1.295s-0.192,0.939-0.576,1.299C226.124,593.26,225.662,593.44,225.122,593.44z M223.29,608.219
					v-13.091h3.631v13.091H223.29z"/>
				<path class="st1" d="M233.449,590.764v17.455h-3.631v-17.455H233.449z"/>
				<path class="st1" d="M238.179,593.44c-0.54,0-1.003-0.179-1.389-0.537c-0.387-0.358-0.58-0.79-0.58-1.296
					c0-0.505,0.193-0.938,0.58-1.299c0.386-0.361,0.847-0.541,1.381-0.541c0.545,0,1.01,0.178,1.393,0.537
					c0.384,0.357,0.576,0.789,0.576,1.295s-0.192,0.939-0.576,1.299C239.18,593.26,238.718,593.44,238.179,593.44z M236.346,608.219
					v-13.091h3.631v13.091H236.346z"/>
				<path class="st1" d="M249.837,595.128v2.728h-7.884v-2.728H249.837z M243.744,591.992h3.63v12.203
					c0,0.336,0.051,0.596,0.153,0.781c0.103,0.184,0.246,0.313,0.431,0.387c0.185,0.074,0.399,0.111,0.644,0.111
					c0.17,0,0.341-0.016,0.511-0.047s0.301-0.056,0.392-0.072l0.571,2.701c-0.182,0.057-0.438,0.123-0.767,0.201
					c-0.33,0.076-0.73,0.123-1.202,0.141c-0.875,0.033-1.641-0.083-2.297-0.35c-0.656-0.268-1.166-0.682-1.53-1.244
					s-0.542-1.273-0.537-2.131V591.992z"/>
				<path class="st1" d="M255.931,608.466c-0.835,0-1.58-0.146-2.233-0.438c-0.653-0.293-1.169-0.728-1.547-1.305
					c-0.378-0.576-0.566-1.297-0.566-2.16c0-0.727,0.133-1.338,0.4-1.832s0.631-0.893,1.091-1.193
					c0.46-0.301,0.984-0.529,1.572-0.682c0.588-0.154,1.206-0.262,1.854-0.324c0.761-0.08,1.375-0.154,1.841-0.227
					c0.466-0.07,0.804-0.177,1.014-0.318c0.21-0.143,0.315-0.353,0.315-0.631v-0.051c0-0.541-0.169-0.958-0.507-1.254
					c-0.338-0.295-0.817-0.443-1.436-0.443c-0.653,0-1.173,0.145-1.56,0.432c-0.386,0.286-0.642,0.646-0.767,1.078l-3.358-0.273
					c0.17-0.795,0.506-1.484,1.006-2.066s1.146-1.031,1.939-1.348c0.792-0.314,1.711-0.473,2.757-0.473
					c0.728,0,1.425,0.086,2.092,0.256s1.262,0.436,1.781,0.793c0.52,0.357,0.931,0.816,1.231,1.377
					c0.301,0.559,0.452,1.229,0.452,2.006v8.83h-3.443v-1.815h-0.103c-0.21,0.409-0.491,0.769-0.844,1.078
					c-0.352,0.31-0.775,0.552-1.27,0.725C257.149,608.379,256.579,608.466,255.931,608.466z M256.971,605.961
					c0.534,0,1.005-0.107,1.415-0.32s0.73-0.502,0.963-0.865c0.233-0.363,0.349-0.775,0.349-1.236v-1.389
					c-0.114,0.074-0.269,0.141-0.464,0.201c-0.196,0.059-0.417,0.113-0.661,0.161s-0.489,0.091-0.733,0.128s-0.466,0.07-0.665,0.098
					c-0.426,0.062-0.798,0.162-1.117,0.299s-0.565,0.319-0.741,0.549c-0.176,0.23-0.264,0.516-0.264,0.857
					c0,0.494,0.18,0.871,0.541,1.129C255.955,605.831,256.414,605.961,256.971,605.961z"/>
				<path class="st1" d="M266.124,608.219v-13.091h3.52v2.284h0.136c0.239-0.812,0.639-1.428,1.202-1.846s1.21-0.626,1.943-0.626
					c0.182,0,0.378,0.011,0.588,0.034c0.21,0.022,0.395,0.054,0.554,0.094v3.221c-0.17-0.051-0.406-0.096-0.708-0.136
					s-0.577-0.06-0.827-0.06c-0.534,0-1.01,0.115-1.428,0.346c-0.417,0.229-0.747,0.549-0.988,0.959
					c-0.242,0.408-0.362,0.88-0.362,1.414v7.406H266.124z"/>
				<path class="st1" d="M278.584,613.128c-0.46,0-0.891-0.036-1.292-0.106c-0.4-0.071-0.731-0.16-0.993-0.269l0.818-2.71
					c0.426,0.131,0.811,0.201,1.155,0.213s0.642-0.068,0.895-0.238c0.253-0.171,0.459-0.461,0.618-0.869l0.213-0.555l-4.696-13.466
					h3.818l2.71,9.614h0.136l2.736-9.614l3.844,0.017l-5.088,14.488c-0.245,0.705-0.575,1.32-0.993,1.846
					c-0.417,0.525-0.944,0.932-1.581,1.219C280.249,612.984,279.481,613.128,278.584,613.128z"/>
			</g>
		</g>
	</g>
	<g id="MTEXT_00000051384411030177436740000006899592004021818551_">
		<g>
			<g>
				<path class="st1" d="M727.25,608.219l-4.994-17.455h4.031l2.889,12.129h0.145l3.188-12.129h3.452l3.179,12.154h0.154
					l2.889-12.154h4.031l-4.994,17.455h-3.597l-3.324-11.412h-0.136l-3.316,11.412H727.25z"/>
				<path class="st1" d="M750.432,608.466c-0.836,0-1.58-0.146-2.233-0.438c-0.653-0.293-1.169-0.728-1.547-1.305
					c-0.378-0.576-0.566-1.297-0.566-2.16c0-0.727,0.134-1.338,0.4-1.832s0.631-0.893,1.091-1.193
					c0.461-0.301,0.984-0.529,1.572-0.682c0.588-0.154,1.206-0.262,1.854-0.324c0.762-0.08,1.375-0.154,1.842-0.227
					c0.465-0.07,0.803-0.177,1.014-0.318c0.21-0.143,0.315-0.353,0.315-0.631v-0.051c0-0.541-0.169-0.958-0.507-1.254
					c-0.338-0.295-0.817-0.443-1.437-0.443c-0.653,0-1.173,0.145-1.56,0.432c-0.387,0.286-0.643,0.646-0.768,1.078l-3.357-0.273
					c0.17-0.795,0.506-1.484,1.006-2.066s1.146-1.031,1.939-1.348c0.792-0.314,1.711-0.473,2.756-0.473
					c0.729,0,1.426,0.086,2.093,0.256s1.262,0.436,1.781,0.793c0.521,0.357,0.931,0.816,1.231,1.377
					c0.301,0.559,0.452,1.229,0.452,2.006v8.83h-3.443v-1.815h-0.103c-0.21,0.409-0.491,0.769-0.844,1.078
					c-0.352,0.31-0.775,0.552-1.27,0.725S751.079,608.466,750.432,608.466z M751.471,605.961c0.534,0,1.006-0.107,1.415-0.32
					s0.729-0.502,0.964-0.865c0.232-0.363,0.349-0.775,0.349-1.236v-1.389c-0.114,0.074-0.269,0.141-0.464,0.201
					c-0.196,0.059-0.417,0.113-0.661,0.161s-0.489,0.091-0.733,0.128s-0.465,0.07-0.664,0.098c-0.426,0.062-0.799,0.162-1.117,0.299
					s-0.564,0.319-0.74,0.549c-0.177,0.23-0.265,0.516-0.265,0.857c0,0.494,0.181,0.871,0.541,1.129
					C750.455,605.831,750.914,605.961,751.471,605.961z"/>
				<path class="st1" d="M767.588,595.128v2.728h-7.884v-2.728H767.588z M761.494,591.992h3.631v12.203
					c0,0.336,0.051,0.596,0.152,0.781c0.104,0.184,0.246,0.313,0.432,0.387c0.184,0.074,0.398,0.111,0.643,0.111
					c0.171,0,0.342-0.016,0.512-0.047s0.301-0.056,0.393-0.072l0.57,2.701c-0.182,0.057-0.438,0.123-0.768,0.201
					c-0.329,0.076-0.729,0.123-1.201,0.141c-0.875,0.033-1.641-0.083-2.297-0.35c-0.656-0.268-1.166-0.682-1.529-1.244
					c-0.364-0.562-0.543-1.273-0.537-2.131V591.992z"/>
				<path class="st1" d="M775.777,608.475c-1.346,0-2.504-0.274-3.473-0.822c-0.969-0.549-1.715-1.327-2.236-2.336
					c-0.523-1.008-0.785-2.203-0.785-3.584c0-1.346,0.262-2.527,0.785-3.545c0.521-1.018,1.26-1.81,2.211-2.378
					c0.951-0.567,2.07-0.853,3.354-0.853c0.863,0,1.67,0.139,2.416,0.414c0.748,0.275,1.4,0.688,1.961,1.24
					c0.56,0.551,0.996,1.242,1.309,2.074c0.312,0.833,0.469,1.807,0.469,2.92v0.996h-11.055v-2.25h7.637
					c0-0.521-0.113-0.984-0.342-1.389c-0.227-0.403-0.541-0.721-0.941-0.95s-0.865-0.345-1.393-0.345
					c-0.552,0-1.039,0.126-1.463,0.379c-0.423,0.253-0.754,0.591-0.992,1.014c-0.238,0.424-0.361,0.895-0.367,1.411v2.14
					c0,0.646,0.121,1.207,0.363,1.678c0.241,0.473,0.584,0.836,1.027,1.092c0.442,0.256,0.968,0.383,1.576,0.383
					c0.403,0,0.772-0.057,1.107-0.17c0.336-0.113,0.623-0.284,0.861-0.512c0.238-0.227,0.42-0.506,0.545-0.835l3.358,0.222
					c-0.171,0.807-0.519,1.51-1.044,2.109s-1.201,1.065-2.029,1.398C777.811,608.309,776.857,608.475,775.777,608.475z"/>
				<path class="st1" d="M784.156,608.219v-13.091h3.52v2.284h0.137c0.238-0.812,0.639-1.428,1.201-1.846s1.211-0.626,1.943-0.626
					c0.182,0,0.378,0.011,0.588,0.034c0.211,0.022,0.395,0.054,0.555,0.094v3.221c-0.171-0.051-0.406-0.096-0.708-0.136
					s-0.577-0.06-0.827-0.06c-0.533,0-1.01,0.115-1.428,0.346c-0.417,0.229-0.746,0.549-0.988,0.959
					c-0.241,0.408-0.361,0.88-0.361,1.414v7.406H784.156z"/>
				<path class="st1" d="M799.599,608.219v-17.455h6.989c1.283,0,2.354,0.191,3.213,0.572c0.857,0.38,1.502,0.906,1.934,1.58
					s0.648,1.447,0.648,2.322c0,0.682-0.137,1.28-0.409,1.795c-0.272,0.514-0.646,0.934-1.12,1.261
					c-0.475,0.327-1.016,0.558-1.624,0.694v0.171c0.665,0.028,1.288,0.216,1.87,0.562s1.056,0.831,1.42,1.453
					c0.363,0.622,0.545,1.362,0.545,2.22c0,0.927-0.229,1.752-0.686,2.477c-0.458,0.725-1.133,1.297-2.024,1.717
					c-0.892,0.421-1.991,0.631-3.298,0.631H799.599z M803.289,598.068h2.736c0.505,0,0.955-0.09,1.35-0.269
					c0.396-0.179,0.708-0.433,0.938-0.763c0.23-0.33,0.346-0.725,0.346-1.186c0-0.63-0.223-1.139-0.669-1.525
					c-0.446-0.386-1.078-0.579-1.896-0.579h-2.804V598.068z M803.289,605.201h3.008c1.029,0,1.779-0.197,2.25-0.592
					c0.473-0.395,0.708-0.922,0.708-1.581c0-0.483-0.116-0.909-0.35-1.278s-0.563-0.659-0.993-0.869
					c-0.429-0.211-0.938-0.315-1.529-0.315h-3.094V605.201z"/>
				<path class="st1" d="M821.306,608.475c-1.324,0-2.468-0.283-3.431-0.848c-0.963-0.566-1.706-1.355-2.229-2.369
					c-0.523-1.016-0.784-2.192-0.784-3.533c0-1.353,0.261-2.535,0.784-3.55c0.522-1.015,1.266-1.804,2.229-2.37
					c0.963-0.564,2.106-0.848,3.431-0.848c1.323,0,2.468,0.283,3.431,0.848c0.963,0.566,1.705,1.355,2.229,2.37
					c0.522,1.015,0.783,2.197,0.783,3.55c0,1.341-0.261,2.518-0.783,3.533c-0.523,1.014-1.266,1.803-2.229,2.369
					C823.773,608.191,822.629,608.475,821.306,608.475z M821.322,605.662c0.603,0,1.105-0.172,1.509-0.516s0.709-0.814,0.916-1.41
					c0.208-0.598,0.312-1.275,0.312-2.037s-0.104-1.441-0.312-2.037c-0.207-0.597-0.513-1.068-0.916-1.415s-0.906-0.521-1.509-0.521
					c-0.607,0-1.117,0.174-1.529,0.521s-0.722,0.818-0.93,1.415c-0.207,0.596-0.311,1.275-0.311,2.037s0.104,1.439,0.311,2.037
					c0.208,0.596,0.518,1.066,0.93,1.41S820.715,605.662,821.322,605.662z"/>
				<path class="st1" d="M837.081,595.128v2.728h-7.884v-2.728H837.081z M830.987,591.992h3.63v12.203
					c0,0.336,0.052,0.596,0.154,0.781c0.102,0.184,0.246,0.313,0.43,0.387c0.186,0.074,0.399,0.111,0.645,0.111
					c0.17,0,0.34-0.016,0.511-0.047s0.302-0.056,0.392-0.072l0.571,2.701c-0.182,0.057-0.438,0.123-0.767,0.201
					c-0.33,0.076-0.73,0.123-1.202,0.141c-0.875,0.033-1.641-0.083-2.297-0.35c-0.656-0.268-1.166-0.682-1.53-1.244
					c-0.363-0.562-0.542-1.273-0.536-2.131V591.992z"/>
				<path class="st1" d="M846.405,595.128v2.728h-7.884v-2.728H846.405z M840.312,591.992h3.63v12.203
					c0,0.336,0.052,0.596,0.154,0.781c0.102,0.184,0.246,0.313,0.43,0.387c0.186,0.074,0.399,0.111,0.645,0.111
					c0.17,0,0.34-0.016,0.511-0.047s0.302-0.056,0.392-0.072l0.571,2.701c-0.182,0.057-0.438,0.123-0.767,0.201
					c-0.33,0.076-0.73,0.123-1.202,0.141c-0.875,0.033-1.641-0.083-2.297-0.35c-0.656-0.268-1.166-0.682-1.53-1.244
					c-0.363-0.562-0.542-1.273-0.536-2.131V591.992z"/>
				<path class="st1" d="M852.668,590.764v17.455h-3.631v-17.455H852.668z"/>
				<path class="st1" d="M861.531,608.475c-1.346,0-2.504-0.274-3.473-0.822c-0.969-0.549-1.715-1.327-2.236-2.336
					c-0.523-1.008-0.785-2.203-0.785-3.584c0-1.346,0.262-2.527,0.785-3.545c0.521-1.018,1.26-1.81,2.211-2.378
					c0.951-0.567,2.07-0.853,3.354-0.853c0.863,0,1.67,0.139,2.416,0.414c0.748,0.275,1.4,0.688,1.961,1.24
					c0.56,0.551,0.996,1.242,1.309,2.074c0.312,0.833,0.469,1.807,0.469,2.92v0.996h-11.055v-2.25h7.637
					c0-0.521-0.113-0.984-0.342-1.389c-0.227-0.403-0.541-0.721-0.941-0.95s-0.865-0.345-1.393-0.345
					c-0.552,0-1.039,0.126-1.463,0.379c-0.423,0.253-0.754,0.591-0.992,1.014c-0.238,0.424-0.361,0.895-0.367,1.411v2.14
					c0,0.646,0.121,1.207,0.363,1.678c0.241,0.473,0.584,0.836,1.027,1.092c0.442,0.256,0.968,0.383,1.576,0.383
					c0.403,0,0.772-0.057,1.107-0.17c0.336-0.113,0.623-0.284,0.861-0.512c0.238-0.227,0.42-0.506,0.545-0.835l3.358,0.222
					c-0.171,0.807-0.519,1.51-1.044,2.109s-1.201,1.065-2.029,1.398C863.564,608.309,862.611,608.475,861.531,608.475z"/>
				<path class="st1" d="M883.631,599.611v2.881h-7.959v-2.881H883.631z"/>
				<path class="st1" d="M901.828,595.784c-0.068-0.688-0.361-1.222-0.879-1.603c-0.517-0.381-1.219-0.57-2.104-0.57
					c-0.603,0-1.11,0.084-1.526,0.251c-0.414,0.167-0.73,0.399-0.949,0.694c-0.219,0.296-0.328,0.631-0.328,1.006
					c-0.012,0.312,0.055,0.586,0.199,0.818c0.146,0.232,0.346,0.434,0.602,0.601c0.256,0.168,0.551,0.312,0.887,0.435
					c0.335,0.123,0.693,0.227,1.074,0.311l1.567,0.375c0.761,0.172,1.46,0.398,2.097,0.683s1.188,0.634,1.653,1.048
					c0.466,0.415,0.828,0.904,1.087,1.467c0.258,0.562,0.391,1.207,0.396,1.934c-0.006,1.068-0.277,1.994-0.814,2.775
					s-1.31,1.386-2.318,1.814c-1.008,0.43-2.223,0.644-3.643,0.644c-1.41,0-2.636-0.216-3.678-0.647
					c-1.043-0.432-1.855-1.072-2.438-1.922c-0.583-0.85-0.889-1.902-0.916-3.158h3.57c0.04,0.586,0.209,1.072,0.508,1.462
					c0.298,0.39,0.698,0.683,1.201,0.878s1.072,0.294,1.709,0.294c0.625,0,1.169-0.091,1.632-0.272s0.823-0.436,1.078-0.759
					c0.256-0.323,0.384-0.696,0.384-1.116c0-0.393-0.115-0.722-0.346-0.988c-0.23-0.268-0.564-0.494-1.006-0.682
					c-0.439-0.188-0.979-0.359-1.615-0.512l-1.9-0.478c-1.471-0.358-2.633-0.917-3.485-1.679s-1.275-1.787-1.271-3.077
					c-0.005-1.057,0.277-1.979,0.849-2.771c0.571-0.789,1.356-1.406,2.356-1.849c1-0.443,2.137-0.665,3.409-0.665
					c1.296,0,2.428,0.222,3.396,0.665c0.969,0.442,1.723,1.06,2.263,1.849c0.539,0.791,0.818,1.705,0.836,2.745H901.828z"/>
				<path class="st1" d="M914.969,595.128v2.728h-7.883v-2.728H914.969z M908.875,591.992h3.631v12.203
					c0,0.336,0.051,0.596,0.153,0.781c0.103,0.184,0.246,0.313,0.431,0.387c0.185,0.074,0.398,0.111,0.644,0.111
					c0.171,0,0.341-0.016,0.511-0.047c0.171-0.031,0.302-0.056,0.393-0.072l0.57,2.701c-0.182,0.057-0.438,0.123-0.767,0.201
					c-0.329,0.076-0.729,0.123-1.202,0.141c-0.875,0.033-1.641-0.083-2.297-0.35c-0.656-0.268-1.166-0.682-1.529-1.244
					s-0.543-1.273-0.537-2.131V591.992z"/>
				<path class="st1" d="M923.159,608.475c-1.347,0-2.504-0.274-3.473-0.822c-0.969-0.549-1.715-1.327-2.237-2.336
					c-0.523-1.008-0.784-2.203-0.784-3.584c0-1.346,0.261-2.527,0.784-3.545c0.522-1.018,1.26-1.81,2.211-2.378
					c0.952-0.567,2.07-0.853,3.354-0.853c0.863,0,1.669,0.139,2.416,0.414s1.4,0.688,1.96,1.24c0.561,0.551,0.996,1.242,1.309,2.074
					c0.312,0.833,0.469,1.807,0.469,2.92v0.996h-11.055v-2.25h7.637c0-0.521-0.113-0.984-0.341-1.389
					c-0.228-0.403-0.541-0.721-0.941-0.95c-0.401-0.229-0.865-0.345-1.394-0.345c-0.551,0-1.039,0.126-1.462,0.379
					s-0.754,0.591-0.993,1.014c-0.238,0.424-0.36,0.895-0.366,1.411v2.14c0,0.646,0.121,1.207,0.362,1.678
					c0.242,0.473,0.584,0.836,1.027,1.092s0.969,0.383,1.576,0.383c0.404,0,0.773-0.057,1.108-0.17s0.622-0.284,0.86-0.512
					c0.238-0.227,0.421-0.506,0.546-0.835l3.358,0.222c-0.171,0.807-0.52,1.51-1.045,2.109s-1.201,1.065-2.028,1.398
					C925.191,608.309,924.238,608.475,923.159,608.475z"/>
				<path class="st1" d="M937.503,608.475c-1.347,0-2.504-0.274-3.473-0.822c-0.969-0.549-1.715-1.327-2.237-2.336
					c-0.523-1.008-0.784-2.203-0.784-3.584c0-1.346,0.261-2.527,0.784-3.545c0.522-1.018,1.26-1.81,2.211-2.378
					c0.952-0.567,2.07-0.853,3.354-0.853c0.863,0,1.669,0.139,2.416,0.414s1.4,0.688,1.96,1.24c0.561,0.551,0.996,1.242,1.309,2.074
					c0.312,0.833,0.469,1.807,0.469,2.92v0.996h-11.055v-2.25h7.637c0-0.521-0.113-0.984-0.341-1.389
					c-0.228-0.403-0.541-0.721-0.941-0.95c-0.401-0.229-0.865-0.345-1.394-0.345c-0.551,0-1.039,0.126-1.462,0.379
					s-0.754,0.591-0.993,1.014c-0.238,0.424-0.36,0.895-0.366,1.411v2.14c0,0.646,0.121,1.207,0.362,1.678
					c0.242,0.473,0.584,0.836,1.027,1.092s0.969,0.383,1.576,0.383c0.404,0,0.773-0.057,1.108-0.17s0.622-0.284,0.86-0.512
					c0.238-0.227,0.421-0.506,0.546-0.835l3.358,0.222c-0.171,0.807-0.52,1.51-1.045,2.109s-1.201,1.065-2.028,1.398
					C939.535,608.309,938.582,608.475,937.503,608.475z"/>
				<path class="st1" d="M949.512,590.764v17.455h-3.631v-17.455H949.512z"/>
			</g>
		</g>
	</g>
</g>
<g id="_x32_D_x24_AG-DIAGRAM">
	<g id="POLYLINE_00000110462433111973623490000008451615130319662505_">
		<g>
			<g>
				<line class="st5" x1="65.955" y1="565.043" x2="67.955" y2="565.043"/>
				<line class="st19" x1="74.965" y1="565.043" x2="930.744" y2="565.043"/>
				<line class="st5" x1="934.249" y1="565.043" x2="936.249" y2="565.043"/>
			</g>
		</g>
	</g>
</g>
<g id="_x32_D_x24_AG-DETAILS-DIAGRAM">
	<g id="POLYLINE_00000052073376493985143940000000584089588948681885_">
		<g>
			<g>
				<path class="st24" d="M904.132,565.011c0.497-0.05,0.989-0.161,1.461-0.328"/>
				<path class="st70" d="M909.548,560.474c0.121-0.425,0.198-0.863,0.227-1.303c0.012-1.335,0.036-358.249,0.002-359.555
					c0-0.002-0.01-0.322-0.01-0.322l-0.013-0.319l-0.015-0.318l-0.018-0.317l-0.021-0.315l-0.023-0.314l-0.026-0.312l-0.06-0.621
					l-0.07-0.616c-0.495-4.062-1.728-8.052-3.547-11.714c-1.784-3.604-4.123-6.943-6.754-9.978c-2.662-3.068-5.678-5.92-8.779-8.54
					c-3.477-3.019-9.063-6.979-12.677-9.725c-3.478-2.644-7.09-5.66-8.447-9.972c-0.23-0.718-0.395-1.468-0.51-2.213
					c-0.256-1.568-0.359-3.334-0.4-5.095"/>
				<path class="st24" d="M868.375,135.928c-0.001-0.513-0.001-1.014-0.003-1.499c0.501,0.001,1.001-0.101,1.463-0.293"/>
				<path class="st71" d="M872.175,130.163c0-1.069,0-3.615,0-3.615c0-0.393-0.09-0.787-0.262-1.14
					c-0.02-0.042-0.042-0.084-0.065-0.125"/>
				<path class="st24" d="M869.872,123.955c-0.034-0.004-0.068-0.007-0.103-0.01c-0.124-0.019-1.247-0.003-1.397-0.008v-1.5"/>
				<path class="st24" d="M868.373,122.29v-1.5c0.046,0.001,1.292,0.002,1.504-0.002"/>
				<path class="st72" d="M871.018,115.781c-1.308-8.809-4.966-33.43-4.967-33.446l-0.205-1.403c-0.251-1.6-0.568-4.286-1.01-5.818
					c-0.438-1.635-1.069-3.229-1.868-4.721c-3.192-6.001-9.12-10.266-15.825-11.384c-0.918-0.155-1.863-0.255-2.793-0.293
					c-3.9-0.053-10.88-0.001-14.785-0.019c-4.916-0.011-9.813,1.681-13.674,4.724c-2.924,2.29-5.256,5.332-6.707,8.75
					c-0.527,1.238-0.945,2.537-1.238,3.851c-0.674,3.605-5.563,37.316-6.39,42.698"/>
				<path class="st24" d="M803.132,120.788c0.018,0.001,0.036,0.002,0.054,0.001c0.013,0.01,1.43-0.007,1.446,0v1.5"/>
				<path class="st24" d="M804.631,122.437v1.5c-0.153-0.008-1.275,0-1.397,0.008c-0.034,0.003-0.068,0.006-0.103,0.01"/>
				<path class="st24" d="M800.827,129.466c0.001,0.831,0.005,1.513,0.017,1.502c0.031,0.346,0.111,0.689,0.234,1.014
					c0.054,0.143,0.117,0.282,0.188,0.416"/>
				<path class="st24" d="M803.169,134.136c0.462,0.192,0.962,0.294,1.463,0.293c-0.002,0.486-0.002,0.987-0.002,1.499"/>
				<path class="st70" d="M804.449,141.922c-0.061,0.723-0.142,1.427-0.25,2.096c-0.123,0.796-0.303,1.596-0.559,2.361
					c-1.391,4.235-4.965,7.213-8.399,9.824c-5.544,4.132-12.234,8.936-17.114,13.712c-3.864,3.721-7.406,7.865-10.047,12.55
					c-2.388,4.208-4.015,8.885-4.597,13.695c-0.034,0.333-0.105,0.91-0.13,1.237c-0.061,0.73-0.108,1.486-0.126,2.217
					c-0.058,1.157-0.002,358.365,0.001,359.557c0.037,0.543,0.145,1.086,0.321,1.602c0.287,0.85,0.762,1.634,1.375,2.287"/>
				<path class="st24" d="M767.412,564.683c0.472,0.167,0.963,0.278,1.461,0.328"/>
			</g>
		</g>
	</g>
	<g id="POLYLINE_00000176729151908887771470000005233577222062031276_">
		<g>
			<g>
				<path class="st24" d="M276.079,565.043c0.498,0,0.997-0.011,1.497-0.032"/>
				<path class="st73" d="M283.43,564.278c6.322-1.333,12.268-4.42,16.978-8.844c4.297-4.015,7.575-9.12,9.435-14.7
					c0.452-1.355,0.828-2.75,1.116-4.156"/>
				<path class="st24" d="M311.433,533.665c0.014-0.116,0.027-0.232,0.038-0.346c0.029-0.352,0.087-0.798,0.107-1.147
					c0.014-0.008,0.059-0.522,0.133-1.489"/>
				<path class="st74" d="M312.137,524.69c2.333-33.856,11.115-171.07,11.284-171.278c0.502-7.6,0.35-15.318-0.456-22.893
					c-1.71-16.144-6.42-31.998-13.802-46.457c-16.118-31.688-44.558-55.745-78.358-66.457"/>
				<path class="st24" d="M227.92,216.727c-0.48-0.14-0.961-0.277-1.442-0.412v-1.5"/>
				<polyline class="st24" points="226.477,212.856 226.477,211.356 227.977,211.356 				"/>
				<polyline class="st24" points="233.501,211.356 235.001,211.356 235.001,209.856 				"/>
				<polyline class="st24" points="235.001,208.659 235.001,207.159 233.501,207.159 				"/>
				<polyline class="st24" points="227.977,207.159 226.477,207.159 226.477,205.659 				"/>
				<polyline class="st24" points="226.477,204.128 226.477,202.628 227.977,202.628 				"/>
				<polyline class="st24" points="228.941,202.628 230.441,202.628 230.441,202.355 231.789,203.013 				"/>
				<path class="st75" d="M237.077,205.593l8.366,4.082c11.291,5.344,23.948,10.483,36.624,7.748
					c8.469-1.824,15.819-7.68,19.1-15.748c3.412-8.332,2.446-19.385-2.969-26.675c-0.921-1.233-1.985-2.373-3.187-3.335
					c-1.227-0.987-2.601-1.796-4.033-2.448c-3.464-1.564-7.25-2.349-10.99-2.928c-11.057-1.565-22.708-1.568-33.981-1.579"/>
				<path class="st24" d="M243.066,164.705c-0.501-0.001-1.001-0.002-1.5-0.004c0-0.017,0-0.556,0-1.496"/>
				<path class="st76" d="M241.566,157.266c0-11.384,0.001-31.839-0.001-31.938c-0.007-0.19-0.006-0.415-0.02-0.604
					c-0.027-0.459-0.076-0.933-0.15-1.388c-0.12-0.742-0.304-1.485-0.546-2.197c-0.716-2.113-1.969-4.044-3.609-5.557
					c-1.501-1.391-3.327-2.433-5.288-3.019c-0.663-0.198-1.351-0.348-2.037-0.442c-0.453-0.062-0.923-0.102-1.379-0.117
					c-0.141-0.003-0.311-0.008-0.45-0.008c0,0-75.247,0-75.247,0c-3.359-0.011-6.696,1.297-9.154,3.585
					c-1.639,1.514-2.893,3.444-3.609,5.557c-0.241,0.712-0.427,1.454-0.546,2.197c-0.072,0.454-0.125,0.929-0.15,1.388
					c-0.004,0.188-0.023,0.415-0.02,0.603c-0.06,0.118,0.008,24.619,0.013,34.908"/>
				<path class="st24" d="M139.371,163.206c-0.002,0.939-0.006,1.477-0.012,1.495h-1.5"/>
				<polyline class="st24" points="133.798,164.701 132.298,164.701 132.298,166.201 				"/>
				<polyline class="st24" points="132.298,171.595 132.298,173.095 133.798,173.095 				"/>
				<line class="st77" x1="137.331" y1="173.095" x2="140.865" y2="173.095"/>
				<polyline class="st24" points="142.631,173.095 144.131,173.095 144.407,174.569 				"/>
				<line class="st78" x1="145.063" y1="178.076" x2="145.719" y2="181.583"/>
				<polyline class="st24" points="146.047,183.337 146.322,184.811 147.822,184.811 				"/>
				<polyline class="st24" points="148.985,184.811 150.485,184.811 150.485,184.915 148.985,184.915 				"/>
				<polyline class="st24" points="143.617,184.914 142.117,184.914 142.117,186.414 				"/>
				<polyline class="st24" points="142.117,191.808 142.117,193.308 143.617,193.308 				"/>
				<line class="st79" x1="147.349" y1="193.309" x2="151.082" y2="193.31"/>
				<polyline class="st24" points="152.948,193.31 154.448,193.31 154.448,194.81 				"/>
				<polyline class="st24" points="154.448,196.932 154.448,198.432 152.948,198.432 				"/>
				<polyline class="st24" points="151.985,198.432 150.485,198.432 150.485,199.932 				"/>
				<polyline class="st24" points="150.485,201.128 150.485,202.628 151.985,202.628 				"/>
				<polyline class="st24" points="152.948,202.628 154.448,202.628 154.448,204.128 				"/>
				<polyline class="st24" points="154.448,205.659 154.448,207.159 152.948,207.159 				"/>
				<polyline class="st24" points="147.425,207.159 145.925,207.159 145.925,208.659 				"/>
				<polyline class="st24" points="145.925,209.856 145.925,211.356 147.425,211.356 				"/>
				<polyline class="st24" points="152.948,211.356 154.448,211.356 154.448,212.856 				"/>
				<path class="st24" d="M154.448,214.815v1.5c-0.482,0.135-0.963,0.272-1.442,0.412"/>
				<path class="st80" d="M147.302,218.533c-32.559,11.132-59.874,34.725-75.54,65.528c-7.381,14.46-12.092,30.313-13.802,46.457
					c-0.804,7.576-0.96,15.292-0.455,22.893c0.027,0.382,11.814,178.41,11.843,178.759c0,0.001,0.031,0.382,0.031,0.382l0.036,0.382
					l0.04,0.384c0.089,0.752,0.196,1.576,0.332,2.322c0.329,1.852,0.81,3.707,1.428,5.484c1.881,5.426,5.105,10.388,9.302,14.308
					c5.14,4.828,11.75,8.06,18.712,9.165"/>
				<path class="st24" d="M102.203,564.944c0.501,0.038,1.002,0.066,1.497,0.08"/>
			</g>
		</g>
	</g>
</g>
<g id="_x32_D_x24_AG-DETAILS">
	<g id="POLYLINE_00000126319222751078335760000000156459972484780170_">
		<path class="st4" d="M464.874,347.57c31.452,0,94.743,0,126.187,0"/>
	</g>
	<g id="POLYLINE_00000006695985936049080550000002332781179893415088_">
		<path class="st4" d="M591.06,351.767c-31.452,0-94.743,0-126.187,0"/>
	</g>
	<g id="POLYLINE_00000018224444471074507730000006048878813545565853_">
		<path class="st4" d="M464.874,324.488c31.452,0,94.743,0,126.187,0"/>
	</g>
	<g id="POLYLINE_00000103972825262452082900000011397218715050212514_">
		<path class="st4" d="M591.06,328.685c-31.452,0-94.743,0-126.187,0"/>
	</g>
	<g id="POLYLINE_00000027568640669761007990000015175172867144485821_">
		<path class="st4" d="M464.874,301.405c31.452,0,94.743,0,126.187,0"/>
	</g>
	<g id="POLYLINE_00000176724968727952227540000016202324023136084378_">
		<path class="st4" d="M591.06,305.602c-31.452,0-94.743,0-126.187,0"/>
	</g>
	<g id="POLYLINE_00000086673948614275965290000006502245098779185593_">
		<path class="st4" d="M464.874,278.323c31.452,0,94.743,0,126.187,0"/>
	</g>
	<g id="POLYLINE_00000113349540892468285530000011768994166777030331_">
		<path class="st4" d="M591.06,282.52c-31.452,0-94.743,0-126.187,0"/>
	</g>
	<g id="POLYLINE_00000045597463510462764010000015778216535456205998_">
		<path class="st4" d="M464.874,255.24c31.452,0,94.743,0,126.187,0"/>
	</g>
	<g id="POLYLINE_00000099646451032885208060000003374806952655236517_">
		<path class="st4" d="M591.06,259.437c-31.452,0-94.743,0-126.187,0"/>
	</g>
	<g id="POLYLINE_00000093147652009647165540000017712691407339915921_">
		<path class="st4" d="M473.007,408.287c27.397,0,82.53,0,109.921,0"/>
	</g>
	<g id="POLYLINE_00000129174817208168799530000000105901999182589874_">
		<path class="st4" d="M582.956,412.484c-27.411,0-82.573,0-109.977,0"/>
	</g>
	<g id="POLYLINE_00000060030984118693707120000009905634800310080935_">
		<path class="st4" d="M588.032,441.862c-29.942,0-90.195,0-120.13,0"/>
	</g>
	<g id="POLYLINE_00000002370336723246517410000016029585806172495764_">
		<path class="st4" d="M467.996,437.665c29.895,0,90.054,0,119.942,0"/>
	</g>
	<g id="POLYLINE_00000098218598375086044910000009100131873087902613_">
		<path class="st4" d="M590.815,517.405c-31.329,0-94.375,0-125.697,0"/>
	</g>
	<g id="POLYLINE_00000090993292991315719490000009663795898825624728_">
		<path class="st4" d="M465.117,513.208c31.33,0,94.377,0,125.699,0"/>
	</g>
	<g id="POLYLINE_00000099645074699981374900000012665200413434526108_">
		<path class="st4" d="M590.688,494.322c-31.266,0-94.184,0-125.443,0"/>
	</g>
	<g id="POLYLINE_00000141450515727692892400000016227537107636465291_">
		<path class="st4" d="M465.128,490.125c31.325,0,94.361,0,125.678,0"/>
	</g>
	<g id="POLYLINE_00000121275766992594694830000013751467953542777480_">
		<path class="st4" d="M590.81,471.24c-31.327,0-94.367,0-125.686,0"/>
	</g>
	<g id="POLYLINE_00000175281497818270345680000001339382427605190038_">
		<path class="st4" d="M465.191,467.043c31.294,0,94.267,0,125.552,0"/>
	</g>
</g>
<g id="_x32_D_x24_AG-OBJECTS">
	<g id="POLYLINE_00000155828656643733105940000014309846891965941424_">
		<path class="st102" d="M557.345,155.433c0,0,0-12.59,0-12.59c-0.003-0.091-0.001-0.199-0.01-0.29
			c-0.016-0.214-0.047-0.435-0.095-0.644c-0.187-0.824-0.631-1.589-1.255-2.159c-0.764-0.705-1.797-1.107-2.837-1.104
			c-0.073,0.001-50.367-0.001-50.434,0.001c-0.14,0.003-0.295,0.013-0.434,0.03c-0.237,0.029-0.479,0.08-0.708,0.149
			c-0.6,0.181-1.161,0.5-1.623,0.925c-0.624,0.57-1.068,1.335-1.255,2.159c-0.053,0.233-0.088,0.478-0.1,0.717
			c0.003,0.064-0.01,0.153-0.006,0.217c0,0,0,12.59,0,12.59"/>
	</g>
	<g id="POLYLINE_00000009547650492656487430000004918618304987842449_">
		<path class="st102" d="M500.163,160.679c-0.392-0.001-0.782,0.151-1.069,0.419c-0.289,0.266-0.471,0.641-0.5,1.032
			c-0.036,0.433,0.118,0.875,0.414,1.192c0.232,0.253,0.549,0.424,0.887,0.482c0.391,0.07,1.252-0.029,1.64,0.057
			c0.237,0.05,0.463,0.155,0.653,0.306c0.316,0.249,0.53,0.622,0.583,1.021c0.007,0.061,0.013,0.118,0.014,0.179
			c0.013-0.008-0.008,5.794,0,5.8c-0.003,0.383-0.012,0.77-0.043,1.147c-0.077,0.994-0.265,1.986-0.611,2.923
			c-0.229,0.621-0.531,1.22-0.903,1.768c-0.152,0.225-0.321,0.444-0.496,0.652c-1.637,1.9-5.242,5.956-6.764,7.797
			c-11.887,14.17-28.012,35.056-31.858,53.259c-0.341,1.653-0.59,3.358-0.702,5.042c-0.041,0.642-0.068,1.354-0.067,1.997
			c0,0.039,0,5.296,0,5.332c0.001,0.105,0.006,0.214,0.015,0.318c0.041,0.48,0.166,0.954,0.367,1.392
			c0.321,0.703,0.841,1.313,1.484,1.741c0.296,0.198,0.618,0.358,0.954,0.475c0.168,0.063,0.345,0.099,0.517,0.149
			c0.402,0.13,0.724,0.476,0.823,0.887c0.024,0.098,0.037,0.201,0.037,0.302c0,0,0,1.985,0,1.985
			c0.001,0.023-0.001,0.043-0.002,0.065c-0.004,0.079-0.016,0.159-0.035,0.236c-0.089,0.368-0.355,0.686-0.701,0.84
			c-0.15,0.069-0.317,0.093-0.474,0.143c-0.266,0.08-0.526,0.188-0.771,0.319c-0.642,0.343-1.192,0.858-1.577,1.476
			c-0.386,0.617-0.607,1.337-0.634,2.065c-0.001,0.051-0.004,0.107-0.003,0.158c0,0.039,0,10.495,0,10.531
			c0.001,0.132,0.009,0.268,0.023,0.399c0.049,0.467,0.177,0.927,0.378,1.351c0.411,0.877,1.135,1.6,2.013,2.009
			c0.364,0.172,0.579,0.219,0.945,0.322c0.24,0.083,0.453,0.242,0.601,0.448c0.115,0.158,0.192,0.345,0.222,0.538
			c0.031,0.132,0.01,2.059,0.015,2.223c-0.01,0.334-0.162,0.661-0.411,0.884c-0.129,0.117-0.283,0.207-0.448,0.261
			c-0.228,0.063-0.461,0.119-0.681,0.21c-0.942,0.369-1.739,1.092-2.197,1.994c-0.228,0.446-0.375,0.934-0.432,1.431
			c-0.016,0.145-0.026,0.294-0.027,0.439c-0.013,0.048,0.009,10.483,0,10.531c0.002,0.031,0,0.086,0.002,0.118
			c0.027,1.123,0.53,2.223,1.362,2.979c0.419,0.384,0.919,0.682,1.456,0.868c0.121,0.041,0.247,0.08,0.371,0.11
			c0.134,0.029,0.265,0.077,0.384,0.147c0.38,0.217,0.625,0.644,0.622,1.082c0,0,0,1.985,0,1.985c0,0.024-0.002,0.062-0.003,0.087
			c-0.01,0.144-0.046,0.288-0.104,0.42c-0.117,0.266-0.33,0.488-0.591,0.615c-0.109,0.056-0.229,0.088-0.348,0.116
			c-0.124,0.031-0.251,0.071-0.371,0.114c-0.637,0.228-1.217,0.614-1.674,1.112c-0.453,0.493-0.786,1.097-0.96,1.744
			c-0.096,0.356-0.145,0.726-0.145,1.094c0,0,0,10.492,0,10.492s0,0.039,0,0.039s0.001,0.039,0.001,0.039s0.001,0.039,0.001,0.039
			c0.007,0.23,0.032,0.462,0.076,0.688c0.115,0.59,0.359,1.155,0.71,1.643c0.458,0.639,1.099,1.144,1.828,1.439
			c0.173,0.07,0.354,0.13,0.534,0.177c0.198,0.041,0.391,0.117,0.552,0.241c0.309,0.231,0.497,0.612,0.495,0.997
			c0,0,0,1.985,0,1.985s0,0.022,0,0.022l-0.001,0.022l-0.001,0.022c-0.002,0.048-0.009,0.104-0.017,0.151
			c-0.027,0.157-0.086,0.31-0.17,0.445c-0.126,0.203-0.313,0.37-0.529,0.471c-0.155,0.077-0.33,0.1-0.494,0.152
			c-0.266,0.08-0.526,0.188-0.771,0.319c-1.047,0.555-1.831,1.574-2.1,2.729c-0.072,0.304-0.111,0.619-0.114,0.931
			c-0.001,0.036,0,10.492,0,10.531c0,0,0,0.039,0,0.039s0.001,0.039,0.001,0.039c0.003,0.173,0.018,0.351,0.042,0.522
			c0.066,0.455,0.207,0.9,0.416,1.309c0.385,0.756,1.006,1.39,1.754,1.789c0.258,0.138,0.532,0.25,0.812,0.331
			c0.13,0.035,0.267,0.064,0.393,0.114c0.344,0.138,0.617,0.439,0.723,0.794c0.032,0.103,0.05,0.213,0.054,0.321
			c0,0,0.001,0.022,0.001,0.022s0,0.022,0,0.022s0,1.985,0,1.985c0.001,0.268-0.089,0.537-0.25,0.751
			c-0.156,0.209-0.38,0.368-0.63,0.444c-0.603,0.14-1.182,0.396-1.673,0.776c-0.635,0.485-1.125,1.156-1.395,1.908
			c-0.128,0.355-0.208,0.73-0.237,1.106c-0.029,0.65-0.008,1.386,0.006,2.036c0.153,4.923,1.232,9.817,2.482,14.565
			c2.895,10.396,6.234,21.566,7.016,32.335c0.042,0.48,0.056,1.184,0.111,1.659c0.036,0.239,0.103,0.475,0.206,0.695
			c0.233,0.511,0.674,0.912,1.194,1.119c0.219,0.097,0.435,0.117,0.636,0.23c0.273,0.148,0.487,0.401,0.586,0.695
			c0.035,0.102,0.057,0.21,0.064,0.317c0.002,0.013,0.007,2.106,0.001,2.137c-0.012,0.232-0.09,0.46-0.223,0.65
			c-0.136,0.197-0.331,0.353-0.553,0.443c-0.14,0.058-0.293,0.08-0.435,0.129c-0.225,0.072-0.444,0.171-0.644,0.296
			c-0.973,0.597-1.393,1.754-1.546,2.835c-0.105,0.89-3.454,17.761-3.68,19.156c-0.045,0.353-0.063,0.716-0.02,1.07
			c0.035,0.294,0.115,0.589,0.27,0.844c0.161,0.27,0.41,0.482,0.697,0.608c0.146,0.067,0.308,0.099,0.447,0.182
			c0.195,0.11,0.361,0.274,0.472,0.468c0.101,0.176,0.158,0.376,0.165,0.579c0,0.011,0.001,0.032,0.001,0.043c0,0,0,1.996,0,1.996
			c0,0.019,0,0.046-0.002,0.065c-0.005,0.094-0.021,0.189-0.047,0.279c-0.106,0.38-0.403,0.698-0.774,0.831
			c-0.137,0.05-0.284,0.069-0.423,0.112c-0.219,0.063-0.435,0.147-0.637,0.253c-0.488,0.252-0.9,0.638-1.204,1.094
			c-0.29,0.432-0.49,0.921-0.632,1.419c-0.077,0.271-0.139,0.557-0.185,0.835c-0.838,5.182-1.688,11.093-2.221,16.311
			c-0.078,0.983-0.076,1.999,0.222,2.948c0.203,0.649,0.589,1.259,1.166,1.634c0.252,0.167,0.534,0.29,0.825,0.373
			c0.192,0.053,0.383,0.08,0.558,0.184c0.35,0.193,0.594,0.563,0.633,0.962c0.008,0.06,0.024,2.269-0.016,2.286
			c-0.045,0.235-0.16,0.456-0.326,0.629c-0.14,0.146-0.317,0.258-0.51,0.322c-0.092,0.032-0.191,0.047-0.287,0.064
			c-0.108,0.02-0.221,0.045-0.327,0.072c-0.668,0.167-1.303,0.505-1.768,1.019c-0.787,0.861-1.044,2.064-1.097,3.199
			c-0.07,2.561-0.206,7.081-0.177,9.636c0.018,0.394,0.057,0.799,0.126,1.187c0.144,0.816,0.427,1.63,0.954,2.28
			c0.364,0.453,0.846,0.806,1.381,1.029c0.238,0.1,0.488,0.177,0.74,0.233c0.136,0.035,0.282,0.046,0.416,0.086
			c0.384,0.111,0.703,0.416,0.83,0.795c0.044,0.13,0.067,0.268,0.067,0.405c0,0,0,1.948,0,1.948c0,0.028-0.001,0.059-0.003,0.087
			c-0.007,0.101-0.027,0.202-0.058,0.298c-0.099,0.311-0.326,0.578-0.616,0.727c-0.217,0.117-0.471,0.135-0.704,0.203
			c-0.695,0.185-1.365,0.51-1.886,1.013c-0.498,0.475-0.84,1.096-1.033,1.754c-0.184,0.62-0.249,1.275-0.25,1.921
			c0,0,0,8.821,0,8.821c0,0.218,0.007,0.464,0.021,0.682c0.034,0.52,0.11,1.046,0.255,1.547c0.208,0.731,0.582,1.431,1.158,1.937
			c0.557,0.497,1.276,0.783,2.007,0.904c0.528,0.062,0.974,0.462,1.081,0.985c0.059,0.211,0.014,1.903,0.027,2.143
			c0,0.138-0.023,0.277-0.068,0.407c-0.142,0.423-0.524,0.751-0.964,0.825c-0.542,0.085-1.078,0.252-1.551,0.534
			c-0.448,0.265-0.833,0.636-1.12,1.07c-0.41,0.617-0.63,1.342-0.744,2.069c-0.059,0.381-0.09,0.781-0.1,1.167
			c-0.001,0.062-0.004,0.216-0.003,0.281c0,0,0.032,11.931,0.032,11.931c0.096,4.84,0.266,9.823,1.818,14.451
			c1.619,4.768,4.625,9.132,8.717,12.102c1.375,0.983,2.879,1.823,4.49,2.346c1.52,0.493,3.13,0.737,4.715,0.914
			c3.887,0.413,8.291,0.479,12.21,0.569c17.269,0.124,52.02,0.124,69.286,0c3.928-0.092,8.318-0.155,12.21-0.569
			c1.585-0.178,3.195-0.421,4.715-0.914c1.611-0.523,3.115-1.364,4.49-2.346c4.092-2.97,7.098-7.334,8.717-12.102
			c1.552-4.627,1.722-9.611,1.818-14.451c0,0,0.032-11.931,0.032-11.931c-0.001-0.079-0.001-0.204-0.003-0.281
			c-0.01-0.387-0.041-0.785-0.1-1.167c-0.116-0.743-0.344-1.484-0.771-2.109c-0.283-0.417-0.659-0.773-1.093-1.03
			c-0.473-0.282-1.009-0.449-1.551-0.534c-0.44-0.075-0.822-0.402-0.964-0.825c-0.045-0.13-0.068-0.269-0.068-0.407
			c0.013-0.228-0.032-2.005,0.032-2.164c0.068-0.298,0.25-0.568,0.501-0.743c0.185-0.134,0.406-0.2,0.63-0.23
			c0.727-0.128,1.439-0.423,1.987-0.926c0.557-0.503,0.919-1.19,1.123-1.905c0.145-0.501,0.221-1.027,0.255-1.547
			c0.014-0.219,0.021-0.463,0.021-0.682c0,0,0-8.821,0-8.821c-0.001-0.645-0.066-1.3-0.25-1.921
			c-0.197-0.672-0.551-1.307-1.067-1.785c-0.516-0.485-1.172-0.8-1.852-0.981c-0.24-0.07-0.502-0.089-0.723-0.213
			c-0.281-0.15-0.5-0.413-0.597-0.717c-0.031-0.096-0.051-0.197-0.058-0.298c-0.002-0.026-0.003-0.061-0.003-0.087
			c0,0,0-1.948,0-1.948c0-0.137,0.023-0.275,0.067-0.405c0.127-0.379,0.446-0.685,0.83-0.795c0.135-0.04,0.28-0.052,0.416-0.086
			c0.252-0.056,0.502-0.133,0.74-0.233c0.535-0.223,1.017-0.577,1.381-1.029c0.527-0.65,0.81-1.464,0.954-2.28
			c0.077-0.435,0.117-0.888,0.131-1.329c0.01-2.474-0.108-7.019-0.182-9.493c-0.052-1.108-0.297-2.277-1.041-3.136
			c-0.46-0.536-1.1-0.893-1.779-1.07c-0.121-0.032-0.249-0.061-0.372-0.083c-0.088-0.016-0.181-0.029-0.266-0.057
			c-0.159-0.049-0.309-0.132-0.436-0.239c-0.279-0.233-0.445-0.592-0.443-0.956c0,0,0-1.918,0-1.918c0-0.019,0-0.046,0.002-0.065
			c0.004-0.079,0.016-0.16,0.035-0.236c0.061-0.246,0.199-0.473,0.39-0.64c0.153-0.134,0.339-0.23,0.536-0.276
			c0.504-0.106,0.991-0.325,1.373-0.674c0.458-0.413,0.746-0.984,0.906-1.573c0.242-0.898,0.242-1.845,0.168-2.766
			c-0.534-5.218-1.383-11.129-2.221-16.311c-0.047-0.278-0.108-0.564-0.185-0.835c-0.142-0.499-0.343-0.988-0.632-1.419
			c-0.31-0.466-0.734-0.859-1.235-1.11c-0.204-0.104-0.421-0.186-0.642-0.246c-0.134-0.04-0.277-0.058-0.408-0.11
			c-0.362-0.137-0.649-0.451-0.754-0.823c-0.026-0.09-0.042-0.185-0.047-0.279c-0.001-0.019-0.002-0.046-0.002-0.065
			c0,0,0-1.996,0-1.996c0-0.019,0-0.046,0.002-0.065c0.01-0.195,0.067-0.388,0.164-0.557c0.111-0.195,0.276-0.359,0.472-0.468
			c0.139-0.083,0.301-0.115,0.447-0.182c0.287-0.126,0.537-0.338,0.697-0.608c0.159-0.264,0.239-0.568,0.273-0.872
			c0.038-0.345,0.02-0.698-0.024-1.041c-0.227-1.406-3.572-18.246-3.68-19.156c-0.153-1.081-0.573-2.238-1.546-2.835
			c-0.201-0.125-0.419-0.224-0.644-0.296c-0.143-0.049-0.296-0.071-0.435-0.129c-0.228-0.093-0.428-0.256-0.565-0.461
			c-0.13-0.192-0.204-0.422-0.212-0.654c0-0.011-0.001-0.032-0.001-0.044c0,0,0-1.985,0-1.985c0-0.027,0.001-0.06,0.003-0.086
			c0.007-0.107,0.029-0.215,0.064-0.317c0.099-0.294,0.313-0.548,0.586-0.695c0.2-0.112,0.417-0.133,0.636-0.23
			c0.519-0.208,0.96-0.609,1.194-1.119c0.103-0.219,0.17-0.456,0.206-0.695c0.055-0.474,0.069-1.182,0.111-1.659
			c0.779-10.755,4.125-21.959,7.016-32.335c1.42-5.446,2.672-11.106,2.473-16.763c-0.08-0.707-0.345-1.392-0.761-1.97
			c-0.354-0.494-0.818-0.909-1.347-1.207c-0.362-0.207-0.756-0.35-1.161-0.446c-0.223-0.065-0.427-0.193-0.582-0.367
			c-0.14-0.157-0.24-0.349-0.287-0.555c-0.006-0.026-0.012-0.059-0.017-0.085c-0.009-0.059-0.014-0.115-0.015-0.173
			c0.001,0.008-0.001-2.005,0-2.007c-0.001-0.342,0.145-0.68,0.395-0.913c0.158-0.149,0.357-0.255,0.569-0.305
			c0.442-0.104,0.867-0.281,1.253-0.521c0.593-0.368,1.092-0.888,1.436-1.496c0.263-0.464,0.436-0.979,0.507-1.508
			c0.021-0.16,0.034-0.321,0.037-0.481c0.01-0.039-0.006-10.516,0.001-10.571c0.001-0.811-0.24-1.621-0.685-2.299
			c-0.486-0.746-1.217-1.329-2.053-1.637c-0.12-0.046-0.247-0.084-0.371-0.118c-0.125-0.035-0.254-0.057-0.37-0.117
			c-0.25-0.117-0.458-0.319-0.583-0.566c-0.075-0.149-0.121-0.313-0.132-0.479c0.003-0.303-0.025-2.048,0.016-2.288
			c0.072-0.432,0.388-0.809,0.799-0.958c0.127-0.044,0.265-0.07,0.393-0.11c0.237-0.072,0.471-0.165,0.692-0.278
			c0.595-0.302,1.116-0.749,1.505-1.292c0.375-0.522,0.628-1.132,0.732-1.766c0.03-0.186,0.049-0.376,0.054-0.565
			c0.002-0.031,0.001-0.086,0.002-0.118c0,0,0-10.492,0-10.492c0.003-1.025-0.387-2.043-1.074-2.804
			c-0.442-0.493-1.004-0.88-1.623-1.116c-0.147-0.057-0.3-0.105-0.453-0.144c-0.133-0.032-0.267-0.068-0.387-0.136
			c-0.394-0.208-0.655-0.636-0.659-1.081c0.004,0.007-0.004-2.004,0-2.007c0.001-0.017,0-0.048,0.002-0.065
			c0.004-0.079,0.016-0.159,0.035-0.236c0.066-0.268,0.224-0.512,0.441-0.682c0.153-0.122,0.337-0.204,0.528-0.244
			c0.181-0.045,0.362-0.102,0.535-0.171c0.646-0.254,1.227-0.672,1.672-1.204c0.392-0.466,0.681-1.019,0.839-1.606
			c0.075-0.279,0.122-0.568,0.138-0.857c0.004-0.078,0.007-0.159,0.007-0.237c0,0,0-10.492,0-10.492
			c-0.004-0.023,0.002-0.057-0.001-0.078c-0.007-0.357-0.059-0.714-0.156-1.057c-0.214-0.764-0.65-1.464-1.241-1.992
			c-0.412-0.369-0.899-0.656-1.422-0.837c-0.107-0.037-0.22-0.071-0.33-0.1c-0.133-0.03-0.267-0.069-0.387-0.136
			c-0.256-0.137-0.461-0.366-0.569-0.636c-0.06-0.148-0.091-0.308-0.09-0.467c0,0,0-1.985,0-1.985
			c-0.001-0.019,0.001-0.046,0.002-0.065c0.005-0.094,0.021-0.188,0.046-0.279c0.085-0.301,0.287-0.566,0.555-0.727
			c0.191-0.122,0.397-0.15,0.609-0.214c1.343-0.397,2.432-1.495,2.817-2.842c0.108-0.369,0.165-0.753,0.168-1.137
			c0.021-0.046-0.015-10.485,0-10.531c-0.001-0.062-0.001-0.135-0.005-0.197c-0.01-0.217-0.038-0.436-0.082-0.649
			c-0.262-1.309-1.185-2.455-2.408-2.989c-0.198-0.088-0.406-0.161-0.615-0.218c-0.146-0.035-0.296-0.073-0.428-0.147
			c-0.401-0.21-0.664-0.651-0.66-1.103c0,0,0-1.985,0-1.985l0-0.022l0.001-0.022c0.003-0.079,0.013-0.16,0.031-0.237
			c0.052-0.226,0.168-0.438,0.332-0.602c0.128-0.128,0.284-0.229,0.454-0.292c0.23-0.075,0.383-0.094,0.64-0.193
			c1.006-0.369,1.855-1.14,2.319-2.106c0.205-0.424,0.339-0.883,0.392-1.351c0.018-0.157,0.027-0.32,0.027-0.479
			c-0.025-1.573,0.068-6.149-0.097-7.696c-1.408-17.021-15.997-37.257-26.439-50.473c-3.975-5.039-8.816-10.614-13.049-15.456
			c-0.447-0.571-0.812-1.212-1.088-1.882c-0.534-1.298-0.745-2.712-0.769-4.109c0,0-0.002-0.261-0.002-0.261v-5.765
			c0-0.133,0.017-0.268,0.051-0.396c0.092-0.355,0.312-0.676,0.612-0.887c0.098-0.068,0.203-0.128,0.314-0.173
			c0.134-0.054,0.276-0.092,0.42-0.108c0.278-0.032,1.164,0.014,1.44-0.025c0.318-0.043,0.62-0.186,0.855-0.404
			c0.297-0.272,0.481-0.665,0.503-1.067c0.03-0.481-0.179-0.972-0.548-1.284c-0.161-0.138-0.351-0.243-0.553-0.306
			c-0.123-0.038-0.253-0.063-0.382-0.069c-0.081-0.007-27.804,0-27.892-0.002h29.378v-5.246c-14.645,0-44.115,0-58.756,0v5.246
			h29.378H500.163z"/>
	</g>
</g>
<g id="_x32_D_x24_AG-OUTLINE">
	<g id="POLYLINE_00000155851420408023719550000006513329034122143423_">
		<path class="st104" d="M507.417,565.035c-7.734-0.151-19.84,0.118-27.385-0.823c-1.404-0.194-2.821-0.469-4.153-0.963
			c-3.267-1.245-6.054-3.552-8.255-6.235c-2.178-2.673-3.813-5.795-4.767-9.108c-1.24-4.319-1.395-8.908-1.483-13.375l-0.032-11.931
			c0.001-0.128,0.003-0.291,0.008-0.418c0.016-0.421,0.058-0.853,0.137-1.267c0.137-0.722,0.393-1.438,0.843-2.027
			c0.393-0.521,0.941-0.917,1.549-1.149c0.258-0.1,0.528-0.174,0.799-0.226c0.123-0.026,0.253-0.037,0.372-0.081
			c0.332-0.113,0.61-0.372,0.745-0.696c0.054-0.128,0.087-0.264,0.096-0.403c-0.003-0.23,0.025-1.997-0.018-2.194
			c-0.064-0.359-0.294-0.682-0.611-0.861c-0.146-0.085-0.311-0.135-0.477-0.158c-0.174-0.03-0.351-0.068-0.521-0.116
			c-0.544-0.152-1.063-0.411-1.486-0.788c-0.412-0.363-0.727-0.829-0.943-1.333c-0.309-0.719-0.437-1.506-0.478-2.284
			c-0.027-0.332-0.013-9.179-0.01-9.621c0.012-0.42,0.055-0.849,0.143-1.261c0.157-0.747,0.479-1.473,1.007-2.032
			c0.511-0.548,1.195-0.911,1.911-1.115c0.163-0.048,0.337-0.087,0.504-0.122c0.085-0.019,0.168-0.046,0.247-0.082
			c0.308-0.138,0.554-0.408,0.665-0.727c0.035-0.101,0.058-0.209,0.066-0.316c0.002-0.03,0.004-0.066,0.004-0.096
			c0,0,0-1.948,0-1.948c0-0.162-0.032-0.324-0.093-0.474c-0.119-0.293-0.353-0.536-0.64-0.666c-0.132-0.063-0.277-0.091-0.42-0.114
			c-0.173-0.032-0.349-0.076-0.517-0.127c-0.607-0.184-1.174-0.517-1.605-0.985c-0.599-0.642-0.925-1.49-1.09-2.341
			c-0.083-0.427-0.129-0.874-0.148-1.309c-0.028-2.543,0.106-7.092,0.177-9.636c0.054-1.2,0.346-2.489,1.243-3.348
			c0.482-0.467,1.11-0.76,1.761-0.903c0.182-0.044,0.374-0.056,0.548-0.129c0.164-0.066,0.314-0.167,0.436-0.294
			c0.193-0.199,0.315-0.464,0.343-0.74c0.008-0.206,0.019-2.036-0.007-2.229c-0.029-0.199-0.108-0.39-0.226-0.552
			c-0.134-0.185-0.321-0.332-0.532-0.42c-0.163-0.068-0.343-0.088-0.509-0.145c-0.325-0.101-0.635-0.255-0.904-0.464
			c-0.517-0.397-0.851-0.99-1.032-1.609c-0.269-0.924-0.27-1.906-0.194-2.858c0.534-5.218,1.383-11.129,2.221-16.311
			c0.052-0.308,0.121-0.622,0.21-0.921c0.151-0.504,0.364-0.996,0.671-1.425c0.336-0.475,0.798-0.862,1.332-1.094
			c0.178-0.078,0.365-0.142,0.553-0.189c0.14-0.034,0.285-0.06,0.416-0.124c0.299-0.138,0.538-0.4,0.648-0.711
			c0.037-0.103,0.061-0.213,0.07-0.322c0.003-0.032,0.004-0.069,0.004-0.101c0,0,0-1.996,0-1.996c0-0.191-0.045-0.383-0.129-0.554
			c-0.141-0.287-0.395-0.515-0.696-0.622c-0.367-0.108-0.708-0.32-0.919-0.645c-0.173-0.26-0.263-0.567-0.303-0.874
			c-0.047-0.363-0.029-0.735,0.017-1.098c0.226-1.406,3.572-18.246,3.68-19.156c0.153-1.091,0.582-2.26,1.572-2.851
			c0.203-0.123,0.423-0.22,0.649-0.29c0.137-0.045,0.282-0.066,0.415-0.124c0.204-0.085,0.384-0.226,0.517-0.403
			c0.138-0.183,0.223-0.404,0.245-0.632c0.002-0.025,0.004-0.055,0.005-0.08c0-0.01,0.001-0.029,0.001-0.04c0,0,0-1.985,0-1.985
			c-0.001-0.009,0-0.029-0.001-0.039c-0.003-0.086-0.015-0.174-0.035-0.258c-0.082-0.344-0.319-0.647-0.633-0.811
			c-0.195-0.105-0.402-0.125-0.62-0.221c-0.476-0.192-0.889-0.543-1.132-0.997c-0.111-0.204-0.19-0.426-0.238-0.653
			c-0.07-0.298-0.073-0.831-0.096-1.137c-0.687-11.007-4.11-22.416-7.061-33.022c-1.283-4.878-2.385-9.898-2.492-14.957
			c-0.002-0.551-0.029-1.178,0.011-1.725c0.035-0.364,0.117-0.724,0.245-1.067c0.278-0.75,0.776-1.416,1.417-1.894
			c0.322-0.242,0.68-0.436,1.058-0.577c0.191-0.076,0.392-0.12,0.588-0.175c0.513-0.161,0.874-0.655,0.87-1.192c0,0,0-1.985,0-1.985
			c0-0.041-0.002-0.078-0.006-0.118c-0.01-0.103-0.033-0.205-0.067-0.302c-0.112-0.318-0.359-0.584-0.666-0.721
			c-0.136-0.062-0.288-0.088-0.431-0.13c-0.281-0.082-0.555-0.193-0.812-0.331c-0.722-0.386-1.326-0.988-1.713-1.71
			c-0.219-0.407-0.37-0.851-0.445-1.306c-0.03-0.186-0.049-0.376-0.054-0.564c-0.001-0.032-0.001-0.085-0.002-0.118
			c0,0,0-10.492,0-10.492c0-0.298,0.032-0.597,0.095-0.888c0.248-1.173,1.026-2.217,2.079-2.79c0.257-0.141,0.53-0.256,0.811-0.341
			c0.15-0.05,0.309-0.069,0.454-0.135c0.323-0.137,0.581-0.416,0.692-0.749c0.035-0.104,0.057-0.213,0.063-0.322
			c0.001-0.018,0.002-0.042,0.002-0.059c-0.002,0.013,0.002-2.007,0-2.004c0.002-0.361-0.162-0.717-0.437-0.95
			c-0.131-0.113-0.287-0.197-0.452-0.248c-0.22-0.055-0.441-0.116-0.651-0.201c-0.688-0.271-1.302-0.728-1.759-1.31
			c-0.383-0.487-0.657-1.061-0.794-1.665c-0.051-0.227-0.084-0.46-0.097-0.692c-0.004-0.079-0.007-0.159-0.007-0.237
			c0,0,0-10.492,0-10.492c0-0.354,0.045-0.71,0.134-1.053c0.163-0.633,0.478-1.226,0.91-1.717c0.466-0.532,1.07-0.942,1.736-1.18
			c0.12-0.044,0.247-0.082,0.371-0.114c0.111-0.028,0.223-0.054,0.326-0.105c0.227-0.106,0.421-0.282,0.548-0.499
			c0.113-0.191,0.173-0.413,0.173-0.635c0,0,0-1.985,0-1.985c0-0.027-0.001-0.052-0.002-0.079c-0.007-0.109-0.028-0.218-0.063-0.322
			c-0.119-0.359-0.41-0.654-0.767-0.779c-0.069-0.022-0.143-0.043-0.214-0.059c-0.138-0.036-0.278-0.079-0.412-0.129
			c-0.392-0.145-0.763-0.35-1.094-0.604c-0.994-0.754-1.614-1.967-1.642-3.213c0.001-0.039-0.003-0.08-0.002-0.118
			c0-0.039,0-10.495,0-10.531c0.001-0.146,0.011-0.295,0.027-0.44c0.054-0.468,0.187-0.927,0.392-1.351
			c0.451-0.939,1.266-1.695,2.237-2.074c0.173-0.068,0.354-0.126,0.535-0.171c0.18-0.039,0.353-0.113,0.501-0.224
			c0.287-0.211,0.474-0.55,0.501-0.906c0.004-0.153,0.012-2.079-0.004-2.222c-0.018-0.16-0.067-0.317-0.144-0.459
			c-0.12-0.221-0.308-0.405-0.532-0.518c-0.164-0.088-0.352-0.114-0.528-0.169c-1.024-0.305-1.917-1.019-2.441-1.951
			c-0.263-0.464-0.436-0.979-0.507-1.508c-0.021-0.158-0.034-0.322-0.037-0.481c0.004-0.017-0.004-0.061-0.001-0.078
			c0,0,0-10.492,0-10.492c-0.003-1.025,0.387-2.044,1.074-2.804c0.442-0.493,1.004-0.88,1.623-1.116
			c0.147-0.056,0.3-0.105,0.453-0.144c0.118-0.026,0.236-0.06,0.344-0.114c0.291-0.141,0.522-0.399,0.629-0.704
			c0.035-0.097,0.057-0.2,0.067-0.302c0.004-0.037,0.005-0.081,0.006-0.118c0,0,0-1.985,0-1.985c0-0.186-0.042-0.372-0.122-0.539
			c-0.123-0.259-0.339-0.473-0.599-0.594c-0.103-0.05-0.215-0.079-0.326-0.105c-0.138-0.035-0.278-0.08-0.412-0.129
			c-0.921-0.338-1.713-1.013-2.194-1.868c-0.343-0.604-0.532-1.295-0.544-1.989c0.017-0.784-0.029-5.82,0.024-6.562
			c0.044-1.082,0.15-2.211,0.299-3.284c0.489-3.508,1.482-6.968,2.706-10.287c2.557-6.858,6.171-13.353,10.085-19.522
			c5.802-9.069,12.577-17.788,19.512-26.015c1.633-1.974,5.1-5.878,6.764-7.797c0.15-0.175,0.304-0.378,0.437-0.567
			c0.358-0.511,0.654-1.072,0.884-1.652c0.364-0.917,0.572-1.897,0.666-2.878c0,0,0.011-0.122,0.011-0.122s0.01-0.123,0.01-0.123
			s0.009-0.124,0.009-0.124s0.008-0.125,0.008-0.125s0.007-0.126,0.007-0.126s0.011-0.254,0.011-0.254s0.006-0.258,0.006-0.258
			s0.002-0.261,0.002-0.261s0-5.765,0-5.765c0-0.057-0.003-0.12-0.01-0.177c-0.045-0.411-0.261-0.802-0.588-1.057
			c-0.105-0.082-0.22-0.153-0.343-0.206c-0.139-0.061-0.287-0.103-0.438-0.121c-0.283-0.042-1.175,0.017-1.458-0.027
			c-0.345-0.046-0.671-0.212-0.914-0.461c-0.304-0.308-0.469-0.748-0.444-1.181c0.018-0.37,0.173-0.732,0.429-1
			c0.26-0.276,0.623-0.454,1.002-0.488l-1.432-0.003c0.007-3.525-0.01-14.331,0.004-18.024c0.01-0.225,0.039-0.453,0.085-0.674
			c0.172-0.828,0.603-1.601,1.218-2.182c0.572-0.545,1.302-0.922,2.077-1.074c0.221-0.043,0.448-0.07,0.672-0.077
			c0.112-0.007,25.193,0,25.321-0.002c0.161,0.018,25.161-0.016,25.321,0.002c0.225,0.007,0.452,0.034,0.673,0.077
			c0.775,0.152,1.505,0.529,2.077,1.074c0.614,0.582,1.046,1.354,1.218,2.182c0.046,0.221,0.075,0.449,0.085,0.674
			c0.009,3.728,0.003,14.444,0.004,18.024l-1.432,0.003c0.372,0.034,0.729,0.205,0.988,0.475c0.267,0.275,0.428,0.648,0.443,1.03
			c0.02,0.435-0.151,0.872-0.46,1.179c-0.249,0.251-0.585,0.412-0.935,0.451c-0.052,0.009-0.108,0.007-0.16,0.01
			c-0.016,0-1.049,0-1.067,0c0,0-0.017,0-0.017,0s-0.018,0-0.018,0c-0.109,0.003-0.219,0.016-0.325,0.041
			c-0.23,0.054-0.449,0.161-0.632,0.31c-0.308,0.249-0.515,0.616-0.567,1.008c-0.007,0.061-0.013,0.118-0.014,0.179
			c-0.013-0.008,0.008,5.794,0,5.8c0.003,0.383,0.012,0.77,0.043,1.147c0.077,0.994,0.265,1.986,0.611,2.923
			c0.229,0.621,0.531,1.22,0.903,1.768c0.152,0.225,0.321,0.444,0.496,0.652c1.638,1.9,5.242,5.956,6.764,7.797
			c6.936,8.229,13.71,16.944,19.512,26.015c3.915,6.171,7.529,12.663,10.085,19.522c1.224,3.321,2.216,6.778,2.706,10.287
			c0.149,1.074,0.256,2.2,0.299,3.284c0.037,0.763,0.023,5.682,0.023,6.562c-0.012,0.694-0.201,1.385-0.544,1.989
			c-0.481,0.855-1.273,1.529-2.194,1.868c-0.134,0.05-0.274,0.093-0.412,0.129c-0.118,0.029-0.236,0.058-0.344,0.114
			c-0.252,0.122-0.46,0.332-0.58,0.585c-0.08,0.168-0.122,0.354-0.122,0.539c0,0,0,1.985,0,1.985c0,0.033,0.002,0.066,0.004,0.099
			c0.009,0.11,0.032,0.219,0.069,0.322c0.108,0.305,0.339,0.563,0.629,0.704c0.108,0.054,0.227,0.087,0.344,0.114
			c0.152,0.039,0.306,0.088,0.453,0.144c0.619,0.236,1.181,0.622,1.623,1.116c0.687,0.761,1.077,1.779,1.074,2.804
			c0,0,0,10.492,0,10.492c-0.004,0.021,0.002,0.058-0.001,0.078c-0.003,0.16-0.015,0.323-0.037,0.481
			c-0.073,0.543-0.254,1.073-0.529,1.547c-0.533,0.926-1.433,1.629-2.459,1.924c-0.17,0.049-0.349,0.079-0.505,0.167
			c-0.223,0.118-0.408,0.305-0.524,0.528c-0.071,0.136-0.117,0.287-0.134,0.439c-0.017,0.113-0.006,2.071-0.005,2.202
			c0.021,0.362,0.21,0.71,0.502,0.926c0.147,0.111,0.321,0.186,0.501,0.224c0.181,0.045,0.362,0.102,0.535,0.171
			c0.984,0.385,1.808,1.157,2.256,2.114c0.2,0.425,0.329,0.884,0.378,1.352c0.014,0.131,0.022,0.267,0.023,0.399
			c0.008,0.097-0.005,10.475,0,10.57c-0.001,0.062-0.003,0.136-0.007,0.198c-0.063,1.205-0.676,2.365-1.637,3.094
			c-0.355,0.272-0.754,0.487-1.176,0.633c-0.21,0.08-0.466,0.118-0.637,0.196c-0.405,0.177-0.695,0.583-0.734,1.024
			c-0.004,0.037-0.005,0.081-0.006,0.118c-0.003,0.004,0.002,1.997,0,2.004c0,0.038,0.003,0.081,0.008,0.119
			c0.019,0.174,0.076,0.345,0.165,0.496c0.13,0.222,0.331,0.402,0.566,0.507c0.097,0.046,0.203,0.071,0.307,0.097
			c0.109,0.027,0.223,0.063,0.33,0.099c0.682,0.236,1.301,0.652,1.777,1.195c0.422,0.48,0.732,1.059,0.899,1.676
			c0.096,0.356,0.145,0.726,0.145,1.094c0,0,0,10.492,0,10.492c-0.001,0.06-0.001,0.136-0.005,0.197
			c-0.011,0.231-0.041,0.464-0.09,0.691c-0.137,0.634-0.424,1.237-0.831,1.742c-0.471,0.588-1.105,1.044-1.812,1.305
			c-0.134,0.049-0.274,0.094-0.412,0.129c-0.069,0.017-0.147,0.034-0.214,0.059c-0.144,0.051-0.279,0.13-0.396,0.229
			c-0.27,0.229-0.433,0.577-0.437,0.931c0,0.018,0,1.985,0,2.004c0,0.072,0.007,0.148,0.019,0.219
			c0.027,0.153,0.084,0.302,0.165,0.434c0.13,0.213,0.327,0.387,0.555,0.489c0.136,0.065,0.288,0.087,0.431,0.13
			c0.295,0.086,0.583,0.205,0.852,0.353c1.066,0.579,1.849,1.642,2.088,2.831c0.057,0.277,0.086,0.563,0.086,0.847
			c0,0,0,10.492,0,10.492c0,0.074-0.002,0.162-0.007,0.237c-0.009,0.161-0.028,0.327-0.056,0.486
			c-0.077,0.441-0.226,0.871-0.438,1.265c-0.408,0.761-1.058,1.39-1.832,1.771c-0.247,0.122-0.509,0.222-0.776,0.293
			c0,0-0.041,0.011-0.041,0.011s-0.041,0.01-0.041,0.01s-0.041,0.01-0.041,0.01c-0.077,0.017-0.153,0.045-0.225,0.076
			c-0.328,0.145-0.585,0.438-0.686,0.782c-0.031,0.103-0.049,0.214-0.052,0.321c0,0,0,0.02,0,0.02l0,0.02v1.985
			c-0.001,0.265,0.087,0.531,0.245,0.744c0.155,0.21,0.377,0.37,0.625,0.448c0.592,0.138,1.16,0.383,1.646,0.752
			c0.652,0.487,1.157,1.169,1.432,1.935c0.128,0.355,0.208,0.73,0.237,1.106c0.029,0.65,0.008,1.386-0.006,2.036
			c-0.153,4.923-1.232,9.817-2.482,14.565c-2.955,10.625-6.372,22.001-7.061,33.022c-0.025,0.312-0.024,0.84-0.096,1.137
			c-0.048,0.227-0.127,0.449-0.238,0.653c-0.243,0.454-0.656,0.805-1.132,0.997c-0.219,0.096-0.425,0.116-0.62,0.221
			c-0.314,0.164-0.55,0.466-0.633,0.811c-0.021,0.084-0.033,0.172-0.035,0.258c0,0.01-0.001,0.029-0.001,0.039c0,0,0,1.985,0,1.985
			c0.001,0.009,0,0.03,0.001,0.04c0.001,0.025,0.003,0.055,0.005,0.08c0.022,0.228,0.107,0.449,0.245,0.632
			c0.132,0.177,0.313,0.317,0.517,0.403c0.132,0.057,0.278,0.079,0.415,0.124c0.236,0.073,0.465,0.175,0.675,0.306
			c0.973,0.597,1.393,1.754,1.546,2.835c0.125,1.019,3.46,17.748,3.688,19.228c0.039,0.339,0.052,0.687,0.008,1.026
			c-0.04,0.307-0.13,0.614-0.303,0.874c-0.212,0.326-0.551,0.537-0.919,0.645c-0.301,0.108-0.555,0.336-0.696,0.622
			c-0.085,0.171-0.13,0.363-0.129,0.554c0,0,0,1.996,0,1.996c0,0.032,0.001,0.069,0.004,0.101c0.009,0.109,0.032,0.219,0.07,0.322
			c0.112,0.317,0.359,0.583,0.666,0.719c0.125,0.059,0.264,0.083,0.398,0.116c0.2,0.051,0.398,0.119,0.586,0.204
			c0.533,0.238,0.99,0.632,1.321,1.11c0.295,0.422,0.502,0.903,0.649,1.395c0.089,0.299,0.159,0.613,0.21,0.921
			c0.838,5.182,1.688,11.093,2.221,16.311c0.131,1.655,0.047,3.808-1.594,4.706c-0.221,0.12-0.46,0.209-0.703,0.272
			c-0.257,0.055-0.453,0.117-0.66,0.289c-0.279,0.229-0.45,0.583-0.454,0.944c0.011,0.198-0.03,2.061,0.029,2.207
			c0.042,0.193,0.131,0.376,0.257,0.528c0.126,0.153,0.289,0.275,0.472,0.353c0.181,0.082,0.384,0.094,0.576,0.14
			c0.61,0.135,1.201,0.399,1.669,0.818c0.964,0.853,1.28,2.193,1.334,3.433c0.064,2.695,0.233,7.23,0.161,9.914
			c-0.035,0.483-0.103,0.971-0.225,1.44c-0.182,0.706-0.496,1.394-0.997,1.931c-0.479,0.521-1.124,0.869-1.807,1.042
			c-0.284,0.081-0.542,0.077-0.797,0.214c-0.239,0.124-0.436,0.328-0.551,0.572c-0.064,0.135-0.104,0.282-0.117,0.432
			c-0.002,0.229-0.024,2.066,0.014,2.268c0.06,0.355,0.282,0.677,0.592,0.86c0.085,0.051,0.176,0.091,0.27,0.12
			c0.107,0.03,0.233,0.054,0.342,0.08c0.603,0.143,1.19,0.383,1.69,0.754c0.451,0.332,0.82,0.772,1.075,1.27
			c0.28,0.54,0.434,1.14,0.508,1.742c0.111,0.279,0.034,9.258,0.055,9.783c0.005,2.487-0.805,4.674-3.53,5.085
			c-0.41,0.074-0.769,0.367-0.925,0.753c-0.049,0.118-0.079,0.244-0.09,0.371c-0.004,0.185-0.018,2.004,0.009,2.171
			c0.034,0.234,0.136,0.457,0.291,0.635c0.131,0.152,0.3,0.272,0.487,0.346c0.101,0.041,0.209,0.065,0.317,0.081
			c0.121,0.02,0.25,0.047,0.369,0.077c0.539,0.133,1.06,0.365,1.495,0.713c0.428,0.339,0.765,0.786,1.001,1.276
			c0.315,0.652,0.468,1.375,0.535,2.093c0.084,0.632,0.025,5.461,0.042,6.19c-0.018,2.773,0.001,8.3-0.17,11.025
			c-0.194,3.595-0.63,7.244-1.864,10.645c-1.66,4.557-4.591,8.713-8.532,11.572c-1.408,1.007-2.953,1.863-4.608,2.384
			c-1.247,0.394-2.559,0.622-3.854,0.789c-2.162,0.298-4.594,0.382-6.778,0.493C555.247,565.22,521.35,564.975,507.417,565.035z"/>
	</g>
</g>
</svg>
